<ttFont>
    <TTGlyph name="A" xMin="22" yMin="-5" xMax="662" yMax="660">
      <contour>
        <pt x="662" y="0" on="1"/>
        <pt x="645" y="-5" on="0"/>
        <pt x="622" y="-5" on="1"/>
        <pt x="605" y="-5" on="0"/>
        <pt x="560" y="3" on="0"/>
        <pt x="513" y="30" on="0"/>
        <pt x="468" y="82" on="0"/>
        <pt x="452" y="125" on="1"/>
        <pt x="427" y="190" on="1"/>
        <pt x="147" y="190" on="1"/>
        <pt x="67" y="0" on="1"/>
        <pt x="22" y="0" on="1"/>
        <pt x="302" y="660" on="1"/>
        <pt x="332" y="660" on="1"/>
        <pt x="552" y="125" on="1"/>
        <pt x="564" y="97" on="0"/>
        <pt x="585" y="58" on="0"/>
        <pt x="611" y="34" on="0"/>
        <pt x="641" y="22" on="0"/>
        <pt x="662" y="20" on="1"/>
      </contour>
      <contour>
        <pt x="162" y="230" on="1"/>
        <pt x="407" y="230" on="1"/>
        <pt x="287" y="520" on="1"/>
      </contour>
    </TTGlyph>
    <TTGlyph name="AE" xMin="-14" yMin="0" xMax="836" yMax="660">
      <contour>
        <pt x="717" y="660" on="1"/>
        <pt x="743" y="660" on="0"/>
        <pt x="776" y="646" on="0"/>
        <pt x="795" y="624" on="0"/>
        <pt x="802" y="595" on="0"/>
        <pt x="802" y="580" on="1"/>
        <pt x="802" y="505" on="1"/>
        <pt x="782" y="505" on="1"/>
        <pt x="782" y="565" on="0"/>
        <pt x="717" y="620" on="0"/>
        <pt x="657" y="620" on="1"/>
        <pt x="471" y="620" on="1"/>
        <pt x="471" y="360" on="1"/>
        <pt x="741" y="360" on="1"/>
        <pt x="741" y="320" on="1"/>
        <pt x="471" y="320" on="1"/>
        <pt x="471" y="40" on="1"/>
        <pt x="646" y="40" on="1"/>
        <pt x="714" y="40" on="0"/>
        <pt x="793" y="90" on="0"/>
        <pt x="816" y="150" on="1"/>
        <pt x="836" y="145" on="1"/>
        <pt x="801" y="50" on="1"/>
        <pt x="793" y="27" on="0"/>
        <pt x="756" y="0" on="0"/>
        <pt x="726" y="0" on="1"/>
        <pt x="381" y="0" on="1"/>
        <pt x="381" y="190" on="1"/>
        <pt x="141" y="190" on="1"/>
        <pt x="36" y="0" on="1"/>
        <pt x="-14" y="0" on="1"/>
        <pt x="356" y="660" on="1"/>
      </contour>
      <contour>
        <pt x="166" y="230" on="1"/>
        <pt x="381" y="230" on="1"/>
        <pt x="381" y="615" on="1"/>
      </contour>
    </TTGlyph>
    <TTGlyph name="Aacute" xMin="22" yMin="-5" xMax="662" yMax="830">
      <component glyphName="A" x="0" y="0" flags="0x204"/>
      <component glyphName="acute" x="282" y="0" flags="0x4"/>
    </TTGlyph>
    <TTGlyph name="Acircumflex" xMin="22" yMin="-5" xMax="662" yMax="800">
      <component glyphName="A" x="0" y="0" flags="0x204"/>
      <component glyphName="circumflex" x="162" y="25" flags="0x4"/>
    </TTGlyph>
    <TTGlyph name="Adieresis" xMin="22" yMin="-5" xMax="662" yMax="790">
      <component glyphName="A" x="0" y="0" flags="0x204"/>
      <component glyphName="dieresis" x="162" y="0" flags="0x4"/>
    </TTGlyph>
    <TTGlyph name="Agrave" xMin="22" yMin="-5" xMax="662" yMax="830">
      <component glyphName="A" x="0" y="0" flags="0x204"/>
      <component glyphName="grave.alt1" x="202" y="175" flags="0x4"/>
    </TTGlyph>
    <TTGlyph name="Aring" xMin="22" yMin="-5" xMax="662" yMax="790">
      <contour>
        <pt x="232" y="705" on="1"/>
        <pt x="232" y="722" on="0"/>
        <pt x="246" y="753" on="0"/>
        <pt x="269" y="776" on="0"/>
        <pt x="300" y="790" on="0"/>
        <pt x="317" y="790" on="1"/>
        <pt x="334" y="790" on="0"/>
        <pt x="365" y="776" on="0"/>
        <pt x="388" y="753" on="0"/>
        <pt x="402" y="722" on="0"/>
        <pt x="402" y="705" on="1"/>
        <pt x="402" y="671" on="0"/>
        <pt x="366" y="633" on="0"/>
        <pt x="347" y="625" on="1"/>
        <pt x="552" y="125" on="1"/>
        <pt x="564" y="97" on="0"/>
        <pt x="585" y="58" on="0"/>
        <pt x="611" y="34" on="0"/>
        <pt x="641" y="22" on="0"/>
        <pt x="662" y="20" on="1"/>
        <pt x="662" y="0" on="1"/>
        <pt x="645" y="-5" on="0"/>
        <pt x="622" y="-5" on="1"/>
        <pt x="605" y="-5" on="0"/>
        <pt x="560" y="3" on="0"/>
        <pt x="513" y="30" on="0"/>
        <pt x="468" y="82" on="0"/>
        <pt x="452" y="125" on="1"/>
        <pt x="427" y="190" on="1"/>
        <pt x="147" y="190" on="1"/>
        <pt x="67" y="0" on="1"/>
        <pt x="22" y="0" on="1"/>
        <pt x="287" y="625" on="1"/>
        <pt x="268" y="633" on="0"/>
        <pt x="232" y="671" on="0"/>
      </contour>
      <contour>
        <pt x="162" y="230" on="1"/>
        <pt x="407" y="230" on="1"/>
        <pt x="287" y="520" on="1"/>
      </contour>
      <contour>
        <pt x="272" y="705" on="1"/>
        <pt x="272" y="690" on="0"/>
        <pt x="286" y="668" on="0"/>
        <pt x="297" y="660" on="1"/>
        <pt x="337" y="660" on="1"/>
        <pt x="348" y="668" on="0"/>
        <pt x="362" y="690" on="0"/>
        <pt x="362" y="705" on="1"/>
        <pt x="362" y="728" on="0"/>
        <pt x="336" y="755" on="0"/>
        <pt x="317" y="755" on="1"/>
        <pt x="298" y="755" on="0"/>
        <pt x="272" y="728" on="0"/>
      </contour>
    </TTGlyph>
    <TTGlyph name="Atilde" xMin="22" yMin="-5" xMax="662" yMax="795">
      <component glyphName="A" x="0" y="0" flags="0x204"/>
      <component glyphName="tilde" x="189" y="20" flags="0x4"/>
    </TTGlyph>
    <TTGlyph name="B" xMin="16" yMin="0" xMax="581" yMax="660">
      <contour>
        <pt x="196" y="315" on="1"/>
        <pt x="196" y="49" on="1"/>
        <pt x="219" y="42" on="0"/>
        <pt x="268" y="35" on="0"/>
        <pt x="291" y="35" on="1"/>
        <pt x="382" y="35" on="0"/>
        <pt x="481" y="107" on="0"/>
        <pt x="481" y="175" on="1"/>
        <pt x="481" y="243" on="0"/>
        <pt x="385" y="315" on="0"/>
        <pt x="291" y="315" on="1"/>
      </contour>
      <contour>
        <pt x="291" y="355" on="1"/>
        <pt x="321" y="355" on="0"/>
        <pt x="378" y="372" on="0"/>
        <pt x="423" y="406" on="0"/>
        <pt x="451" y="456" on="0"/>
        <pt x="451" y="490" on="1"/>
        <pt x="451" y="526" on="0"/>
        <pt x="417" y="577" on="0"/>
        <pt x="365" y="610" on="0"/>
        <pt x="301" y="625" on="0"/>
        <pt x="271" y="625" on="1"/>
        <pt x="252" y="625" on="0"/>
        <pt x="211" y="619" on="0"/>
        <pt x="196" y="615" on="1"/>
        <pt x="196" y="355" on="1"/>
      </contour>
      <contour>
        <pt x="276" y="660" on="1"/>
        <pt x="315" y="660" on="0"/>
        <pt x="410" y="649" on="0"/>
        <pt x="491" y="612" on="0"/>
        <pt x="546" y="543" on="0"/>
        <pt x="546" y="485" on="1"/>
        <pt x="546" y="440" on="0"/>
        <pt x="484" y="363" on="0"/>
        <pt x="416" y="340" on="1"/>
        <pt x="465" y="332" on="0"/>
        <pt x="528" y="303" on="0"/>
        <pt x="566" y="262" on="0"/>
        <pt x="581" y="210" on="0"/>
        <pt x="581" y="180" on="1"/>
        <pt x="581" y="124" on="0"/>
        <pt x="530" y="53" on="0"/>
        <pt x="451" y="14" on="0"/>
        <pt x="353" y="0" on="0"/>
        <pt x="306" y="0" on="1"/>
        <pt x="106" y="0" on="1"/>
        <pt x="106" y="540" on="1"/>
        <pt x="106" y="585" on="0"/>
        <pt x="81" y="640" on="0"/>
        <pt x="36" y="640" on="1"/>
        <pt x="16" y="640" on="1"/>
        <pt x="16" y="660" on="1"/>
      </contour>
    </TTGlyph>
    <TTGlyph name="Breve" xMin="0" yMin="700" xMax="260" yMax="805">
      <contour>
        <pt x="130" y="760" on="1"/>
        <pt x="172" y="760" on="0"/>
        <pt x="225" y="786" on="0"/>
        <pt x="240" y="805" on="1"/>
        <pt x="260" y="790" on="1"/>
        <pt x="241" y="748" on="0"/>
        <pt x="179" y="700" on="0"/>
        <pt x="130" y="700" on="1"/>
        <pt x="81" y="700" on="0"/>
        <pt x="19" y="748" on="0"/>
        <pt x="0" y="790" on="1"/>
        <pt x="20" y="805" on="1"/>
        <pt x="35" y="786" on="0"/>
        <pt x="88" y="760" on="0"/>
      </contour>
    </TTGlyph>
    <TTGlyph name="C" xMin="44" yMin="-20" xMax="629" yMax="680">
      <contour>
        <pt x="589" y="450" on="1"/>
        <pt x="570" y="548" on="0"/>
        <pt x="467" y="640" on="0"/>
        <pt x="384" y="640" on="1"/>
        <pt x="335" y="640" on="0"/>
        <pt x="248" y="607" on="0"/>
        <pt x="182" y="532" on="0"/>
        <pt x="144" y="410" on="0"/>
        <pt x="144" y="320" on="1"/>
        <pt x="144" y="264" on="0"/>
        <pt x="171" y="156" on="0"/>
        <pt x="229" y="72" on="0"/>
        <pt x="320" y="20" on="0"/>
        <pt x="384" y="20" on="1"/>
        <pt x="459" y="20" on="0"/>
        <pt x="567" y="92" on="0"/>
        <pt x="609" y="160" on="1"/>
        <pt x="629" y="145" on="1"/>
        <pt x="605" y="98" on="0"/>
        <pt x="546" y="35" on="0"/>
        <pt x="478" y="-4" on="0"/>
        <pt x="399" y="-20" on="0"/>
        <pt x="354" y="-20" on="1"/>
        <pt x="283" y="-20" on="0"/>
        <pt x="168" y="33" on="0"/>
        <pt x="87" y="125" on="0"/>
        <pt x="44" y="249" on="0"/>
        <pt x="44" y="320" on="1"/>
        <pt x="44" y="395" on="0"/>
        <pt x="93" y="526" on="0"/>
        <pt x="177" y="624" on="0"/>
        <pt x="290" y="680" on="0"/>
        <pt x="354" y="680" on="1"/>
        <pt x="437" y="680" on="0"/>
        <pt x="557" y="633" on="0"/>
        <pt x="584" y="600" on="1"/>
        <pt x="603" y="577" on="0"/>
        <pt x="609" y="495" on="0"/>
        <pt x="609" y="450" on="1"/>
      </contour>
    </TTGlyph>
    <TTGlyph name="Ccedilla" xMin="44" yMin="-196" xMax="629" yMax="680">
      <contour>
        <pt x="324" y="-196" on="1"/>
        <pt x="324" y="-155" on="1"/>
        <pt x="374" y="-155" on="1"/>
        <pt x="414" y="-155" on="0"/>
        <pt x="414" y="-123" on="1"/>
        <pt x="414" y="-90" on="0"/>
        <pt x="374" y="-90" on="1"/>
        <pt x="329" y="-90" on="1"/>
        <pt x="329" y="-20" on="1"/>
        <pt x="263" y="-16" on="0"/>
        <pt x="158" y="39" on="0"/>
        <pt x="84" y="131" on="0"/>
        <pt x="44" y="251" on="0"/>
        <pt x="44" y="320" on="1"/>
        <pt x="44" y="395" on="0"/>
        <pt x="93" y="526" on="0"/>
        <pt x="177" y="624" on="0"/>
        <pt x="290" y="680" on="0"/>
        <pt x="354" y="680" on="1"/>
        <pt x="437" y="680" on="0"/>
        <pt x="557" y="633" on="0"/>
        <pt x="584" y="600" on="1"/>
        <pt x="603" y="577" on="0"/>
        <pt x="609" y="495" on="0"/>
        <pt x="609" y="450" on="1"/>
        <pt x="589" y="450" on="1"/>
        <pt x="570" y="548" on="0"/>
        <pt x="467" y="640" on="0"/>
        <pt x="384" y="640" on="1"/>
        <pt x="335" y="640" on="0"/>
        <pt x="248" y="607" on="0"/>
        <pt x="182" y="532" on="0"/>
        <pt x="144" y="410" on="0"/>
        <pt x="144" y="320" on="1"/>
        <pt x="144" y="264" on="0"/>
        <pt x="171" y="156" on="0"/>
        <pt x="229" y="72" on="0"/>
        <pt x="320" y="20" on="0"/>
        <pt x="384" y="20" on="1"/>
        <pt x="459" y="20" on="0"/>
        <pt x="567" y="92" on="0"/>
        <pt x="609" y="160" on="1"/>
        <pt x="629" y="145" on="1"/>
        <pt x="606" y="101" on="0"/>
        <pt x="551" y="40" on="0"/>
        <pt x="488" y="1" on="0"/>
        <pt x="415" y="-18" on="0"/>
        <pt x="374" y="-20" on="1"/>
        <pt x="374" y="-50" on="1"/>
        <pt x="384" y="-50" on="1"/>
        <pt x="418" y="-50" on="0"/>
        <pt x="464" y="-87" on="0"/>
        <pt x="464" y="-123" on="1"/>
        <pt x="464" y="-158" on="0"/>
        <pt x="418" y="-196" on="0"/>
        <pt x="384" y="-196" on="1"/>
      </contour>
    </TTGlyph>
    <TTGlyph name="D" xMin="16" yMin="0" xMax="671" yMax="660">
      <contour>
        <pt x="199" y="48" on="1"/>
        <pt x="258" y="35" on="0"/>
        <pt x="301" y="35" on="1"/>
        <pt x="356" y="35" on="0"/>
        <pt x="452" y="76" on="0"/>
        <pt x="522" y="153" on="0"/>
        <pt x="562" y="262" on="0"/>
        <pt x="562" y="330" on="1"/>
        <pt x="562" y="396" on="0"/>
        <pt x="523" y="505" on="0"/>
        <pt x="453" y="583" on="0"/>
        <pt x="356" y="625" on="0"/>
        <pt x="299" y="625" on="1"/>
        <pt x="277" y="625" on="0"/>
        <pt x="226" y="617" on="0"/>
        <pt x="199" y="609" on="1"/>
      </contour>
      <contour>
        <pt x="278" y="660" on="1"/>
        <pt x="377" y="660" on="0"/>
        <pt x="525" y="614" on="0"/>
        <pt x="622" y="530" on="0"/>
        <pt x="671" y="409" on="0"/>
        <pt x="671" y="334" on="1"/>
        <pt x="671" y="261" on="0"/>
        <pt x="624" y="138" on="0"/>
        <pt x="532" y="50" on="0"/>
        <pt x="395" y="0" on="0"/>
        <pt x="304" y="0" on="1"/>
        <pt x="106" y="0" on="1"/>
        <pt x="106" y="540" on="1"/>
        <pt x="106" y="585" on="0"/>
        <pt x="81" y="640" on="0"/>
        <pt x="36" y="640" on="1"/>
        <pt x="16" y="640" on="1"/>
        <pt x="16" y="660" on="1"/>
      </contour>
    </TTGlyph>
    <TTGlyph name="E" xMin="16" yMin="0" xMax="561" yMax="660">
      <contour>
        <pt x="442" y="660" on="1"/>
        <pt x="468" y="660" on="0"/>
        <pt x="501" y="646" on="0"/>
        <pt x="520" y="624" on="0"/>
        <pt x="527" y="595" on="0"/>
        <pt x="527" y="580" on="1"/>
        <pt x="527" y="505" on="1"/>
        <pt x="507" y="505" on="1"/>
        <pt x="507" y="565" on="0"/>
        <pt x="442" y="620" on="0"/>
        <pt x="382" y="620" on="1"/>
        <pt x="196" y="620" on="1"/>
        <pt x="196" y="360" on="1"/>
        <pt x="466" y="360" on="1"/>
        <pt x="466" y="320" on="1"/>
        <pt x="196" y="320" on="1"/>
        <pt x="196" y="40" on="1"/>
        <pt x="371" y="40" on="1"/>
        <pt x="439" y="40" on="0"/>
        <pt x="518" y="90" on="0"/>
        <pt x="541" y="150" on="1"/>
        <pt x="561" y="145" on="1"/>
        <pt x="526" y="50" on="1"/>
        <pt x="518" y="27" on="0"/>
        <pt x="481" y="0" on="0"/>
        <pt x="451" y="0" on="1"/>
        <pt x="106" y="0" on="1"/>
        <pt x="106" y="540" on="1"/>
        <pt x="106" y="585" on="0"/>
        <pt x="81" y="640" on="0"/>
        <pt x="36" y="640" on="1"/>
        <pt x="16" y="640" on="1"/>
        <pt x="16" y="660" on="1"/>
      </contour>
    </TTGlyph>
    <TTGlyph name="Eacute" xMin="16" yMin="0" xMax="561" yMax="830">
      <component glyphName="E" x="0" y="0" flags="0x204"/>
      <component glyphName="acute" x="256" y="0" flags="0x4"/>
    </TTGlyph>
    <TTGlyph name="Ecircumflex" xMin="16" yMin="0" xMax="561" yMax="836">
      <component glyphName="E" x="0" y="0" flags="0x204"/>
      <component glyphName="circumflex" x="146" y="61" flags="0x4"/>
    </TTGlyph>
    <TTGlyph name="Edieresis" xMin="16" yMin="0" xMax="561" yMax="830">
      <component glyphName="E" x="0" y="0" flags="0x204"/>
      <component glyphName="dieresis" x="136" y="40" flags="0x4"/>
    </TTGlyph>
    <TTGlyph name="Egrave" xMin="16" yMin="0" xMax="561" yMax="830">
      <component glyphName="E" x="0" y="0" flags="0x204"/>
      <component glyphName="grave.alt1" x="196" y="175" flags="0x4"/>
    </TTGlyph>
    <TTGlyph name="Eth" xMin="16" yMin="0" xMax="671" yMax="660">
      <contour>
        <pt x="31" y="350" on="1"/>
        <pt x="106" y="350" on="1"/>
        <pt x="106" y="540" on="1"/>
        <pt x="106" y="585" on="0"/>
        <pt x="81" y="640" on="0"/>
        <pt x="36" y="640" on="1"/>
        <pt x="16" y="640" on="1"/>
        <pt x="16" y="660" on="1"/>
        <pt x="278" y="660" on="1"/>
        <pt x="377" y="660" on="0"/>
        <pt x="525" y="614" on="0"/>
        <pt x="622" y="530" on="0"/>
        <pt x="671" y="409" on="0"/>
        <pt x="671" y="334" on="1"/>
        <pt x="671" y="261" on="0"/>
        <pt x="624" y="138" on="0"/>
        <pt x="532" y="50" on="0"/>
        <pt x="395" y="0" on="0"/>
        <pt x="304" y="0" on="1"/>
        <pt x="106" y="0" on="1"/>
        <pt x="106" y="310" on="1"/>
        <pt x="31" y="310" on="1"/>
      </contour>
      <contour>
        <pt x="199" y="350" on="1"/>
        <pt x="286" y="350" on="1"/>
        <pt x="286" y="310" on="1"/>
        <pt x="199" y="310" on="1"/>
        <pt x="199" y="48" on="1"/>
        <pt x="258" y="35" on="0"/>
        <pt x="301" y="35" on="1"/>
        <pt x="356" y="35" on="0"/>
        <pt x="452" y="76" on="0"/>
        <pt x="522" y="153" on="0"/>
        <pt x="562" y="262" on="0"/>
        <pt x="562" y="330" on="1"/>
        <pt x="562" y="396" on="0"/>
        <pt x="523" y="505" on="0"/>
        <pt x="453" y="583" on="0"/>
        <pt x="356" y="625" on="0"/>
        <pt x="299" y="625" on="1"/>
        <pt x="277" y="625" on="0"/>
        <pt x="226" y="617" on="0"/>
        <pt x="199" y="609" on="1"/>
      </contour>
    </TTGlyph>
    <TTGlyph name="Euro" xMin="28" yMin="-20" xMax="683" yMax="680">
      <contour>
        <pt x="378" y="255" on="1"/>
        <pt x="202" y="255" on="1"/>
        <pt x="209" y="208" on="0"/>
        <pt x="243" y="122" on="0"/>
        <pt x="301" y="58" on="0"/>
        <pt x="383" y="20" on="0"/>
        <pt x="438" y="20" on="1"/>
        <pt x="513" y="20" on="0"/>
        <pt x="621" y="92" on="0"/>
        <pt x="663" y="160" on="1"/>
        <pt x="683" y="145" on="1"/>
        <pt x="659" y="98" on="0"/>
        <pt x="600" y="35" on="0"/>
        <pt x="532" y="-4" on="0"/>
        <pt x="453" y="-20" on="0"/>
        <pt x="408" y="-20" on="1"/>
        <pt x="345" y="-20" on="0"/>
        <pt x="241" y="21" on="0"/>
        <pt x="162" y="95" on="0"/>
        <pt x="112" y="196" on="0"/>
        <pt x="103" y="255" on="1"/>
        <pt x="28" y="255" on="1"/>
        <pt x="38" y="295" on="1"/>
        <pt x="98" y="295" on="1"/>
        <pt x="98" y="355" on="1"/>
        <pt x="43" y="355" on="1"/>
        <pt x="53" y="395" on="1"/>
        <pt x="105" y="395" on="1"/>
        <pt x="116" y="456" on="0"/>
        <pt x="172" y="560" on="0"/>
        <pt x="252" y="637" on="0"/>
        <pt x="352" y="680" on="0"/>
        <pt x="408" y="680" on="1"/>
        <pt x="491" y="680" on="0"/>
        <pt x="611" y="633" on="0"/>
        <pt x="638" y="600" on="1"/>
        <pt x="657" y="577" on="0"/>
        <pt x="663" y="495" on="0"/>
        <pt x="663" y="450" on="1"/>
        <pt x="643" y="450" on="1"/>
        <pt x="624" y="548" on="0"/>
        <pt x="521" y="640" on="0"/>
        <pt x="438" y="640" on="1"/>
        <pt x="394" y="640" on="0"/>
        <pt x="316" y="615" on="0"/>
        <pt x="253" y="557" on="0"/>
        <pt x="210" y="463" on="0"/>
        <pt x="202" y="395" on="1"/>
        <pt x="403" y="395" on="1"/>
        <pt x="393" y="355" on="1"/>
        <pt x="198" y="355" on="1"/>
        <pt x="198" y="295" on="1"/>
        <pt x="388" y="295" on="1"/>
      </contour>
    </TTGlyph>
    <TTGlyph name="F" xMin="16" yMin="0" xMax="500" yMax="660">
      <contour>
        <pt x="415" y="660" on="1"/>
        <pt x="441" y="660" on="0"/>
        <pt x="474" y="646" on="0"/>
        <pt x="493" y="624" on="0"/>
        <pt x="500" y="595" on="0"/>
        <pt x="500" y="580" on="1"/>
        <pt x="500" y="505" on="1"/>
        <pt x="480" y="505" on="1"/>
        <pt x="480" y="565" on="0"/>
        <pt x="415" y="620" on="0"/>
        <pt x="355" y="620" on="1"/>
        <pt x="196" y="620" on="1"/>
        <pt x="196" y="355" on="1"/>
        <pt x="422" y="355" on="1"/>
        <pt x="422" y="315" on="1"/>
        <pt x="196" y="315" on="1"/>
        <pt x="196" y="0" on="1"/>
        <pt x="106" y="0" on="1"/>
        <pt x="106" y="540" on="1"/>
        <pt x="106" y="585" on="0"/>
        <pt x="81" y="640" on="0"/>
        <pt x="36" y="640" on="1"/>
        <pt x="16" y="640" on="1"/>
        <pt x="16" y="660" on="1"/>
      </contour>
    </TTGlyph>
    <TTGlyph name="G" xMin="44" yMin="-20" xMax="704" yMax="680">
      <contour>
        <pt x="384" y="640" on="1"/>
        <pt x="320" y="640" on="0"/>
        <pt x="229" y="588" on="0"/>
        <pt x="171" y="504" on="0"/>
        <pt x="144" y="396" on="0"/>
        <pt x="144" y="340" on="1"/>
        <pt x="144" y="250" on="0"/>
        <pt x="182" y="127" on="0"/>
        <pt x="248" y="52" on="0"/>
        <pt x="335" y="20" on="0"/>
        <pt x="384" y="20" on="1"/>
        <pt x="438" y="20" on="0"/>
        <pt x="510" y="39" on="0"/>
        <pt x="539" y="55" on="1"/>
        <pt x="539" y="229" on="1"/>
        <pt x="539" y="250" on="0"/>
        <pt x="548" y="291" on="0"/>
        <pt x="582" y="325" on="0"/>
        <pt x="648" y="346" on="0"/>
        <pt x="704" y="346" on="1"/>
        <pt x="704" y="326" on="1"/>
        <pt x="680" y="326" on="0"/>
        <pt x="650" y="313" on="0"/>
        <pt x="634" y="288" on="0"/>
        <pt x="629" y="253" on="0"/>
        <pt x="629" y="231" on="1"/>
        <pt x="629" y="43" on="1"/>
        <pt x="575" y="10" on="0"/>
        <pt x="457" y="-20" on="0"/>
        <pt x="384" y="-20" on="1"/>
        <pt x="309" y="-20" on="0"/>
        <pt x="184" y="36" on="0"/>
        <pt x="94" y="134" on="0"/>
        <pt x="44" y="265" on="0"/>
        <pt x="44" y="340" on="1"/>
        <pt x="44" y="411" on="0"/>
        <pt x="87" y="535" on="0"/>
        <pt x="168" y="627" on="0"/>
        <pt x="283" y="680" on="0"/>
        <pt x="354" y="680" on="1"/>
        <pt x="445" y="680" on="0"/>
        <pt x="567" y="633" on="0"/>
        <pt x="594" y="600" on="1"/>
        <pt x="603" y="589" on="0"/>
        <pt x="614" y="556" on="0"/>
        <pt x="618" y="520" on="0"/>
        <pt x="619" y="482" on="0"/>
        <pt x="619" y="465" on="1"/>
        <pt x="599" y="465" on="1"/>
        <pt x="580" y="552" on="0"/>
        <pt x="475" y="640" on="0"/>
      </contour>
    </TTGlyph>
    <TTGlyph name="Gbreve" xMin="44" yMin="-20" xMax="704" yMax="835">
      <component glyphName="G" x="0" y="0" flags="0x204"/>
      <component glyphName="Breve" x="235" y="30" flags="0x4"/>
    </TTGlyph>
    <TTGlyph name="H" xMin="16" yMin="0" xMax="676" yMax="660">
      <contour>
        <pt x="586" y="120" on="1"/>
        <pt x="586" y="75" on="0"/>
        <pt x="611" y="20" on="0"/>
        <pt x="656" y="20" on="1"/>
        <pt x="676" y="20" on="1"/>
        <pt x="676" y="0" on="1"/>
        <pt x="586" y="0" on="1"/>
        <pt x="560" y="0" on="0"/>
        <pt x="525" y="9" on="0"/>
        <pt x="504" y="36" on="0"/>
        <pt x="496" y="82" on="0"/>
        <pt x="496" y="120" on="1"/>
        <pt x="496" y="320" on="1"/>
        <pt x="196" y="320" on="1"/>
        <pt x="196" y="0" on="1"/>
        <pt x="106" y="0" on="1"/>
        <pt x="106" y="540" on="1"/>
        <pt x="106" y="585" on="0"/>
        <pt x="81" y="640" on="0"/>
        <pt x="36" y="640" on="1"/>
        <pt x="16" y="640" on="1"/>
        <pt x="16" y="660" on="1"/>
        <pt x="106" y="660" on="1"/>
        <pt x="132" y="660" on="0"/>
        <pt x="167" y="651" on="0"/>
        <pt x="188" y="624" on="0"/>
        <pt x="196" y="577" on="0"/>
        <pt x="196" y="540" on="1"/>
        <pt x="196" y="360" on="1"/>
        <pt x="496" y="360" on="1"/>
        <pt x="496" y="660" on="1"/>
        <pt x="586" y="660" on="1"/>
      </contour>
    </TTGlyph>
    <TTGlyph name="I" xMin="89" yMin="0" xMax="269" yMax="660">
      <contour>
        <pt x="89" y="660" on="1"/>
        <pt x="179" y="660" on="1"/>
        <pt x="179" y="120" on="1"/>
        <pt x="179" y="75" on="0"/>
        <pt x="204" y="20" on="0"/>
        <pt x="249" y="20" on="1"/>
        <pt x="269" y="20" on="1"/>
        <pt x="269" y="0" on="1"/>
        <pt x="179" y="0" on="1"/>
        <pt x="153" y="0" on="0"/>
        <pt x="118" y="9" on="0"/>
        <pt x="97" y="36" on="0"/>
        <pt x="89" y="82" on="0"/>
        <pt x="89" y="120" on="1"/>
      </contour>
    </TTGlyph>
    <TTGlyph name="Iacute" xMin="89" yMin="0" xMax="269" yMax="830">
      <component glyphName="I" x="0" y="0" flags="0x204"/>
      <component glyphName="acute" x="89" y="0" flags="0x4"/>
    </TTGlyph>
    <TTGlyph name="Icircumflex" xMin="0" yMin="0" xMax="270" yMax="810">
      <component glyphName="I" x="0" y="0" flags="0x204"/>
      <component glyphName="circumflex" x="-20" y="35" flags="0x4"/>
    </TTGlyph>
    <TTGlyph name="Idieresis" xMin="7" yMin="0" xMax="269" yMax="815">
      <contour>
        <pt x="89" y="660" on="1"/>
        <pt x="179" y="660" on="1"/>
        <pt x="179" y="120" on="1"/>
        <pt x="179" y="75" on="0"/>
        <pt x="204" y="20" on="0"/>
        <pt x="249" y="20" on="1"/>
        <pt x="269" y="20" on="1"/>
        <pt x="269" y="0" on="1"/>
        <pt x="179" y="0" on="1"/>
        <pt x="153" y="0" on="0"/>
        <pt x="118" y="9" on="0"/>
        <pt x="97" y="36" on="0"/>
        <pt x="89" y="82" on="0"/>
        <pt x="89" y="120" on="1"/>
      </contour>
      <contour>
        <pt x="261" y="765" on="1"/>
        <pt x="261" y="742" on="0"/>
        <pt x="234" y="715" on="0"/>
        <pt x="211" y="715" on="1"/>
        <pt x="188" y="715" on="0"/>
        <pt x="161" y="742" on="0"/>
        <pt x="161" y="765" on="1"/>
        <pt x="161" y="788" on="0"/>
        <pt x="188" y="815" on="0"/>
        <pt x="211" y="815" on="1"/>
        <pt x="234" y="815" on="0"/>
        <pt x="261" y="788" on="0"/>
      </contour>
      <contour>
        <pt x="107" y="765" on="1"/>
        <pt x="107" y="742" on="0"/>
        <pt x="80" y="715" on="0"/>
        <pt x="57" y="715" on="1"/>
        <pt x="34" y="715" on="0"/>
        <pt x="7" y="742" on="0"/>
        <pt x="7" y="765" on="1"/>
        <pt x="7" y="788" on="0"/>
        <pt x="34" y="815" on="0"/>
        <pt x="57" y="815" on="1"/>
        <pt x="80" y="815" on="0"/>
        <pt x="107" y="788" on="0"/>
      </contour>
    </TTGlyph>
    <TTGlyph name="Idotaccent" xMin="81" yMin="0" xMax="269" yMax="819">
      <contour>
        <pt x="89" y="660" on="1"/>
        <pt x="179" y="660" on="1"/>
        <pt x="179" y="120" on="1"/>
        <pt x="179" y="75" on="0"/>
        <pt x="204" y="20" on="0"/>
        <pt x="249" y="20" on="1"/>
        <pt x="269" y="20" on="1"/>
        <pt x="269" y="0" on="1"/>
        <pt x="179" y="0" on="1"/>
        <pt x="153" y="0" on="0"/>
        <pt x="118" y="9" on="0"/>
        <pt x="97" y="36" on="0"/>
        <pt x="89" y="82" on="0"/>
        <pt x="89" y="120" on="1"/>
      </contour>
      <contour>
        <pt x="183" y="755" on="1"/>
        <pt x="183" y="734" on="0"/>
        <pt x="158" y="710" on="0"/>
        <pt x="137" y="710" on="1"/>
        <pt x="114" y="710" on="0"/>
        <pt x="81" y="748" on="0"/>
        <pt x="81" y="774" on="1"/>
        <pt x="81" y="795" on="0"/>
        <pt x="106" y="819" on="0"/>
        <pt x="127" y="819" on="1"/>
        <pt x="150" y="819" on="0"/>
        <pt x="183" y="781" on="0"/>
      </contour>
    </TTGlyph>
    <TTGlyph name="Igrave" xMin="30" yMin="0" xMax="269" yMax="830">
      <component glyphName="I" x="0" y="0" flags="0x204"/>
      <component glyphName="grave.alt1" x="30" y="175" flags="0x4"/>
    </TTGlyph>
    <TTGlyph name="J" xMin="-9" yMin="-137" xMax="176" yMax="660">
      <contour>
        <pt x="-9" y="-117" on="1"/>
        <pt x="40" y="-117" on="0"/>
        <pt x="86" y="-13" on="0"/>
        <pt x="86" y="78" on="1"/>
        <pt x="86" y="660" on="1"/>
        <pt x="176" y="660" on="1"/>
        <pt x="176" y="78" on="1"/>
        <pt x="176" y="22" on="0"/>
        <pt x="159" y="-60" on="0"/>
        <pt x="117" y="-112" on="0"/>
        <pt x="45" y="-137" on="0"/>
        <pt x="-9" y="-137" on="1"/>
      </contour>
    </TTGlyph>
    <TTGlyph name="K" xMin="16" yMin="-10" xMax="686" yMax="660">
      <contour>
        <pt x="106" y="660" on="1"/>
        <pt x="132" y="660" on="0"/>
        <pt x="167" y="651" on="0"/>
        <pt x="188" y="624" on="0"/>
        <pt x="196" y="577" on="0"/>
        <pt x="196" y="540" on="1"/>
        <pt x="196" y="345" on="1"/>
        <pt x="406" y="555" on="1"/>
        <pt x="425" y="574" on="0"/>
        <pt x="460" y="611" on="0"/>
        <pt x="499" y="641" on="0"/>
        <pt x="546" y="660" on="0"/>
        <pt x="576" y="660" on="1"/>
        <pt x="626" y="660" on="1"/>
        <pt x="626" y="635" on="1"/>
        <pt x="585" y="635" on="0"/>
        <pt x="522" y="606" on="0"/>
        <pt x="481" y="565" on="1"/>
        <pt x="286" y="370" on="1"/>
        <pt x="516" y="130" on="1"/>
        <pt x="557" y="87" on="0"/>
        <pt x="648" y="24" on="0"/>
        <pt x="686" y="19" on="1"/>
        <pt x="686" y="0" on="1"/>
        <pt x="675" y="-4" on="0"/>
        <pt x="644" y="-10" on="0"/>
        <pt x="621" y="-10" on="1"/>
        <pt x="600" y="-10" on="0"/>
        <pt x="555" y="-1" on="0"/>
        <pt x="502" y="26" on="0"/>
        <pt x="442" y="72" on="0"/>
        <pt x="406" y="110" on="1"/>
        <pt x="196" y="330" on="1"/>
        <pt x="196" y="0" on="1"/>
        <pt x="106" y="0" on="1"/>
        <pt x="106" y="540" on="1"/>
        <pt x="106" y="585" on="0"/>
        <pt x="81" y="640" on="0"/>
        <pt x="36" y="640" on="1"/>
        <pt x="16" y="640" on="1"/>
        <pt x="16" y="660" on="1"/>
      </contour>
    </TTGlyph>
    <TTGlyph name="L" xMin="16" yMin="0" xMax="551" yMax="660">
      <contour>
        <pt x="196" y="40" on="1"/>
        <pt x="551" y="40" on="1"/>
        <pt x="551" y="0" on="1"/>
        <pt x="106" y="0" on="1"/>
        <pt x="106" y="540" on="1"/>
        <pt x="106" y="585" on="0"/>
        <pt x="81" y="640" on="0"/>
        <pt x="36" y="640" on="1"/>
        <pt x="16" y="640" on="1"/>
        <pt x="16" y="660" on="1"/>
        <pt x="106" y="660" on="1"/>
        <pt x="132" y="660" on="0"/>
        <pt x="167" y="651" on="0"/>
        <pt x="188" y="624" on="0"/>
        <pt x="196" y="577" on="0"/>
        <pt x="196" y="540" on="1"/>
      </contour>
    </TTGlyph>
    <TTGlyph name="M" xMin="86" yMin="-45" xMax="841" yMax="660">
      <contour>
        <pt x="841" y="-45" on="1"/>
        <pt x="787" y="-45" on="0"/>
        <pt x="715" y="-20" on="0"/>
        <pt x="673" y="32" on="0"/>
        <pt x="656" y="114" on="0"/>
        <pt x="656" y="170" on="1"/>
        <pt x="656" y="555" on="1"/>
        <pt x="406" y="0" on="1"/>
        <pt x="386" y="0" on="1"/>
        <pt x="126" y="565" on="1"/>
        <pt x="126" y="0" on="1"/>
        <pt x="86" y="0" on="1"/>
        <pt x="86" y="660" on="1"/>
        <pt x="181" y="660" on="1"/>
        <pt x="421" y="140" on="1"/>
        <pt x="656" y="660" on="1"/>
        <pt x="746" y="660" on="1"/>
        <pt x="746" y="170" on="1"/>
        <pt x="746" y="79" on="0"/>
        <pt x="792" y="-25" on="0"/>
        <pt x="841" y="-25" on="1"/>
      </contour>
    </TTGlyph>
    <TTGlyph name="N" xMin="10" yMin="-10" xMax="600" yMax="660">
      <contour>
        <pt x="110" y="540" on="1"/>
        <pt x="110" y="585" on="0"/>
        <pt x="72" y="640" on="0"/>
        <pt x="20" y="640" on="1"/>
        <pt x="10" y="640" on="1"/>
        <pt x="10" y="660" on="1"/>
        <pt x="75" y="660" on="1"/>
        <pt x="124" y="660" on="0"/>
        <pt x="187" y="628" on="0"/>
        <pt x="210" y="600" on="1"/>
        <pt x="560" y="165" on="1"/>
        <pt x="560" y="660" on="1"/>
        <pt x="600" y="660" on="1"/>
        <pt x="600" y="-10" on="1"/>
        <pt x="580" y="-10" on="1"/>
        <pt x="150" y="525" on="1"/>
        <pt x="150" y="0" on="1"/>
        <pt x="110" y="0" on="1"/>
      </contour>
    </TTGlyph>
    <TTGlyph name="Ntilde" xMin="10" yMin="-10" xMax="600" yMax="789">
      <component glyphName="N" x="0" y="0" flags="0x204"/>
      <component glyphName="tilde" x="217" y="14" flags="0x4"/>
    </TTGlyph>
    <TTGlyph name="O" xMin="46" yMin="-20" xMax="666" yMax="680">
      <contour>
        <pt x="566" y="330" on="1"/>
        <pt x="566" y="401" on="0"/>
        <pt x="537" y="516" on="0"/>
        <pt x="483" y="597" on="0"/>
        <pt x="405" y="640" on="0"/>
        <pt x="356" y="640" on="1"/>
        <pt x="307" y="640" on="0"/>
        <pt x="229" y="597" on="0"/>
        <pt x="175" y="516" on="0"/>
        <pt x="146" y="401" on="0"/>
        <pt x="146" y="330" on="1"/>
        <pt x="146" y="259" on="0"/>
        <pt x="175" y="144" on="0"/>
        <pt x="229" y="63" on="0"/>
        <pt x="307" y="20" on="0"/>
        <pt x="356" y="20" on="1"/>
        <pt x="405" y="20" on="0"/>
        <pt x="483" y="63" on="0"/>
        <pt x="537" y="144" on="0"/>
        <pt x="566" y="259" on="0"/>
      </contour>
      <contour>
        <pt x="46" y="330" on="1"/>
        <pt x="46" y="403" on="0"/>
        <pt x="89" y="531" on="0"/>
        <pt x="170" y="626" on="0"/>
        <pt x="285" y="680" on="0"/>
        <pt x="356" y="680" on="1"/>
        <pt x="427" y="680" on="0"/>
        <pt x="542" y="626" on="0"/>
        <pt x="623" y="531" on="0"/>
        <pt x="666" y="403" on="0"/>
        <pt x="666" y="330" on="1"/>
        <pt x="666" y="256" on="0"/>
        <pt x="623" y="129" on="0"/>
        <pt x="542" y="34" on="0"/>
        <pt x="427" y="-20" on="0"/>
        <pt x="356" y="-20" on="1"/>
        <pt x="285" y="-20" on="0"/>
        <pt x="170" y="34" on="0"/>
        <pt x="89" y="129" on="0"/>
        <pt x="46" y="256" on="0"/>
      </contour>
    </TTGlyph>
    <TTGlyph name="OE" xMin="46" yMin="-20" xMax="916" yMax="680">
      <contour>
        <pt x="46" y="330" on="1"/>
        <pt x="46" y="403" on="0"/>
        <pt x="89" y="531" on="0"/>
        <pt x="170" y="626" on="0"/>
        <pt x="285" y="680" on="0"/>
        <pt x="356" y="680" on="1"/>
        <pt x="386" y="680" on="0"/>
        <pt x="440" y="671" on="0"/>
        <pt x="466" y="660" on="1"/>
        <pt x="797" y="660" on="1"/>
        <pt x="823" y="660" on="0"/>
        <pt x="856" y="646" on="0"/>
        <pt x="875" y="624" on="0"/>
        <pt x="882" y="595" on="0"/>
        <pt x="882" y="580" on="1"/>
        <pt x="882" y="505" on="1"/>
        <pt x="862" y="505" on="1"/>
        <pt x="862" y="565" on="0"/>
        <pt x="797" y="620" on="0"/>
        <pt x="737" y="620" on="1"/>
        <pt x="551" y="620" on="1"/>
        <pt x="551" y="360" on="1"/>
        <pt x="821" y="360" on="1"/>
        <pt x="821" y="320" on="1"/>
        <pt x="551" y="320" on="1"/>
        <pt x="551" y="40" on="1"/>
        <pt x="726" y="40" on="1"/>
        <pt x="794" y="40" on="0"/>
        <pt x="873" y="90" on="0"/>
        <pt x="896" y="150" on="1"/>
        <pt x="916" y="145" on="1"/>
        <pt x="881" y="50" on="1"/>
        <pt x="873" y="27" on="0"/>
        <pt x="836" y="0" on="0"/>
        <pt x="806" y="0" on="1"/>
        <pt x="466" y="0" on="1"/>
        <pt x="440" y="-11" on="0"/>
        <pt x="386" y="-20" on="0"/>
        <pt x="356" y="-20" on="1"/>
        <pt x="285" y="-20" on="0"/>
        <pt x="170" y="34" on="0"/>
        <pt x="89" y="129" on="0"/>
        <pt x="46" y="256" on="0"/>
      </contour>
      <contour>
        <pt x="356" y="20" on="1"/>
        <pt x="417" y="20" on="0"/>
        <pt x="461" y="52" on="1"/>
        <pt x="461" y="610" on="1"/>
        <pt x="416" y="640" on="0"/>
        <pt x="356" y="640" on="1"/>
        <pt x="307" y="640" on="0"/>
        <pt x="229" y="597" on="0"/>
        <pt x="175" y="516" on="0"/>
        <pt x="146" y="401" on="0"/>
        <pt x="146" y="330" on="1"/>
        <pt x="146" y="259" on="0"/>
        <pt x="175" y="144" on="0"/>
        <pt x="229" y="63" on="0"/>
        <pt x="307" y="20" on="0"/>
      </contour>
    </TTGlyph>
    <TTGlyph name="Oacute" xMin="46" yMin="-20" xMax="666" yMax="850">
      <component glyphName="O" x="0" y="0" flags="0x204"/>
      <component glyphName="acute" x="315" y="20" flags="0x4"/>
    </TTGlyph>
    <TTGlyph name="Ocircumflex" xMin="46" yMin="-20" xMax="666" yMax="835">
      <component glyphName="O" x="0" y="0" flags="0x204"/>
      <component glyphName="circumflex" x="196" y="60" flags="0x4"/>
    </TTGlyph>
    <TTGlyph name="Odieresis" xMin="46" yMin="-20" xMax="666" yMax="835">
      <component glyphName="O" x="0" y="0" flags="0x204"/>
      <component glyphName="dieresis" x="201" y="45" flags="0x4"/>
    </TTGlyph>
    <TTGlyph name="Ograve" xMin="46" yMin="-20" xMax="666" yMax="854">
      <component glyphName="O" x="0" y="0" flags="0x204"/>
      <component glyphName="grave.alt1" x="246" y="199" flags="0x4"/>
    </TTGlyph>
    <TTGlyph name="Oslash" xMin="46" yMin="-20" xMax="666" yMax="680">
      <contour>
        <pt x="126" y="-20" on="1"/>
        <pt x="163" y="48" on="1"/>
        <pt x="107" y="96" on="0"/>
        <pt x="46" y="242" on="0"/>
        <pt x="46" y="330" on="1"/>
        <pt x="46" y="403" on="0"/>
        <pt x="89" y="531" on="0"/>
        <pt x="170" y="626" on="0"/>
        <pt x="285" y="680" on="0"/>
        <pt x="356" y="680" on="1"/>
        <pt x="394" y="680" on="0"/>
        <pt x="461" y="664" on="0"/>
        <pt x="490" y="650" on="1"/>
        <pt x="507" y="680" on="1"/>
        <pt x="580" y="680" on="1"/>
        <pt x="544" y="615" on="1"/>
        <pt x="602" y="567" on="0"/>
        <pt x="666" y="420" on="0"/>
        <pt x="666" y="330" on="1"/>
        <pt x="666" y="256" on="0"/>
        <pt x="623" y="129" on="0"/>
        <pt x="542" y="34" on="0"/>
        <pt x="427" y="-20" on="0"/>
        <pt x="356" y="-20" on="1"/>
        <pt x="278" y="-20" on="0"/>
        <pt x="216" y="12" on="1"/>
        <pt x="199" y="-20" on="1"/>
      </contour>
      <contour>
        <pt x="566" y="330" on="1"/>
        <pt x="566" y="400" on="0"/>
        <pt x="537" y="513" on="0"/>
        <pt x="511" y="554" on="1"/>
        <pt x="242" y="59" on="1"/>
        <pt x="292" y="20" on="0"/>
        <pt x="356" y="20" on="1"/>
        <pt x="405" y="20" on="0"/>
        <pt x="483" y="63" on="0"/>
        <pt x="537" y="144" on="0"/>
        <pt x="566" y="259" on="0"/>
      </contour>
      <contour>
        <pt x="146" y="330" on="1"/>
        <pt x="146" y="261" on="0"/>
        <pt x="172" y="151" on="0"/>
        <pt x="197" y="111" on="1"/>
        <pt x="465" y="604" on="1"/>
        <pt x="418" y="640" on="0"/>
        <pt x="356" y="640" on="1"/>
        <pt x="307" y="640" on="0"/>
        <pt x="229" y="597" on="0"/>
        <pt x="175" y="516" on="0"/>
        <pt x="146" y="401" on="0"/>
      </contour>
    </TTGlyph>
    <TTGlyph name="Otilde" xMin="46" yMin="-20" xMax="666" yMax="833">
      <component glyphName="O" x="0" y="0" flags="0x204"/>
      <component glyphName="tilde" x="222" y="58" flags="0x4"/>
    </TTGlyph>
    <TTGlyph name="P" xMin="16" yMin="0" xMax="526" yMax="660">
      <contour>
        <pt x="271" y="305" on="1"/>
        <pt x="292" y="305" on="0"/>
        <pt x="345" y="321" on="0"/>
        <pt x="393" y="359" on="0"/>
        <pt x="426" y="420" on="0"/>
        <pt x="426" y="465" on="1"/>
        <pt x="426" y="510" on="0"/>
        <pt x="393" y="571" on="0"/>
        <pt x="345" y="609" on="0"/>
        <pt x="292" y="625" on="0"/>
        <pt x="271" y="625" on="1"/>
        <pt x="252" y="625" on="0"/>
        <pt x="211" y="619" on="0"/>
        <pt x="196" y="615" on="1"/>
        <pt x="196" y="315" on="1"/>
        <pt x="211" y="311" on="0"/>
        <pt x="252" y="305" on="0"/>
      </contour>
      <contour>
        <pt x="196" y="0" on="1"/>
        <pt x="106" y="0" on="1"/>
        <pt x="106" y="540" on="1"/>
        <pt x="106" y="585" on="0"/>
        <pt x="81" y="640" on="0"/>
        <pt x="36" y="640" on="1"/>
        <pt x="16" y="640" on="1"/>
        <pt x="16" y="660" on="1"/>
        <pt x="276" y="660" on="1"/>
        <pt x="308" y="660" on="0"/>
        <pt x="394" y="648" on="0"/>
        <pt x="472" y="607" on="0"/>
        <pt x="526" y="527" on="0"/>
        <pt x="526" y="460" on="1"/>
        <pt x="526" y="417" on="0"/>
        <pt x="501" y="356" on="0"/>
        <pt x="461" y="314" on="0"/>
        <pt x="412" y="288" on="0"/>
        <pt x="363" y="275" on="0"/>
        <pt x="320" y="270" on="0"/>
        <pt x="306" y="270" on="1"/>
        <pt x="196" y="270" on="1"/>
      </contour>
    </TTGlyph>
    <TTGlyph name="Q" xMin="47" yMin="-205" xMax="677" yMax="680">
      <contour>
        <pt x="47" y="330" on="1"/>
        <pt x="47" y="403" on="0"/>
        <pt x="90" y="531" on="0"/>
        <pt x="171" y="626" on="0"/>
        <pt x="286" y="680" on="0"/>
        <pt x="357" y="680" on="1"/>
        <pt x="428" y="680" on="0"/>
        <pt x="543" y="626" on="0"/>
        <pt x="624" y="531" on="0"/>
        <pt x="667" y="403" on="0"/>
        <pt x="667" y="330" on="1"/>
        <pt x="667" y="268" on="0"/>
        <pt x="636" y="157" on="0"/>
        <pt x="577" y="68" on="0"/>
        <pt x="492" y="5" on="0"/>
        <pt x="439" y="-9" on="1"/>
        <pt x="451" y="-47" on="0"/>
        <pt x="504" y="-111" on="0"/>
        <pt x="571" y="-158" on="0"/>
        <pt x="645" y="-185" on="0"/>
        <pt x="677" y="-185" on="1"/>
        <pt x="677" y="-205" on="1"/>
        <pt x="623" y="-205" on="0"/>
        <pt x="515" y="-186" on="0"/>
        <pt x="412" y="-141" on="0"/>
        <pt x="313" y="-64" on="0"/>
        <pt x="267" y="-7" on="1"/>
        <pt x="216" y="8" on="0"/>
        <pt x="134" y="71" on="0"/>
        <pt x="77" y="160" on="0"/>
        <pt x="47" y="269" on="0"/>
      </contour>
      <contour>
        <pt x="567" y="330" on="1"/>
        <pt x="567" y="401" on="0"/>
        <pt x="538" y="516" on="0"/>
        <pt x="484" y="597" on="0"/>
        <pt x="406" y="640" on="0"/>
        <pt x="357" y="640" on="1"/>
        <pt x="308" y="640" on="0"/>
        <pt x="230" y="597" on="0"/>
        <pt x="176" y="516" on="0"/>
        <pt x="147" y="401" on="0"/>
        <pt x="147" y="330" on="1"/>
        <pt x="147" y="259" on="0"/>
        <pt x="176" y="144" on="0"/>
        <pt x="230" y="63" on="0"/>
        <pt x="308" y="20" on="0"/>
        <pt x="357" y="20" on="1"/>
        <pt x="406" y="20" on="0"/>
        <pt x="484" y="63" on="0"/>
        <pt x="538" y="144" on="0"/>
        <pt x="567" y="259" on="0"/>
      </contour>
    </TTGlyph>
    <TTGlyph name="R" xMin="16" yMin="-10" xMax="606" yMax="660">
      <contour>
        <pt x="271" y="340" on="1"/>
        <pt x="292" y="340" on="0"/>
        <pt x="345" y="356" on="0"/>
        <pt x="393" y="389" on="0"/>
        <pt x="426" y="442" on="0"/>
        <pt x="426" y="480" on="1"/>
        <pt x="426" y="519" on="0"/>
        <pt x="393" y="575" on="0"/>
        <pt x="345" y="609" on="0"/>
        <pt x="292" y="625" on="0"/>
        <pt x="271" y="625" on="1"/>
        <pt x="252" y="625" on="0"/>
        <pt x="211" y="619" on="0"/>
        <pt x="196" y="615" on="1"/>
        <pt x="196" y="350" on="1"/>
        <pt x="211" y="346" on="0"/>
        <pt x="252" y="340" on="0"/>
      </contour>
      <contour>
        <pt x="266" y="305" on="1"/>
        <pt x="196" y="305" on="1"/>
        <pt x="196" y="0" on="1"/>
        <pt x="106" y="0" on="1"/>
        <pt x="106" y="540" on="1"/>
        <pt x="106" y="585" on="0"/>
        <pt x="81" y="640" on="0"/>
        <pt x="36" y="640" on="1"/>
        <pt x="16" y="640" on="1"/>
        <pt x="16" y="660" on="1"/>
        <pt x="276" y="660" on="1"/>
        <pt x="308" y="660" on="0"/>
        <pt x="394" y="649" on="0"/>
        <pt x="472" y="611" on="0"/>
        <pt x="526" y="540" on="0"/>
        <pt x="526" y="480" on="1"/>
        <pt x="526" y="437" on="0"/>
        <pt x="496" y="377" on="0"/>
        <pt x="449" y="338" on="0"/>
        <pt x="392" y="316" on="0"/>
        <pt x="366" y="310" on="1"/>
        <pt x="471" y="135" on="1"/>
        <pt x="490" y="103" on="0"/>
        <pt x="523" y="61" on="0"/>
        <pt x="555" y="34" on="0"/>
        <pt x="587" y="22" on="0"/>
        <pt x="606" y="20" on="1"/>
        <pt x="606" y="0" on="1"/>
        <pt x="598" y="-4" on="0"/>
        <pt x="565" y="-10" on="0"/>
        <pt x="546" y="-10" on="1"/>
        <pt x="520" y="-10" on="0"/>
        <pt x="475" y="4" on="0"/>
        <pt x="433" y="38" on="0"/>
        <pt x="390" y="94" on="0"/>
        <pt x="366" y="135" on="1"/>
      </contour>
    </TTGlyph>
    <TTGlyph name="S" xMin="54" yMin="-17" xMax="490" yMax="678">
      <contour>
        <pt x="490" y="168" on="1"/>
        <pt x="490" y="126" on="0"/>
        <pt x="461" y="58" on="0"/>
        <pt x="407" y="9" on="0"/>
        <pt x="330" y="-17" on="0"/>
        <pt x="282" y="-17" on="1"/>
        <pt x="241" y="-17" on="0"/>
        <pt x="160" y="0" on="0"/>
        <pt x="95" y="32" on="0"/>
        <pt x="54" y="77" on="0"/>
        <pt x="54" y="105" on="1"/>
        <pt x="54" y="212" on="1"/>
        <pt x="72" y="212" on="1"/>
        <pt x="89" y="111" on="0"/>
        <pt x="188" y="23" on="0"/>
        <pt x="273" y="23" on="1"/>
        <pt x="299" y="23" on="0"/>
        <pt x="346" y="36" on="0"/>
        <pt x="382" y="62" on="0"/>
        <pt x="404" y="100" on="0"/>
        <pt x="404" y="125" on="1"/>
        <pt x="404" y="169" on="0"/>
        <pt x="349" y="231" on="0"/>
        <pt x="294" y="263" on="1"/>
        <pt x="171" y="336" on="1"/>
        <pt x="107" y="374" on="0"/>
        <pt x="54" y="452" on="0"/>
        <pt x="54" y="508" on="1"/>
        <pt x="54" y="547" on="0"/>
        <pt x="82" y="609" on="0"/>
        <pt x="133" y="654" on="0"/>
        <pt x="204" y="678" on="0"/>
        <pt x="248" y="678" on="1"/>
        <pt x="285" y="678" on="0"/>
        <pt x="362" y="662" on="0"/>
        <pt x="424" y="631" on="0"/>
        <pt x="464" y="586" on="0"/>
        <pt x="464" y="558" on="1"/>
        <pt x="464" y="451" on="1"/>
        <pt x="446" y="451" on="1"/>
        <pt x="429" y="552" on="0"/>
        <pt x="333" y="638" on="0"/>
        <pt x="248" y="638" on="1"/>
        <pt x="226" y="638" on="0"/>
        <pt x="184" y="624" on="0"/>
        <pt x="152" y="598" on="0"/>
        <pt x="132" y="560" on="0"/>
        <pt x="132" y="537" on="1"/>
        <pt x="132" y="515" on="0"/>
        <pt x="146" y="481" on="0"/>
        <pt x="174" y="451" on="0"/>
        <pt x="216" y="422" on="0"/>
        <pt x="243" y="406" on="1"/>
        <pt x="366" y="333" on="1"/>
        <pt x="398" y="314" on="0"/>
        <pt x="445" y="279" on="0"/>
        <pt x="475" y="240" on="0"/>
        <pt x="490" y="196" on="0"/>
      </contour>
    </TTGlyph>
    <TTGlyph name="Scaron" xMin="54" yMin="-17" xMax="490" yMax="835">
      <component glyphName="S" x="0" y="0" flags="0x204"/>
      <component glyphName="caron" x="119" y="200" flags="0x4"/>
    </TTGlyph>
    <TTGlyph name="Scedilla" xMin="54" yMin="-186" xMax="490" yMax="678">
      <contour>
        <pt x="490" y="168" on="1"/>
        <pt x="490" y="126" on="0"/>
        <pt x="461" y="58" on="0"/>
        <pt x="407" y="9" on="0"/>
        <pt x="330" y="-17" on="0"/>
        <pt x="282" y="-17" on="1"/>
        <pt x="282" y="-40" on="1"/>
        <pt x="292" y="-40" on="1"/>
        <pt x="326" y="-40" on="0"/>
        <pt x="372" y="-77" on="0"/>
        <pt x="372" y="-113" on="1"/>
        <pt x="372" y="-148" on="0"/>
        <pt x="326" y="-186" on="0"/>
        <pt x="292" y="-186" on="1"/>
        <pt x="232" y="-186" on="1"/>
        <pt x="232" y="-145" on="1"/>
        <pt x="282" y="-145" on="1"/>
        <pt x="322" y="-145" on="0"/>
        <pt x="322" y="-113" on="1"/>
        <pt x="322" y="-80" on="0"/>
        <pt x="282" y="-80" on="1"/>
        <pt x="237" y="-80" on="1"/>
        <pt x="237" y="-14" on="1"/>
        <pt x="201" y="-10" on="0"/>
        <pt x="135" y="10" on="0"/>
        <pt x="84" y="40" on="0"/>
        <pt x="54" y="81" on="0"/>
        <pt x="54" y="105" on="1"/>
        <pt x="54" y="212" on="1"/>
        <pt x="72" y="212" on="1"/>
        <pt x="89" y="111" on="0"/>
        <pt x="188" y="23" on="0"/>
        <pt x="273" y="23" on="1"/>
        <pt x="299" y="23" on="0"/>
        <pt x="346" y="36" on="0"/>
        <pt x="382" y="62" on="0"/>
        <pt x="404" y="100" on="0"/>
        <pt x="404" y="125" on="1"/>
        <pt x="404" y="169" on="0"/>
        <pt x="349" y="231" on="0"/>
        <pt x="294" y="263" on="1"/>
        <pt x="171" y="336" on="1"/>
        <pt x="107" y="374" on="0"/>
        <pt x="54" y="452" on="0"/>
        <pt x="54" y="508" on="1"/>
        <pt x="54" y="547" on="0"/>
        <pt x="82" y="609" on="0"/>
        <pt x="133" y="654" on="0"/>
        <pt x="204" y="678" on="0"/>
        <pt x="248" y="678" on="1"/>
        <pt x="285" y="678" on="0"/>
        <pt x="362" y="662" on="0"/>
        <pt x="424" y="631" on="0"/>
        <pt x="464" y="586" on="0"/>
        <pt x="464" y="558" on="1"/>
        <pt x="464" y="451" on="1"/>
        <pt x="446" y="451" on="1"/>
        <pt x="429" y="552" on="0"/>
        <pt x="333" y="638" on="0"/>
        <pt x="248" y="638" on="1"/>
        <pt x="226" y="638" on="0"/>
        <pt x="184" y="624" on="0"/>
        <pt x="152" y="598" on="0"/>
        <pt x="132" y="560" on="0"/>
        <pt x="132" y="537" on="1"/>
        <pt x="132" y="515" on="0"/>
        <pt x="146" y="481" on="0"/>
        <pt x="174" y="451" on="0"/>
        <pt x="216" y="422" on="0"/>
        <pt x="243" y="406" on="1"/>
        <pt x="366" y="333" on="1"/>
        <pt x="398" y="314" on="0"/>
        <pt x="445" y="279" on="0"/>
        <pt x="475" y="240" on="0"/>
        <pt x="490" y="196" on="0"/>
      </contour>
    </TTGlyph>
    <TTGlyph name="T" xMin="21" yMin="0" xMax="571" yMax="660">
      <contour>
        <pt x="571" y="660" on="1"/>
        <pt x="571" y="620" on="1"/>
        <pt x="346" y="620" on="1"/>
        <pt x="346" y="0" on="1"/>
        <pt x="256" y="0" on="1"/>
        <pt x="256" y="620" on="1"/>
        <pt x="166" y="620" on="1"/>
        <pt x="106" y="620" on="0"/>
        <pt x="41" y="565" on="0"/>
        <pt x="41" y="505" on="1"/>
        <pt x="21" y="505" on="1"/>
        <pt x="21" y="580" on="1"/>
        <pt x="21" y="595" on="0"/>
        <pt x="28" y="624" on="0"/>
        <pt x="47" y="646" on="0"/>
        <pt x="80" y="660" on="0"/>
        <pt x="106" y="660" on="1"/>
      </contour>
    </TTGlyph>
    <TTGlyph name="Thorn" xMin="19" yMin="-30" xMax="509" yMax="690">
      <contour>
        <pt x="409" y="315" on="1"/>
        <pt x="409" y="358" on="0"/>
        <pt x="386" y="430" on="0"/>
        <pt x="335" y="481" on="0"/>
        <pt x="255" y="510" on="0"/>
        <pt x="199" y="510" on="1"/>
        <pt x="199" y="120" on="1"/>
        <pt x="255" y="120" on="0"/>
        <pt x="335" y="149" on="0"/>
        <pt x="386" y="200" on="0"/>
        <pt x="409" y="272" on="0"/>
      </contour>
      <contour>
        <pt x="199" y="550" on="1"/>
        <pt x="350" y="550" on="0"/>
        <pt x="509" y="432" on="0"/>
        <pt x="509" y="315" on="1"/>
        <pt x="509" y="198" on="0"/>
        <pt x="350" y="80" on="0"/>
        <pt x="199" y="80" on="1"/>
        <pt x="199" y="-30" on="1"/>
        <pt x="109" y="-30" on="1"/>
        <pt x="109" y="600" on="1"/>
        <pt x="109" y="638" on="0"/>
        <pt x="77" y="670" on="0"/>
        <pt x="39" y="670" on="1"/>
        <pt x="19" y="670" on="1"/>
        <pt x="19" y="690" on="1"/>
        <pt x="109" y="690" on="1"/>
        <pt x="161" y="690" on="0"/>
        <pt x="199" y="652" on="0"/>
        <pt x="199" y="600" on="1"/>
      </contour>
    </TTGlyph>
    <TTGlyph name="U" xMin="9" yMin="-10" xMax="609" yMax="660">
      <contour>
        <pt x="99" y="540" on="1"/>
        <pt x="99" y="585" on="0"/>
        <pt x="74" y="640" on="0"/>
        <pt x="29" y="640" on="1"/>
        <pt x="9" y="640" on="1"/>
        <pt x="9" y="660" on="1"/>
        <pt x="99" y="660" on="1"/>
        <pt x="125" y="660" on="0"/>
        <pt x="160" y="651" on="0"/>
        <pt x="181" y="624" on="0"/>
        <pt x="189" y="577" on="0"/>
        <pt x="189" y="540" on="1"/>
        <pt x="189" y="255" on="1"/>
        <pt x="189" y="202" on="0"/>
        <pt x="207" y="119" on="0"/>
        <pt x="249" y="61" on="0"/>
        <pt x="316" y="30" on="0"/>
        <pt x="366" y="30" on="1"/>
        <pt x="423" y="30" on="0"/>
        <pt x="501" y="60" on="0"/>
        <pt x="549" y="123" on="0"/>
        <pt x="569" y="219" on="0"/>
        <pt x="569" y="285" on="1"/>
        <pt x="569" y="660" on="1"/>
        <pt x="609" y="660" on="1"/>
        <pt x="609" y="285" on="1"/>
        <pt x="609" y="212" on="0"/>
        <pt x="587" y="101" on="0"/>
        <pt x="530" y="27" on="0"/>
        <pt x="431" y="-10" on="0"/>
        <pt x="354" y="-10" on="1"/>
        <pt x="281" y="-10" on="0"/>
        <pt x="183" y="27" on="0"/>
        <pt x="124" y="101" on="0"/>
        <pt x="99" y="212" on="0"/>
        <pt x="99" y="285" on="1"/>
      </contour>
    </TTGlyph>
    <TTGlyph name="Uacute" xMin="9" yMin="-10" xMax="609" yMax="811">
      <component glyphName="U" x="0" y="0" flags="0x204"/>
      <component glyphName="acute" x="309" y="-19" flags="0x4"/>
    </TTGlyph>
    <TTGlyph name="Ucircumflex" xMin="9" yMin="-10" xMax="609" yMax="786">
      <component glyphName="U" x="0" y="0" flags="0x204"/>
      <component glyphName="circumflex" x="219" y="11" flags="0x4"/>
    </TTGlyph>
    <TTGlyph name="Udieresis" xMin="9" yMin="-10" xMax="609" yMax="781">
      <component glyphName="U" x="0" y="0" flags="0x204"/>
      <component glyphName="dieresis" x="214" y="-9" flags="0x4"/>
    </TTGlyph>
    <TTGlyph name="Ugrave" xMin="9" yMin="-10" xMax="609" yMax="810">
      <component glyphName="U" x="0" y="0" flags="0x204"/>
      <component glyphName="grave.alt1" x="269" y="155" flags="0x4"/>
    </TTGlyph>
    <TTGlyph name="V" xMin="-29" yMin="-10" xMax="618" yMax="670">
      <contour>
        <pt x="350" y="140" on="1"/>
        <pt x="375" y="198" on="0"/>
        <pt x="408" y="272" on="0"/>
        <pt x="429" y="322" on="0"/>
        <pt x="443" y="356" on="0"/>
        <pt x="457" y="389" on="0"/>
        <pt x="473" y="429" on="0"/>
        <pt x="500" y="493" on="0"/>
        <pt x="540" y="588" on="0"/>
        <pt x="570" y="660" on="1"/>
        <pt x="618" y="660" on="1"/>
        <pt x="331" y="-10" on="1"/>
        <pt x="313" y="-10" on="1"/>
        <pt x="81" y="543" on="1"/>
        <pt x="69" y="571" on="0"/>
        <pt x="48" y="610" on="0"/>
        <pt x="22" y="634" on="0"/>
        <pt x="-8" y="646" on="0"/>
        <pt x="-29" y="648" on="1"/>
        <pt x="-29" y="668" on="1"/>
        <pt x="-25" y="668" on="0"/>
        <pt x="-2" y="670" on="0"/>
        <pt x="5" y="670" on="1"/>
        <pt x="23" y="670" on="0"/>
        <pt x="69" y="662" on="0"/>
        <pt x="116" y="636" on="0"/>
        <pt x="161" y="586" on="0"/>
        <pt x="179" y="543" on="1"/>
      </contour>
    </TTGlyph>
    <TTGlyph name="W" xMin="-32" yMin="-10" xMax="833" yMax="670">
      <contour>
        <pt x="78" y="543" on="1"/>
        <pt x="68" y="571" on="0"/>
        <pt x="48" y="610" on="0"/>
        <pt x="23" y="634" on="0"/>
        <pt x="-10" y="646" on="0"/>
        <pt x="-32" y="648" on="1"/>
        <pt x="-32" y="668" on="1"/>
        <pt x="-28" y="668" on="0"/>
        <pt x="-5" y="670" on="0"/>
        <pt x="2" y="670" on="1"/>
        <pt x="23" y="670" on="0"/>
        <pt x="70" y="663" on="0"/>
        <pt x="116" y="637" on="0"/>
        <pt x="158" y="586" on="0"/>
        <pt x="173" y="543" on="1"/>
        <pt x="307" y="157" on="1"/>
        <pt x="414" y="474" on="1"/>
        <pt x="390" y="543" on="1"/>
        <pt x="380" y="571" on="0"/>
        <pt x="360" y="610" on="0"/>
        <pt x="335" y="634" on="0"/>
        <pt x="302" y="646" on="0"/>
        <pt x="280" y="648" on="1"/>
        <pt x="280" y="668" on="1"/>
        <pt x="284" y="668" on="0"/>
        <pt x="307" y="670" on="0"/>
        <pt x="314" y="670" on="1"/>
        <pt x="335" y="670" on="0"/>
        <pt x="382" y="663" on="0"/>
        <pt x="428" y="637" on="0"/>
        <pt x="470" y="586" on="0"/>
        <pt x="485" y="543" on="1"/>
        <pt x="619" y="157" on="1"/>
        <pt x="790" y="660" on="1"/>
        <pt x="833" y="660" on="1"/>
        <pt x="604" y="-10" on="1"/>
        <pt x="584" y="-10" on="1"/>
        <pt x="436" y="411" on="1"/>
        <pt x="292" y="-10" on="1"/>
        <pt x="272" y="-10" on="1"/>
      </contour>
    </TTGlyph>
    <TTGlyph name="X" xMin="-9" yMin="0" xMax="681" yMax="660">
      <contour>
        <pt x="91" y="0" on="1"/>
        <pt x="41" y="0" on="1"/>
        <pt x="291" y="325" on="1"/>
        <pt x="151" y="530" on="1"/>
        <pt x="138" y="549" on="0"/>
        <pt x="110" y="586" on="0"/>
        <pt x="74" y="617" on="0"/>
        <pt x="25" y="638" on="0"/>
        <pt x="-9" y="640" on="1"/>
        <pt x="-9" y="660" on="1"/>
        <pt x="111" y="660" on="1"/>
        <pt x="135" y="660" on="0"/>
        <pt x="176" y="640" on="0"/>
        <pt x="210" y="608" on="0"/>
        <pt x="238" y="569" on="0"/>
        <pt x="251" y="550" on="1"/>
        <pt x="351" y="400" on="1"/>
        <pt x="551" y="660" on="1"/>
        <pt x="601" y="660" on="1"/>
        <pt x="376" y="365" on="1"/>
        <pt x="536" y="130" on="1"/>
        <pt x="549" y="111" on="0"/>
        <pt x="579" y="74" on="0"/>
        <pt x="615" y="43" on="0"/>
        <pt x="657" y="22" on="0"/>
        <pt x="681" y="20" on="1"/>
        <pt x="681" y="0" on="1"/>
        <pt x="576" y="0" on="1"/>
        <pt x="552" y="0" on="0"/>
        <pt x="511" y="20" on="0"/>
        <pt x="477" y="52" on="0"/>
        <pt x="448" y="91" on="0"/>
        <pt x="436" y="110" on="1"/>
        <pt x="316" y="290" on="1"/>
      </contour>
    </TTGlyph>
    <TTGlyph name="Y" xMin="-25" yMin="0" xMax="614" yMax="660">
      <contour>
        <pt x="360" y="325" on="1"/>
        <pt x="569" y="660" on="1"/>
        <pt x="614" y="660" on="1"/>
        <pt x="380" y="280" on="1"/>
        <pt x="380" y="0" on="1"/>
        <pt x="290" y="0" on="1"/>
        <pt x="290" y="273" on="1"/>
        <pt x="120" y="530" on="1"/>
        <pt x="105" y="552" on="0"/>
        <pt x="76" y="591" on="0"/>
        <pt x="42" y="620" on="0"/>
        <pt x="1" y="638" on="0"/>
        <pt x="-25" y="640" on="1"/>
        <pt x="-25" y="660" on="1"/>
        <pt x="65" y="660" on="1"/>
        <pt x="93" y="660" on="0"/>
        <pt x="137" y="641" on="0"/>
        <pt x="173" y="610" on="0"/>
        <pt x="202" y="571" on="0"/>
        <pt x="215" y="550" on="1"/>
      </contour>
    </TTGlyph>
    <TTGlyph name="Yacute" xMin="-25" yMin="0" xMax="614" yMax="801">
      <component glyphName="Y" x="0" y="0" flags="0x204"/>
      <component glyphName="acute" x="295" y="-29" flags="0x4"/>
    </TTGlyph>
    <TTGlyph name="Ydieresis" xMin="-25" yMin="0" xMax="614" yMax="790">
      <component glyphName="Y" x="0" y="0" flags="0x204"/>
      <component glyphName="dieresis" x="195" y="0" flags="0x4"/>
    </TTGlyph>
    <TTGlyph name="Z" xMin="24" yMin="0" xMax="574" yMax="660">
      <contour>
        <pt x="574" y="660" on="1"/>
        <pt x="149" y="40" on="1"/>
        <pt x="559" y="40" on="1"/>
        <pt x="559" y="0" on="1"/>
        <pt x="24" y="0" on="1"/>
        <pt x="24" y="20" on="1"/>
        <pt x="439" y="620" on="1"/>
        <pt x="199" y="620" on="1"/>
        <pt x="139" y="620" on="0"/>
        <pt x="74" y="565" on="0"/>
        <pt x="74" y="505" on="1"/>
        <pt x="54" y="505" on="1"/>
        <pt x="54" y="580" on="1"/>
        <pt x="54" y="595" on="0"/>
        <pt x="61" y="624" on="0"/>
        <pt x="80" y="646" on="0"/>
        <pt x="113" y="660" on="0"/>
        <pt x="139" y="660" on="1"/>
      </contour>
    </TTGlyph>
    <TTGlyph name="Zcaron" xMin="24" yMin="0" xMax="574" yMax="825">
      <component glyphName="Z" x="0" y="0" flags="0x204"/>
      <component glyphName="caron" x="173" y="190" flags="0x4"/>
    </TTGlyph>
    <TTGlyph name="a" xMin="39" yMin="-10" xMax="414" yMax="480">
      <contour>
        <pt x="324" y="230" on="1"/>
        <pt x="294" y="230" on="1"/>
        <pt x="219" y="230" on="0"/>
        <pt x="134" y="175" on="0"/>
        <pt x="134" y="130" on="1"/>
        <pt x="134" y="106" on="0"/>
        <pt x="150" y="70" on="0"/>
        <pt x="176" y="46" on="0"/>
        <pt x="210" y="35" on="0"/>
        <pt x="229" y="35" on="1"/>
        <pt x="266" y="35" on="0"/>
        <pt x="309" y="72" on="0"/>
        <pt x="324" y="95" on="1"/>
      </contour>
      <contour>
        <pt x="364" y="0" on="1"/>
        <pt x="329" y="45" on="1"/>
        <pt x="324" y="45" on="1"/>
        <pt x="309" y="26" on="0"/>
        <pt x="241" y="-10" on="0"/>
        <pt x="184" y="-10" on="1"/>
        <pt x="163" y="-10" on="0"/>
        <pt x="113" y="3" on="0"/>
        <pt x="69" y="35" on="0"/>
        <pt x="39" y="89" on="0"/>
        <pt x="39" y="130" on="1"/>
        <pt x="39" y="171" on="0"/>
        <pt x="81" y="225" on="0"/>
        <pt x="151" y="257" on="0"/>
        <pt x="243" y="270" on="0"/>
        <pt x="294" y="270" on="1"/>
        <pt x="324" y="270" on="1"/>
        <pt x="324" y="322" on="0"/>
        <pt x="308" y="389" on="0"/>
        <pt x="280" y="426" on="0"/>
        <pt x="241" y="440" on="0"/>
        <pt x="219" y="440" on="1"/>
        <pt x="177" y="440" on="0"/>
        <pt x="120" y="404" on="0"/>
        <pt x="109" y="355" on="1"/>
        <pt x="64" y="355" on="1"/>
        <pt x="64" y="381" on="0"/>
        <pt x="70" y="426" on="0"/>
        <pt x="89" y="445" on="1"/>
        <pt x="98" y="454" on="0"/>
        <pt x="131" y="468" on="0"/>
        <pt x="171" y="476" on="0"/>
        <pt x="216" y="480" on="0"/>
        <pt x="239" y="480" on="1"/>
        <pt x="273" y="480" on="0"/>
        <pt x="336" y="465" on="0"/>
        <pt x="385" y="420" on="0"/>
        <pt x="414" y="337" on="0"/>
        <pt x="414" y="270" on="1"/>
        <pt x="414" y="0" on="1"/>
      </contour>
    </TTGlyph>
    <TTGlyph name="aacute" xMin="39" yMin="-10" xMax="414" yMax="655">
      <component glyphName="a" x="0" y="0" flags="0x204"/>
      <component glyphName="acute.alt1" x="198" y="0" flags="0x4"/>
    </TTGlyph>
    <TTGlyph name="acircumflex" xMin="39" yMin="-10" xMax="414" yMax="645">
      <component glyphName="a" x="0" y="0" flags="0x204"/>
      <component glyphName="circumflex.alt1" x="105" y="0" flags="0x4"/>
    </TTGlyph>
    <TTGlyph name="acute" xMin="20" yMin="700" xMax="155" yMax="830">
      <contour>
        <pt x="60" y="700" on="1"/>
        <pt x="20" y="700" on="1"/>
        <pt x="60" y="830" on="1"/>
        <pt x="155" y="830" on="1"/>
      </contour>
    </TTGlyph>
    <TTGlyph name="acute.alt1" xMin="0" yMin="525" xMax="135" yMax="655">
      <contour>
        <pt x="40" y="525" on="1"/>
        <pt x="0" y="525" on="1"/>
        <pt x="40" y="655" on="1"/>
        <pt x="135" y="655" on="1"/>
      </contour>
    </TTGlyph>
    <TTGlyph name="adieresis" xMin="39" yMin="-10" xMax="414" yMax="625">
      <component glyphName="a" x="0" y="0" flags="0x204"/>
      <component glyphName="dieresis.alt1" x="109" y="0" flags="0x4"/>
    </TTGlyph>
    <TTGlyph name="ae" xMin="39" yMin="-10" xMax="714" yMax="480">
      <contour>
        <pt x="712" y="220" on="1"/>
        <pt x="414" y="220" on="1"/>
        <pt x="414" y="179" on="0"/>
        <pt x="432" y="109" on="0"/>
        <pt x="467" y="58" on="0"/>
        <pt x="517" y="30" on="0"/>
        <pt x="549" y="30" on="1"/>
        <pt x="598" y="30" on="0"/>
        <pt x="663" y="72" on="0"/>
        <pt x="689" y="110" on="1"/>
        <pt x="709" y="95" on="1"/>
        <pt x="675" y="38" on="0"/>
        <pt x="586" y="-10" on="0"/>
        <pt x="529" y="-10" on="1"/>
        <pt x="470" y="-10" on="0"/>
        <pt x="385" y="33" on="0"/>
        <pt x="359" y="75" on="1"/>
        <pt x="348" y="54" on="0"/>
        <pt x="319" y="23" on="0"/>
        <pt x="281" y="1" on="0"/>
        <pt x="232" y="-10" on="0"/>
        <pt x="199" y="-10" on="1"/>
        <pt x="173" y="-10" on="0"/>
        <pt x="116" y="3" on="0"/>
        <pt x="69" y="34" on="0"/>
        <pt x="39" y="86" on="0"/>
        <pt x="39" y="125" on="1"/>
        <pt x="39" y="164" on="0"/>
        <pt x="81" y="216" on="0"/>
        <pt x="151" y="247" on="0"/>
        <pt x="243" y="260" on="0"/>
        <pt x="294" y="260" on="1"/>
        <pt x="324" y="260" on="1"/>
        <pt x="324" y="316" on="0"/>
        <pt x="308" y="387" on="0"/>
        <pt x="280" y="426" on="0"/>
        <pt x="241" y="440" on="0"/>
        <pt x="219" y="440" on="1"/>
        <pt x="177" y="440" on="0"/>
        <pt x="120" y="404" on="0"/>
        <pt x="109" y="355" on="1"/>
        <pt x="64" y="355" on="1"/>
        <pt x="64" y="381" on="0"/>
        <pt x="70" y="426" on="0"/>
        <pt x="89" y="445" on="1"/>
        <pt x="98" y="454" on="0"/>
        <pt x="131" y="468" on="0"/>
        <pt x="171" y="476" on="0"/>
        <pt x="216" y="480" on="0"/>
        <pt x="239" y="480" on="1"/>
        <pt x="292" y="480" on="0"/>
        <pt x="364" y="428" on="0"/>
        <pt x="379" y="390" on="1"/>
        <pt x="394" y="428" on="0"/>
        <pt x="465" y="480" on="0"/>
        <pt x="514" y="480" on="1"/>
        <pt x="616" y="480" on="0"/>
        <pt x="714" y="366" on="0"/>
        <pt x="714" y="260" on="1"/>
      </contour>
      <contour>
        <pt x="624" y="260" on="1"/>
        <pt x="624" y="343" on="0"/>
        <pt x="572" y="435" on="0"/>
        <pt x="519" y="435" on="1"/>
        <pt x="496" y="435" on="0"/>
        <pt x="458" y="408" on="0"/>
        <pt x="430" y="362" on="0"/>
        <pt x="414" y="297" on="0"/>
        <pt x="414" y="260" on="1"/>
      </contour>
      <contour>
        <pt x="324" y="220" on="1"/>
        <pt x="294" y="220" on="1"/>
        <pt x="219" y="220" on="0"/>
        <pt x="134" y="167" on="0"/>
        <pt x="134" y="125" on="1"/>
        <pt x="134" y="80" on="0"/>
        <pt x="191" y="35" on="0"/>
        <pt x="229" y="35" on="1"/>
        <pt x="266" y="35" on="0"/>
        <pt x="309" y="72" on="0"/>
        <pt x="324" y="95" on="1"/>
      </contour>
    </TTGlyph>
    <TTGlyph name="afii10017" xMin="22" yMin="-5" xMax="662" yMax="660">
      <component glyphName="A" x="0" y="0" flags="0x204"/>
    </TTGlyph>
    <TTGlyph name="afii10018" xMin="16" yMin="0" xMax="571" yMax="660">
      <contour>
        <pt x="471" y="190" on="1"/>
        <pt x="471" y="269" on="0"/>
        <pt x="374" y="345" on="0"/>
        <pt x="291" y="345" on="1"/>
        <pt x="268" y="345" on="0"/>
        <pt x="219" y="338" on="0"/>
        <pt x="196" y="331" on="1"/>
        <pt x="196" y="49" on="1"/>
        <pt x="219" y="42" on="0"/>
        <pt x="268" y="35" on="0"/>
        <pt x="291" y="35" on="1"/>
        <pt x="374" y="35" on="0"/>
        <pt x="471" y="111" on="0"/>
      </contour>
      <contour>
        <pt x="437" y="660" on="1"/>
        <pt x="463" y="660" on="0"/>
        <pt x="496" y="646" on="0"/>
        <pt x="515" y="624" on="0"/>
        <pt x="522" y="595" on="0"/>
        <pt x="522" y="580" on="1"/>
        <pt x="522" y="505" on="1"/>
        <pt x="502" y="505" on="1"/>
        <pt x="502" y="565" on="0"/>
        <pt x="437" y="620" on="0"/>
        <pt x="377" y="620" on="1"/>
        <pt x="196" y="620" on="1"/>
        <pt x="196" y="380" on="1"/>
        <pt x="306" y="380" on="1"/>
        <pt x="349" y="380" on="0"/>
        <pt x="443" y="366" on="0"/>
        <pt x="521" y="324" on="0"/>
        <pt x="571" y="250" on="0"/>
        <pt x="571" y="190" on="1"/>
        <pt x="571" y="130" on="0"/>
        <pt x="521" y="56" on="0"/>
        <pt x="443" y="14" on="0"/>
        <pt x="349" y="0" on="0"/>
        <pt x="306" y="0" on="1"/>
        <pt x="106" y="0" on="1"/>
        <pt x="106" y="540" on="1"/>
        <pt x="106" y="585" on="0"/>
        <pt x="81" y="640" on="0"/>
        <pt x="36" y="640" on="1"/>
        <pt x="16" y="640" on="1"/>
        <pt x="16" y="660" on="1"/>
      </contour>
    </TTGlyph>
    <TTGlyph name="afii10019" xMin="16" yMin="0" xMax="581" yMax="660">
      <component glyphName="B" x="0" y="0" flags="0x204"/>
    </TTGlyph>
    <TTGlyph name="afii10020" xMin="16" yMin="0" xMax="516" yMax="660">
      <contour>
        <pt x="106" y="540" on="1"/>
        <pt x="106" y="585" on="0"/>
        <pt x="81" y="640" on="0"/>
        <pt x="36" y="640" on="1"/>
        <pt x="16" y="640" on="1"/>
        <pt x="16" y="660" on="1"/>
        <pt x="431" y="660" on="1"/>
        <pt x="457" y="660" on="0"/>
        <pt x="490" y="646" on="0"/>
        <pt x="509" y="624" on="0"/>
        <pt x="516" y="595" on="0"/>
        <pt x="516" y="580" on="1"/>
        <pt x="516" y="505" on="1"/>
        <pt x="496" y="505" on="1"/>
        <pt x="496" y="565" on="0"/>
        <pt x="431" y="620" on="0"/>
        <pt x="371" y="620" on="1"/>
        <pt x="196" y="620" on="1"/>
        <pt x="196" y="0" on="1"/>
        <pt x="106" y="0" on="1"/>
      </contour>
    </TTGlyph>
    <TTGlyph name="afii10021" xMin="3" yMin="-180" xMax="668" yMax="660">
      <contour>
        <pt x="488" y="40" on="1"/>
        <pt x="488" y="620" on="1"/>
        <pt x="228" y="620" on="1"/>
        <pt x="228" y="519" on="0"/>
        <pt x="220" y="350" on="0"/>
        <pt x="201" y="209" on="0"/>
        <pt x="170" y="91" on="0"/>
        <pt x="148" y="40" on="1"/>
      </contour>
      <contour>
        <pt x="633" y="40" on="1"/>
        <pt x="648" y="40" on="0"/>
        <pt x="668" y="20" on="0"/>
        <pt x="668" y="5" on="1"/>
        <pt x="668" y="-180" on="1"/>
        <pt x="623" y="-180" on="1"/>
        <pt x="617" y="-129" on="0"/>
        <pt x="597" y="-60" on="0"/>
        <pt x="566" y="-18" on="0"/>
        <pt x="524" y="0" on="0"/>
        <pt x="498" y="0" on="1"/>
        <pt x="173" y="0" on="1"/>
        <pt x="147" y="0" on="0"/>
        <pt x="105" y="-18" on="0"/>
        <pt x="74" y="-60" on="0"/>
        <pt x="54" y="-129" on="0"/>
        <pt x="48" y="-180" on="1"/>
        <pt x="3" y="-180" on="1"/>
        <pt x="3" y="5" on="1"/>
        <pt x="3" y="20" on="0"/>
        <pt x="23" y="40" on="0"/>
        <pt x="38" y="40" on="1"/>
        <pt x="78" y="40" on="1"/>
        <pt x="127" y="146" on="0"/>
        <pt x="163" y="397" on="0"/>
        <pt x="163" y="540" on="1"/>
        <pt x="163" y="585" on="0"/>
        <pt x="138" y="640" on="0"/>
        <pt x="93" y="640" on="1"/>
        <pt x="78" y="640" on="1"/>
        <pt x="78" y="660" on="1"/>
        <pt x="578" y="660" on="1"/>
        <pt x="578" y="40" on="1"/>
      </contour>
    </TTGlyph>
    <TTGlyph name="afii10022" xMin="16" yMin="0" xMax="561" yMax="660">
      <component glyphName="E" x="0" y="0" flags="0x204"/>
    </TTGlyph>
    <TTGlyph name="afii10023" xMin="16" yMin="0" xMax="561" yMax="830">
      <component glyphName="E" x="0" y="0" flags="0x204"/>
      <component glyphName="dieresis" x="135" y="40" flags="0x4"/>
    </TTGlyph>
    <TTGlyph name="afii10024" xMin="-9" yMin="-10" xMax="958" yMax="660">
      <contour>
        <pt x="341" y="370" on="1"/>
        <pt x="186" y="565" on="1"/>
        <pt x="152" y="608" on="0"/>
        <pt x="85" y="635" on="0"/>
        <pt x="51" y="635" on="1"/>
        <pt x="51" y="660" on="1"/>
        <pt x="101" y="660" on="1"/>
        <pt x="127" y="660" on="0"/>
        <pt x="171" y="643" on="0"/>
        <pt x="210" y="614" on="0"/>
        <pt x="244" y="576" on="0"/>
        <pt x="261" y="555" on="1"/>
        <pt x="431" y="345" on="1"/>
        <pt x="431" y="660" on="1"/>
        <pt x="518" y="660" on="1"/>
        <pt x="518" y="345" on="1"/>
        <pt x="688" y="555" on="1"/>
        <pt x="704" y="576" on="0"/>
        <pt x="739" y="614" on="0"/>
        <pt x="778" y="643" on="0"/>
        <pt x="822" y="660" on="0"/>
        <pt x="848" y="660" on="1"/>
        <pt x="898" y="660" on="1"/>
        <pt x="898" y="635" on="1"/>
        <pt x="864" y="635" on="0"/>
        <pt x="797" y="608" on="0"/>
        <pt x="763" y="565" on="1"/>
        <pt x="608" y="370" on="1"/>
        <pt x="798" y="130" on="1"/>
        <pt x="816" y="108" on="0"/>
        <pt x="857" y="69" on="0"/>
        <pt x="900" y="40" on="0"/>
        <pt x="941" y="21" on="0"/>
        <pt x="958" y="19" on="1"/>
        <pt x="958" y="0" on="1"/>
        <pt x="947" y="-4" on="0"/>
        <pt x="916" y="-10" on="0"/>
        <pt x="893" y="-10" on="1"/>
        <pt x="876" y="-10" on="0"/>
        <pt x="830" y="-1" on="0"/>
        <pt x="777" y="24" on="0"/>
        <pt x="718" y="71" on="0"/>
        <pt x="688" y="110" on="1"/>
        <pt x="518" y="330" on="1"/>
        <pt x="518" y="0" on="1"/>
        <pt x="431" y="0" on="1"/>
        <pt x="431" y="330" on="1"/>
        <pt x="261" y="110" on="1"/>
        <pt x="231" y="71" on="0"/>
        <pt x="172" y="24" on="0"/>
        <pt x="119" y="-1" on="0"/>
        <pt x="73" y="-10" on="0"/>
        <pt x="56" y="-10" on="1"/>
        <pt x="33" y="-10" on="0"/>
        <pt x="2" y="-4" on="0"/>
        <pt x="-9" y="0" on="1"/>
        <pt x="-9" y="19" on="1"/>
        <pt x="8" y="21" on="0"/>
        <pt x="49" y="40" on="0"/>
        <pt x="92" y="69" on="0"/>
        <pt x="133" y="108" on="0"/>
        <pt x="151" y="130" on="1"/>
      </contour>
    </TTGlyph>
    <TTGlyph name="afii10025" xMin="30" yMin="-20" xMax="530" yMax="680">
      <contour>
        <pt x="165" y="355" on="1"/>
        <pt x="240" y="355" on="1"/>
        <pt x="274" y="355" on="0"/>
        <pt x="335" y="374" on="0"/>
        <pt x="382" y="410" on="0"/>
        <pt x="410" y="464" on="0"/>
        <pt x="410" y="500" on="1"/>
        <pt x="410" y="536" on="0"/>
        <pt x="384" y="588" on="0"/>
        <pt x="342" y="623" on="0"/>
        <pt x="288" y="640" on="0"/>
        <pt x="260" y="640" on="1"/>
        <pt x="188" y="640" on="0"/>
        <pt x="89" y="555" on="0"/>
        <pt x="70" y="480" on="1"/>
        <pt x="50" y="480" on="1"/>
        <pt x="50" y="525" on="0"/>
        <pt x="56" y="587" on="0"/>
        <pt x="75" y="610" on="1"/>
        <pt x="88" y="626" on="0"/>
        <pt x="131" y="652" on="0"/>
        <pt x="183" y="670" on="0"/>
        <pt x="239" y="680" on="0"/>
        <pt x="265" y="680" on="1"/>
        <pt x="302" y="680" on="0"/>
        <pt x="387" y="667" on="0"/>
        <pt x="458" y="628" on="0"/>
        <pt x="505" y="555" on="0"/>
        <pt x="505" y="495" on="1"/>
        <pt x="505" y="446" on="0"/>
        <pt x="437" y="363" on="0"/>
        <pt x="365" y="340" on="1"/>
        <pt x="412" y="331" on="0"/>
        <pt x="475" y="299" on="0"/>
        <pt x="514" y="256" on="0"/>
        <pt x="530" y="201" on="0"/>
        <pt x="530" y="170" on="1"/>
        <pt x="530" y="112" on="0"/>
        <pt x="480" y="38" on="0"/>
        <pt x="403" y="-4" on="0"/>
        <pt x="311" y="-20" on="0"/>
        <pt x="270" y="-20" on="1"/>
        <pt x="195" y="-20" on="0"/>
        <pt x="75" y="34" on="0"/>
        <pt x="30" y="105" on="1"/>
        <pt x="50" y="120" on="1"/>
        <pt x="84" y="75" on="0"/>
        <pt x="183" y="20" on="0"/>
        <pt x="255" y="20" on="1"/>
        <pt x="334" y="20" on="0"/>
        <pt x="430" y="96" on="0"/>
        <pt x="430" y="165" on="1"/>
        <pt x="430" y="237" on="0"/>
        <pt x="334" y="315" on="0"/>
        <pt x="240" y="315" on="1"/>
        <pt x="165" y="315" on="1"/>
      </contour>
    </TTGlyph>
    <TTGlyph name="afii10026" xMin="16" yMin="0" xMax="606" yMax="660">
      <contour>
        <pt x="516" y="570" on="1"/>
        <pt x="196" y="0" on="1"/>
        <pt x="106" y="0" on="1"/>
        <pt x="106" y="540" on="1"/>
        <pt x="106" y="585" on="0"/>
        <pt x="81" y="640" on="0"/>
        <pt x="36" y="640" on="1"/>
        <pt x="16" y="640" on="1"/>
        <pt x="16" y="660" on="1"/>
        <pt x="106" y="660" on="1"/>
        <pt x="132" y="660" on="0"/>
        <pt x="167" y="651" on="0"/>
        <pt x="188" y="624" on="0"/>
        <pt x="196" y="577" on="0"/>
        <pt x="196" y="540" on="1"/>
        <pt x="196" y="90" on="1"/>
        <pt x="516" y="660" on="1"/>
        <pt x="606" y="660" on="1"/>
        <pt x="606" y="0" on="1"/>
        <pt x="516" y="0" on="1"/>
      </contour>
    </TTGlyph>
    <TTGlyph name="afii10027" xMin="16" yMin="0" xMax="606" yMax="815">
      <component glyphName="afii10026" x="0" y="0" flags="0x204"/>
      <component glyphName="Breve" x="226" y="10" flags="0x4"/>
    </TTGlyph>
    <TTGlyph name="afii10028" xMin="16" yMin="-10" xMax="686" yMax="660">
      <component glyphName="K" x="0" y="0" flags="0x204"/>
    </TTGlyph>
    <TTGlyph name="afii10029" xMin="-6" yMin="-10" xMax="574" yMax="660">
      <contour>
        <pt x="159" y="540" on="1"/>
        <pt x="159" y="585" on="0"/>
        <pt x="134" y="640" on="0"/>
        <pt x="89" y="640" on="1"/>
        <pt x="79" y="640" on="1"/>
        <pt x="79" y="660" on="1"/>
        <pt x="574" y="660" on="1"/>
        <pt x="574" y="0" on="1"/>
        <pt x="484" y="0" on="1"/>
        <pt x="484" y="620" on="1"/>
        <pt x="234" y="620" on="1"/>
        <pt x="234" y="540" on="1"/>
        <pt x="234" y="369" on="0"/>
        <pt x="203" y="155" on="0"/>
        <pt x="150" y="34" on="0"/>
        <pt x="81" y="-10" on="0"/>
        <pt x="44" y="-10" on="1"/>
        <pt x="33" y="-10" on="0"/>
        <pt x="5" y="-5" on="0"/>
        <pt x="-6" y="-1" on="1"/>
        <pt x="-6" y="24" on="1"/>
        <pt x="16" y="25" on="0"/>
        <pt x="58" y="42" on="0"/>
        <pt x="94" y="84" on="0"/>
        <pt x="125" y="156" on="0"/>
        <pt x="146" y="269" on="0"/>
        <pt x="159" y="430" on="0"/>
      </contour>
    </TTGlyph>
    <TTGlyph name="afii10030" xMin="86" yMin="-45" xMax="841" yMax="660">
      <component glyphName="M" x="0" y="0" flags="0x204"/>
    </TTGlyph>
    <TTGlyph name="afii10031" xMin="16" yMin="0" xMax="676" yMax="660">
      <component glyphName="H" x="0" y="0" flags="0x204"/>
    </TTGlyph>
    <TTGlyph name="afii10032" xMin="46" yMin="-20" xMax="666" yMax="680">
      <component glyphName="O" x="0" y="0" flags="0x204"/>
    </TTGlyph>
    <TTGlyph name="afii10033" xMin="16" yMin="0" xMax="586" yMax="660">
      <contour>
        <pt x="586" y="0" on="1"/>
        <pt x="496" y="0" on="1"/>
        <pt x="496" y="620" on="1"/>
        <pt x="196" y="620" on="1"/>
        <pt x="196" y="0" on="1"/>
        <pt x="106" y="0" on="1"/>
        <pt x="106" y="540" on="1"/>
        <pt x="106" y="585" on="0"/>
        <pt x="81" y="640" on="0"/>
        <pt x="36" y="640" on="1"/>
        <pt x="16" y="640" on="1"/>
        <pt x="16" y="660" on="1"/>
        <pt x="586" y="660" on="1"/>
      </contour>
    </TTGlyph>
    <TTGlyph name="afii10034" xMin="16" yMin="0" xMax="526" yMax="660">
      <component glyphName="P" x="0" y="0" flags="0x204"/>
    </TTGlyph>
    <TTGlyph name="afii10035" xMin="44" yMin="-20" xMax="629" yMax="680">
      <component glyphName="C" x="0" y="0" flags="0x204"/>
    </TTGlyph>
    <TTGlyph name="afii10036" xMin="21" yMin="0" xMax="571" yMax="660">
      <component glyphName="T" x="0" y="0" flags="0x204"/>
    </TTGlyph>
    <TTGlyph name="afii10037" xMin="-28" yMin="-10" xMax="587" yMax="660">
      <contour>
        <pt x="292" y="120" on="1"/>
        <pt x="107" y="530" on="1"/>
        <pt x="98" y="551" on="0"/>
        <pt x="78" y="589" on="0"/>
        <pt x="49" y="619" on="0"/>
        <pt x="6" y="638" on="0"/>
        <pt x="-28" y="640" on="1"/>
        <pt x="-28" y="660" on="1"/>
        <pt x="92" y="660" on="1"/>
        <pt x="116" y="660" on="0"/>
        <pt x="153" y="641" on="0"/>
        <pt x="181" y="610" on="0"/>
        <pt x="203" y="571" on="0"/>
        <pt x="212" y="550" on="1"/>
        <pt x="347" y="250" on="1"/>
        <pt x="527" y="660" on="1"/>
        <pt x="587" y="660" on="1"/>
        <pt x="341" y="95" on="1"/>
        <pt x="320" y="46" on="0"/>
        <pt x="242" y="-10" on="0"/>
        <pt x="182" y="-10" on="1"/>
        <pt x="132" y="-10" on="1"/>
        <pt x="132" y="20" on="1"/>
        <pt x="154" y="20" on="0"/>
        <pt x="200" y="27" on="0"/>
        <pt x="241" y="43" on="0"/>
        <pt x="273" y="72" on="0"/>
        <pt x="282" y="95" on="1"/>
      </contour>
    </TTGlyph>
    <TTGlyph name="afii10038" xMin="35" yMin="-30" xMax="745" yMax="690">
      <contour>
        <pt x="135" y="315" on="1"/>
        <pt x="135" y="266" on="0"/>
        <pt x="156" y="179" on="0"/>
        <pt x="204" y="113" on="0"/>
        <pt x="285" y="75" on="0"/>
        <pt x="345" y="75" on="1"/>
        <pt x="345" y="555" on="1"/>
        <pt x="285" y="555" on="0"/>
        <pt x="204" y="517" on="0"/>
        <pt x="156" y="451" on="0"/>
        <pt x="135" y="364" on="0"/>
      </contour>
      <contour>
        <pt x="645" y="315" on="1"/>
        <pt x="645" y="364" on="0"/>
        <pt x="624" y="451" on="0"/>
        <pt x="576" y="517" on="0"/>
        <pt x="495" y="555" on="0"/>
        <pt x="435" y="555" on="1"/>
        <pt x="435" y="75" on="1"/>
        <pt x="495" y="75" on="0"/>
        <pt x="576" y="113" on="0"/>
        <pt x="624" y="179" on="0"/>
        <pt x="645" y="266" on="0"/>
      </contour>
      <contour>
        <pt x="435" y="595" on="1"/>
        <pt x="514" y="595" on="0"/>
        <pt x="630" y="555" on="0"/>
        <pt x="707" y="482" on="0"/>
        <pt x="745" y="379" on="0"/>
        <pt x="745" y="315" on="1"/>
        <pt x="745" y="251" on="0"/>
        <pt x="707" y="148" on="0"/>
        <pt x="630" y="75" on="0"/>
        <pt x="514" y="35" on="0"/>
        <pt x="435" y="35" on="1"/>
        <pt x="435" y="-30" on="1"/>
        <pt x="345" y="-30" on="1"/>
        <pt x="345" y="35" on="1"/>
        <pt x="266" y="35" on="0"/>
        <pt x="150" y="75" on="0"/>
        <pt x="73" y="148" on="0"/>
        <pt x="35" y="251" on="0"/>
        <pt x="35" y="315" on="1"/>
        <pt x="35" y="379" on="0"/>
        <pt x="73" y="482" on="0"/>
        <pt x="150" y="555" on="0"/>
        <pt x="266" y="595" on="0"/>
        <pt x="345" y="595" on="1"/>
        <pt x="345" y="600" on="1"/>
        <pt x="345" y="638" on="0"/>
        <pt x="313" y="670" on="0"/>
        <pt x="275" y="670" on="1"/>
        <pt x="255" y="670" on="1"/>
        <pt x="255" y="690" on="1"/>
        <pt x="345" y="690" on="1"/>
        <pt x="397" y="690" on="0"/>
        <pt x="435" y="652" on="0"/>
        <pt x="435" y="600" on="1"/>
      </contour>
    </TTGlyph>
    <TTGlyph name="afii10039" xMin="-9" yMin="0" xMax="681" yMax="660">
      <component glyphName="X" x="0" y="0" flags="0x204"/>
    </TTGlyph>
    <TTGlyph name="afii10040" xMin="16" yMin="-180" xMax="676" yMax="660">
      <contour>
        <pt x="106" y="0" on="1"/>
        <pt x="106" y="540" on="1"/>
        <pt x="106" y="585" on="0"/>
        <pt x="81" y="640" on="0"/>
        <pt x="36" y="640" on="1"/>
        <pt x="16" y="640" on="1"/>
        <pt x="16" y="660" on="1"/>
        <pt x="106" y="660" on="1"/>
        <pt x="132" y="660" on="0"/>
        <pt x="167" y="651" on="0"/>
        <pt x="188" y="624" on="0"/>
        <pt x="196" y="577" on="0"/>
        <pt x="196" y="540" on="1"/>
        <pt x="196" y="40" on="1"/>
        <pt x="496" y="40" on="1"/>
        <pt x="496" y="660" on="1"/>
        <pt x="586" y="660" on="1"/>
        <pt x="586" y="40" on="1"/>
        <pt x="641" y="40" on="1"/>
        <pt x="656" y="40" on="0"/>
        <pt x="676" y="20" on="0"/>
        <pt x="676" y="5" on="1"/>
        <pt x="676" y="-180" on="1"/>
        <pt x="631" y="-180" on="1"/>
        <pt x="625" y="-129" on="0"/>
        <pt x="605" y="-60" on="0"/>
        <pt x="574" y="-18" on="0"/>
        <pt x="532" y="0" on="0"/>
        <pt x="506" y="0" on="1"/>
      </contour>
    </TTGlyph>
    <TTGlyph name="afii10041" xMin="4" yMin="0" xMax="554" yMax="660">
      <contour>
        <pt x="334" y="290" on="1"/>
        <pt x="364" y="290" on="0"/>
        <pt x="438" y="299" on="0"/>
        <pt x="464" y="310" on="1"/>
        <pt x="464" y="660" on="1"/>
        <pt x="554" y="660" on="1"/>
        <pt x="554" y="0" on="1"/>
        <pt x="464" y="0" on="1"/>
        <pt x="464" y="270" on="1"/>
        <pt x="451" y="264" on="0"/>
        <pt x="417" y="257" on="0"/>
        <pt x="380" y="252" on="0"/>
        <pt x="344" y="250" on="0"/>
        <pt x="329" y="250" on="1"/>
        <pt x="278" y="250" on="0"/>
        <pt x="189" y="265" on="0"/>
        <pt x="123" y="310" on="0"/>
        <pt x="84" y="392" on="0"/>
        <pt x="84" y="460" on="1"/>
        <pt x="84" y="540" on="1"/>
        <pt x="84" y="585" on="0"/>
        <pt x="59" y="640" on="0"/>
        <pt x="14" y="640" on="1"/>
        <pt x="4" y="640" on="1"/>
        <pt x="4" y="660" on="1"/>
        <pt x="94" y="660" on="1"/>
        <pt x="120" y="660" on="0"/>
        <pt x="155" y="651" on="0"/>
        <pt x="176" y="624" on="0"/>
        <pt x="184" y="577" on="0"/>
        <pt x="184" y="540" on="1"/>
        <pt x="184" y="450" on="1"/>
        <pt x="184" y="401" on="0"/>
        <pt x="203" y="339" on="0"/>
        <pt x="240" y="303" on="0"/>
        <pt x="296" y="290" on="0"/>
      </contour>
    </TTGlyph>
    <TTGlyph name="afii10042" xMin="16" yMin="0" xMax="846" yMax="660">
      <contour>
        <pt x="106" y="0" on="1"/>
        <pt x="106" y="540" on="1"/>
        <pt x="106" y="585" on="0"/>
        <pt x="81" y="640" on="0"/>
        <pt x="36" y="640" on="1"/>
        <pt x="16" y="640" on="1"/>
        <pt x="16" y="660" on="1"/>
        <pt x="106" y="660" on="1"/>
        <pt x="132" y="660" on="0"/>
        <pt x="167" y="651" on="0"/>
        <pt x="188" y="624" on="0"/>
        <pt x="196" y="577" on="0"/>
        <pt x="196" y="540" on="1"/>
        <pt x="196" y="40" on="1"/>
        <pt x="431" y="40" on="1"/>
        <pt x="431" y="660" on="1"/>
        <pt x="521" y="660" on="1"/>
        <pt x="521" y="40" on="1"/>
        <pt x="756" y="40" on="1"/>
        <pt x="756" y="660" on="1"/>
        <pt x="846" y="660" on="1"/>
        <pt x="846" y="0" on="1"/>
      </contour>
    </TTGlyph>
    <TTGlyph name="afii10043" xMin="16" yMin="-180" xMax="936" yMax="660">
      <contour>
        <pt x="106" y="0" on="1"/>
        <pt x="106" y="540" on="1"/>
        <pt x="106" y="585" on="0"/>
        <pt x="81" y="640" on="0"/>
        <pt x="36" y="640" on="1"/>
        <pt x="16" y="640" on="1"/>
        <pt x="16" y="660" on="1"/>
        <pt x="106" y="660" on="1"/>
        <pt x="132" y="660" on="0"/>
        <pt x="167" y="651" on="0"/>
        <pt x="188" y="624" on="0"/>
        <pt x="196" y="577" on="0"/>
        <pt x="196" y="540" on="1"/>
        <pt x="196" y="40" on="1"/>
        <pt x="431" y="40" on="1"/>
        <pt x="431" y="660" on="1"/>
        <pt x="521" y="660" on="1"/>
        <pt x="521" y="40" on="1"/>
        <pt x="756" y="40" on="1"/>
        <pt x="756" y="660" on="1"/>
        <pt x="846" y="660" on="1"/>
        <pt x="846" y="40" on="1"/>
        <pt x="901" y="40" on="1"/>
        <pt x="916" y="40" on="0"/>
        <pt x="936" y="20" on="0"/>
        <pt x="936" y="5" on="1"/>
        <pt x="936" y="-180" on="1"/>
        <pt x="891" y="-180" on="1"/>
        <pt x="885" y="-129" on="0"/>
        <pt x="865" y="-60" on="0"/>
        <pt x="834" y="-18" on="0"/>
        <pt x="792" y="0" on="0"/>
        <pt x="766" y="0" on="1"/>
      </contour>
    </TTGlyph>
    <TTGlyph name="afii10044" xMin="29" yMin="0" xMax="679" yMax="660">
      <contour>
        <pt x="579" y="190" on="1"/>
        <pt x="579" y="269" on="0"/>
        <pt x="482" y="345" on="0"/>
        <pt x="399" y="345" on="1"/>
        <pt x="376" y="345" on="0"/>
        <pt x="327" y="338" on="0"/>
        <pt x="304" y="331" on="1"/>
        <pt x="304" y="49" on="1"/>
        <pt x="327" y="42" on="0"/>
        <pt x="376" y="35" on="0"/>
        <pt x="399" y="35" on="1"/>
        <pt x="482" y="35" on="0"/>
        <pt x="579" y="111" on="0"/>
      </contour>
      <contour>
        <pt x="29" y="625" on="1"/>
        <pt x="29" y="640" on="0"/>
        <pt x="49" y="660" on="0"/>
        <pt x="64" y="660" on="1"/>
        <pt x="304" y="660" on="1"/>
        <pt x="304" y="380" on="1"/>
        <pt x="414" y="380" on="1"/>
        <pt x="457" y="380" on="0"/>
        <pt x="551" y="366" on="0"/>
        <pt x="629" y="324" on="0"/>
        <pt x="679" y="250" on="0"/>
        <pt x="679" y="190" on="1"/>
        <pt x="679" y="130" on="0"/>
        <pt x="629" y="56" on="0"/>
        <pt x="551" y="14" on="0"/>
        <pt x="457" y="0" on="0"/>
        <pt x="414" y="0" on="1"/>
        <pt x="214" y="0" on="1"/>
        <pt x="214" y="620" on="1"/>
        <pt x="184" y="620" on="1"/>
        <pt x="152" y="620" on="0"/>
        <pt x="106" y="605" on="0"/>
        <pt x="76" y="571" on="0"/>
        <pt x="61" y="513" on="0"/>
        <pt x="59" y="470" on="1"/>
        <pt x="29" y="470" on="1"/>
      </contour>
    </TTGlyph>
    <TTGlyph name="afii10045" xMin="16" yMin="0" xMax="816" yMax="660">
      <contour>
        <pt x="196" y="380" on="1"/>
        <pt x="306" y="380" on="1"/>
        <pt x="343" y="380" on="0"/>
        <pt x="431" y="366" on="0"/>
        <pt x="506" y="324" on="0"/>
        <pt x="556" y="250" on="0"/>
        <pt x="556" y="190" on="1"/>
        <pt x="556" y="130" on="0"/>
        <pt x="506" y="56" on="0"/>
        <pt x="431" y="14" on="0"/>
        <pt x="343" y="0" on="0"/>
        <pt x="306" y="0" on="1"/>
        <pt x="106" y="0" on="1"/>
        <pt x="106" y="540" on="1"/>
        <pt x="106" y="585" on="0"/>
        <pt x="81" y="640" on="0"/>
        <pt x="36" y="640" on="1"/>
        <pt x="16" y="640" on="1"/>
        <pt x="16" y="660" on="1"/>
        <pt x="106" y="660" on="1"/>
        <pt x="132" y="660" on="0"/>
        <pt x="167" y="651" on="0"/>
        <pt x="188" y="624" on="0"/>
        <pt x="196" y="577" on="0"/>
        <pt x="196" y="540" on="1"/>
      </contour>
      <contour>
        <pt x="456" y="190" on="1"/>
        <pt x="456" y="229" on="0"/>
        <pt x="431" y="288" on="0"/>
        <pt x="387" y="326" on="0"/>
        <pt x="327" y="345" on="0"/>
        <pt x="291" y="345" on="1"/>
        <pt x="268" y="345" on="0"/>
        <pt x="219" y="338" on="0"/>
        <pt x="196" y="331" on="1"/>
        <pt x="196" y="49" on="1"/>
        <pt x="219" y="42" on="0"/>
        <pt x="268" y="35" on="0"/>
        <pt x="291" y="35" on="1"/>
        <pt x="327" y="35" on="0"/>
        <pt x="387" y="54" on="0"/>
        <pt x="431" y="92" on="0"/>
        <pt x="456" y="151" on="0"/>
      </contour>
      <contour>
        <pt x="636" y="660" on="1"/>
        <pt x="726" y="660" on="1"/>
        <pt x="726" y="120" on="1"/>
        <pt x="726" y="75" on="0"/>
        <pt x="751" y="20" on="0"/>
        <pt x="796" y="20" on="1"/>
        <pt x="816" y="20" on="1"/>
        <pt x="816" y="0" on="1"/>
        <pt x="726" y="0" on="1"/>
        <pt x="700" y="0" on="0"/>
        <pt x="665" y="9" on="0"/>
        <pt x="644" y="36" on="0"/>
        <pt x="636" y="82" on="0"/>
        <pt x="636" y="120" on="1"/>
      </contour>
    </TTGlyph>
    <TTGlyph name="afii10046" xMin="16" yMin="0" xMax="571" yMax="660">
      <contour>
        <pt x="471" y="190" on="1"/>
        <pt x="471" y="269" on="0"/>
        <pt x="374" y="345" on="0"/>
        <pt x="291" y="345" on="1"/>
        <pt x="268" y="345" on="0"/>
        <pt x="219" y="338" on="0"/>
        <pt x="196" y="331" on="1"/>
        <pt x="196" y="49" on="1"/>
        <pt x="219" y="42" on="0"/>
        <pt x="268" y="35" on="0"/>
        <pt x="291" y="35" on="1"/>
        <pt x="374" y="35" on="0"/>
        <pt x="471" y="111" on="0"/>
      </contour>
      <contour>
        <pt x="196" y="380" on="1"/>
        <pt x="306" y="380" on="1"/>
        <pt x="349" y="380" on="0"/>
        <pt x="443" y="366" on="0"/>
        <pt x="521" y="324" on="0"/>
        <pt x="571" y="250" on="0"/>
        <pt x="571" y="190" on="1"/>
        <pt x="571" y="130" on="0"/>
        <pt x="521" y="56" on="0"/>
        <pt x="443" y="14" on="0"/>
        <pt x="349" y="0" on="0"/>
        <pt x="306" y="0" on="1"/>
        <pt x="106" y="0" on="1"/>
        <pt x="106" y="540" on="1"/>
        <pt x="106" y="585" on="0"/>
        <pt x="81" y="640" on="0"/>
        <pt x="36" y="640" on="1"/>
        <pt x="16" y="640" on="1"/>
        <pt x="16" y="660" on="1"/>
        <pt x="106" y="660" on="1"/>
        <pt x="132" y="660" on="0"/>
        <pt x="167" y="651" on="0"/>
        <pt x="188" y="624" on="0"/>
        <pt x="196" y="577" on="0"/>
        <pt x="196" y="540" on="1"/>
      </contour>
    </TTGlyph>
    <TTGlyph name="afii10047" xMin="35" yMin="-20" xMax="620" yMax="680">
      <contour>
        <pt x="55" y="450" on="1"/>
        <pt x="55" y="495" on="0"/>
        <pt x="61" y="577" on="0"/>
        <pt x="80" y="600" on="1"/>
        <pt x="107" y="633" on="0"/>
        <pt x="227" y="680" on="0"/>
        <pt x="310" y="680" on="1"/>
        <pt x="374" y="680" on="0"/>
        <pt x="487" y="624" on="0"/>
        <pt x="571" y="526" on="0"/>
        <pt x="620" y="395" on="0"/>
        <pt x="620" y="320" on="1"/>
        <pt x="620" y="249" on="0"/>
        <pt x="577" y="125" on="0"/>
        <pt x="496" y="33" on="0"/>
        <pt x="381" y="-20" on="0"/>
        <pt x="310" y="-20" on="1"/>
        <pt x="265" y="-20" on="0"/>
        <pt x="186" y="-4" on="0"/>
        <pt x="118" y="35" on="0"/>
        <pt x="59" y="98" on="0"/>
        <pt x="35" y="145" on="1"/>
        <pt x="55" y="160" on="1"/>
        <pt x="97" y="92" on="0"/>
        <pt x="205" y="20" on="0"/>
        <pt x="280" y="20" on="1"/>
        <pt x="342" y="20" on="0"/>
        <pt x="431" y="70" on="0"/>
        <pt x="489" y="151" on="0"/>
        <pt x="518" y="256" on="0"/>
        <pt x="520" y="310" on="1"/>
        <pt x="189" y="310" on="1"/>
        <pt x="189" y="350" on="1"/>
        <pt x="520" y="350" on="1"/>
        <pt x="516" y="431" on="0"/>
        <pt x="475" y="541" on="0"/>
        <pt x="410" y="610" on="0"/>
        <pt x="326" y="640" on="0"/>
        <pt x="280" y="640" on="1"/>
        <pt x="197" y="640" on="0"/>
        <pt x="94" y="548" on="0"/>
        <pt x="75" y="450" on="1"/>
      </contour>
    </TTGlyph>
    <TTGlyph name="afii10048" xMin="16" yMin="-20" xMax="826" yMax="680">
      <contour>
        <pt x="546" y="680" on="1"/>
        <pt x="606" y="680" on="0"/>
        <pt x="708" y="630" on="0"/>
        <pt x="783" y="538" on="0"/>
        <pt x="826" y="409" on="0"/>
        <pt x="826" y="330" on="1"/>
        <pt x="826" y="251" on="0"/>
        <pt x="783" y="122" on="0"/>
        <pt x="708" y="30" on="0"/>
        <pt x="606" y="-20" on="0"/>
        <pt x="546" y="-20" on="1"/>
        <pt x="487" y="-20" on="0"/>
        <pt x="386" y="29" on="0"/>
        <pt x="311" y="118" on="0"/>
        <pt x="268" y="243" on="0"/>
        <pt x="266" y="320" on="1"/>
        <pt x="196" y="320" on="1"/>
        <pt x="196" y="0" on="1"/>
        <pt x="106" y="0" on="1"/>
        <pt x="106" y="540" on="1"/>
        <pt x="106" y="585" on="0"/>
        <pt x="81" y="640" on="0"/>
        <pt x="36" y="640" on="1"/>
        <pt x="16" y="640" on="1"/>
        <pt x="16" y="660" on="1"/>
        <pt x="106" y="660" on="1"/>
        <pt x="132" y="660" on="0"/>
        <pt x="167" y="651" on="0"/>
        <pt x="188" y="624" on="0"/>
        <pt x="196" y="577" on="0"/>
        <pt x="196" y="540" on="1"/>
        <pt x="196" y="360" on="1"/>
        <pt x="267" y="360" on="1"/>
        <pt x="272" y="433" on="0"/>
        <pt x="318" y="551" on="0"/>
        <pt x="391" y="635" on="0"/>
        <pt x="489" y="680" on="0"/>
      </contour>
      <contour>
        <pt x="546" y="640" on="1"/>
        <pt x="508" y="640" on="0"/>
        <pt x="443" y="599" on="0"/>
        <pt x="394" y="521" on="0"/>
        <pt x="366" y="405" on="0"/>
        <pt x="366" y="330" on="1"/>
        <pt x="366" y="255" on="0"/>
        <pt x="394" y="139" on="0"/>
        <pt x="443" y="61" on="0"/>
        <pt x="508" y="20" on="0"/>
        <pt x="546" y="20" on="1"/>
        <pt x="583" y="20" on="0"/>
        <pt x="649" y="61" on="0"/>
        <pt x="698" y="139" on="0"/>
        <pt x="726" y="255" on="0"/>
        <pt x="726" y="330" on="1"/>
        <pt x="726" y="405" on="0"/>
        <pt x="698" y="521" on="0"/>
        <pt x="649" y="599" on="0"/>
        <pt x="583" y="640" on="0"/>
      </contour>
    </TTGlyph>
    <TTGlyph name="afii10049" xMin="14" yMin="-10" xMax="584" yMax="660">
      <contour>
        <pt x="414" y="270" on="1"/>
        <pt x="317" y="270" on="1"/>
        <pt x="212" y="80" on="1"/>
        <pt x="183" y="27" on="0"/>
        <pt x="118" y="-10" on="0"/>
        <pt x="74" y="-10" on="1"/>
        <pt x="59" y="-10" on="0"/>
        <pt x="25" y="-3" on="0"/>
        <pt x="14" y="1" on="1"/>
        <pt x="14" y="20" on="1"/>
        <pt x="52" y="24" on="0"/>
        <pt x="104" y="66" on="0"/>
        <pt x="124" y="100" on="1"/>
        <pt x="229" y="280" on="1"/>
        <pt x="205" y="286" on="0"/>
        <pt x="153" y="310" on="0"/>
        <pt x="111" y="352" on="0"/>
        <pt x="84" y="415" on="0"/>
        <pt x="84" y="460" on="1"/>
        <pt x="84" y="527" on="0"/>
        <pt x="138" y="607" on="0"/>
        <pt x="216" y="648" on="0"/>
        <pt x="302" y="660" on="0"/>
        <pt x="334" y="660" on="1"/>
        <pt x="584" y="660" on="1"/>
        <pt x="584" y="640" on="1"/>
        <pt x="574" y="640" on="1"/>
        <pt x="529" y="640" on="0"/>
        <pt x="504" y="585" on="0"/>
        <pt x="504" y="540" on="1"/>
        <pt x="504" y="0" on="1"/>
        <pt x="414" y="0" on="1"/>
      </contour>
      <contour>
        <pt x="339" y="305" on="1"/>
        <pt x="358" y="305" on="0"/>
        <pt x="399" y="311" on="0"/>
        <pt x="414" y="315" on="1"/>
        <pt x="414" y="615" on="1"/>
        <pt x="399" y="619" on="0"/>
        <pt x="358" y="625" on="0"/>
        <pt x="339" y="625" on="1"/>
        <pt x="318" y="625" on="0"/>
        <pt x="265" y="609" on="0"/>
        <pt x="217" y="571" on="0"/>
        <pt x="184" y="510" on="0"/>
        <pt x="184" y="465" on="1"/>
        <pt x="184" y="420" on="0"/>
        <pt x="217" y="359" on="0"/>
        <pt x="265" y="321" on="0"/>
        <pt x="318" y="305" on="0"/>
      </contour>
    </TTGlyph>
    <TTGlyph name="afii10050" xMin="16" yMin="0" xMax="516" yMax="775">
      <contour>
        <pt x="196" y="620" on="1"/>
        <pt x="196" y="0" on="1"/>
        <pt x="106" y="0" on="1"/>
        <pt x="106" y="540" on="1"/>
        <pt x="106" y="585" on="0"/>
        <pt x="81" y="640" on="0"/>
        <pt x="36" y="640" on="1"/>
        <pt x="16" y="640" on="1"/>
        <pt x="16" y="660" on="1"/>
        <pt x="371" y="660" on="1"/>
        <pt x="431" y="660" on="0"/>
        <pt x="496" y="715" on="0"/>
        <pt x="496" y="775" on="1"/>
        <pt x="516" y="775" on="1"/>
        <pt x="516" y="665" on="1"/>
        <pt x="516" y="646" on="0"/>
        <pt x="490" y="620" on="0"/>
        <pt x="471" y="620" on="1"/>
      </contour>
    </TTGlyph>
    <TTGlyph name="afii10051" xMin="-1" yMin="-40" xMax="589" yMax="660">
      <contour>
        <pt x="499" y="200" on="1"/>
        <pt x="499" y="256" on="0"/>
        <pt x="476" y="328" on="0"/>
        <pt x="438" y="369" on="0"/>
        <pt x="387" y="385" on="0"/>
        <pt x="359" y="385" on="1"/>
        <pt x="321" y="385" on="0"/>
        <pt x="242" y="360" on="0"/>
        <pt x="219" y="345" on="1"/>
        <pt x="219" y="0" on="1"/>
        <pt x="129" y="0" on="1"/>
        <pt x="129" y="620" on="1"/>
        <pt x="-1" y="620" on="1"/>
        <pt x="-1" y="660" on="1"/>
        <pt x="349" y="660" on="1"/>
        <pt x="349" y="620" on="1"/>
        <pt x="219" y="620" on="1"/>
        <pt x="219" y="390" on="1"/>
        <pt x="242" y="405" on="0"/>
        <pt x="336" y="430" on="0"/>
        <pt x="389" y="430" on="1"/>
        <pt x="428" y="430" on="0"/>
        <pt x="501" y="413" on="0"/>
        <pt x="556" y="363" on="0"/>
        <pt x="589" y="273" on="0"/>
        <pt x="589" y="200" on="1"/>
        <pt x="589" y="134" on="0"/>
        <pt x="572" y="43" on="0"/>
        <pt x="530" y="-14" on="0"/>
        <pt x="458" y="-40" on="0"/>
        <pt x="404" y="-40" on="1"/>
        <pt x="404" y="-20" on="1"/>
        <pt x="499" y="-20" on="0"/>
      </contour>
    </TTGlyph>
    <TTGlyph name="afii10052" xMin="16" yMin="0" xMax="516" yMax="815">
      <contour>
        <pt x="106" y="540" on="1"/>
        <pt x="106" y="585" on="0"/>
        <pt x="81" y="640" on="0"/>
        <pt x="36" y="640" on="1"/>
        <pt x="16" y="640" on="1"/>
        <pt x="16" y="660" on="1"/>
        <pt x="431" y="660" on="1"/>
        <pt x="457" y="660" on="0"/>
        <pt x="490" y="646" on="0"/>
        <pt x="509" y="624" on="0"/>
        <pt x="516" y="595" on="0"/>
        <pt x="516" y="580" on="1"/>
        <pt x="516" y="505" on="1"/>
        <pt x="496" y="505" on="1"/>
        <pt x="496" y="565" on="0"/>
        <pt x="431" y="620" on="0"/>
        <pt x="371" y="620" on="1"/>
        <pt x="196" y="620" on="1"/>
        <pt x="196" y="0" on="1"/>
        <pt x="106" y="0" on="1"/>
      </contour>
      <contour>
        <pt x="286" y="700" on="1"/>
        <pt x="236" y="700" on="1"/>
        <pt x="306" y="815" on="1"/>
        <pt x="391" y="815" on="1"/>
      </contour>
    </TTGlyph>
    <TTGlyph name="afii10053" xMin="44" yMin="-20" xMax="629" yMax="680">
      <contour>
        <pt x="589" y="450" on="1"/>
        <pt x="570" y="548" on="0"/>
        <pt x="467" y="640" on="0"/>
        <pt x="384" y="640" on="1"/>
        <pt x="337" y="640" on="0"/>
        <pt x="254" y="610" on="0"/>
        <pt x="189" y="541" on="0"/>
        <pt x="148" y="431" on="0"/>
        <pt x="144" y="350" on="1"/>
        <pt x="475" y="350" on="1"/>
        <pt x="475" y="310" on="1"/>
        <pt x="144" y="310" on="1"/>
        <pt x="146" y="256" on="0"/>
        <pt x="175" y="151" on="0"/>
        <pt x="233" y="70" on="0"/>
        <pt x="322" y="20" on="0"/>
        <pt x="384" y="20" on="1"/>
        <pt x="459" y="20" on="0"/>
        <pt x="567" y="92" on="0"/>
        <pt x="609" y="160" on="1"/>
        <pt x="629" y="145" on="1"/>
        <pt x="605" y="98" on="0"/>
        <pt x="546" y="35" on="0"/>
        <pt x="478" y="-4" on="0"/>
        <pt x="399" y="-20" on="0"/>
        <pt x="354" y="-20" on="1"/>
        <pt x="283" y="-20" on="0"/>
        <pt x="168" y="33" on="0"/>
        <pt x="87" y="125" on="0"/>
        <pt x="44" y="249" on="0"/>
        <pt x="44" y="320" on="1"/>
        <pt x="44" y="395" on="0"/>
        <pt x="93" y="526" on="0"/>
        <pt x="177" y="624" on="0"/>
        <pt x="290" y="680" on="0"/>
        <pt x="354" y="680" on="1"/>
        <pt x="437" y="680" on="0"/>
        <pt x="557" y="633" on="0"/>
        <pt x="584" y="600" on="1"/>
        <pt x="603" y="577" on="0"/>
        <pt x="609" y="495" on="0"/>
        <pt x="609" y="450" on="1"/>
      </contour>
    </TTGlyph>
    <TTGlyph name="afii10054" xMin="54" yMin="-17" xMax="490" yMax="678">
      <component glyphName="S" x="0" y="0" flags="0x204"/>
    </TTGlyph>
    <TTGlyph name="afii10055" xMin="89" yMin="0" xMax="269" yMax="660">
      <component glyphName="I" x="0" y="0" flags="0x204"/>
    </TTGlyph>
    <TTGlyph name="afii10056" xMin="7" yMin="0" xMax="269" yMax="815">
      <component glyphName="Idieresis" x="0" y="0" flags="0x204"/>
    </TTGlyph>
    <TTGlyph name="afii10057" xMin="-9" yMin="-137" xMax="176" yMax="660">
      <component glyphName="J" x="0" y="0" flags="0x204"/>
    </TTGlyph>
    <TTGlyph name="afii10058" xMin="-6" yMin="-10" xMax="939" yMax="660">
      <contour>
        <pt x="839" y="190" on="1"/>
        <pt x="839" y="269" on="0"/>
        <pt x="743" y="345" on="0"/>
        <pt x="659" y="345" on="1"/>
        <pt x="636" y="345" on="0"/>
        <pt x="587" y="338" on="0"/>
        <pt x="564" y="330" on="1"/>
        <pt x="564" y="50" on="1"/>
        <pt x="587" y="42" on="0"/>
        <pt x="636" y="35" on="0"/>
        <pt x="659" y="35" on="1"/>
        <pt x="743" y="35" on="0"/>
        <pt x="839" y="111" on="0"/>
      </contour>
      <contour>
        <pt x="564" y="660" on="1"/>
        <pt x="564" y="380" on="1"/>
        <pt x="674" y="380" on="1"/>
        <pt x="717" y="380" on="0"/>
        <pt x="811" y="366" on="0"/>
        <pt x="889" y="324" on="0"/>
        <pt x="939" y="250" on="0"/>
        <pt x="939" y="190" on="1"/>
        <pt x="939" y="130" on="0"/>
        <pt x="889" y="56" on="0"/>
        <pt x="811" y="14" on="0"/>
        <pt x="717" y="0" on="0"/>
        <pt x="674" y="0" on="1"/>
        <pt x="474" y="0" on="1"/>
        <pt x="474" y="620" on="1"/>
        <pt x="234" y="620" on="1"/>
        <pt x="234" y="540" on="1"/>
        <pt x="234" y="369" on="0"/>
        <pt x="203" y="155" on="0"/>
        <pt x="150" y="34" on="0"/>
        <pt x="81" y="-10" on="0"/>
        <pt x="44" y="-10" on="1"/>
        <pt x="33" y="-10" on="0"/>
        <pt x="5" y="-5" on="0"/>
        <pt x="-6" y="-1" on="1"/>
        <pt x="-6" y="24" on="1"/>
        <pt x="16" y="25" on="0"/>
        <pt x="58" y="42" on="0"/>
        <pt x="94" y="84" on="0"/>
        <pt x="125" y="156" on="0"/>
        <pt x="146" y="269" on="0"/>
        <pt x="159" y="430" on="0"/>
        <pt x="159" y="540" on="1"/>
        <pt x="159" y="585" on="0"/>
        <pt x="134" y="640" on="0"/>
        <pt x="89" y="640" on="1"/>
        <pt x="79" y="640" on="1"/>
        <pt x="79" y="660" on="1"/>
      </contour>
    </TTGlyph>
    <TTGlyph name="afii10059" xMin="16" yMin="0" xMax="951" yMax="660">
      <contour>
        <pt x="576" y="360" on="1"/>
        <pt x="686" y="360" on="1"/>
        <pt x="729" y="360" on="0"/>
        <pt x="823" y="346" on="0"/>
        <pt x="901" y="307" on="0"/>
        <pt x="951" y="236" on="0"/>
        <pt x="951" y="180" on="1"/>
        <pt x="951" y="124" on="0"/>
        <pt x="901" y="53" on="0"/>
        <pt x="823" y="14" on="0"/>
        <pt x="729" y="0" on="0"/>
        <pt x="686" y="0" on="1"/>
        <pt x="486" y="0" on="1"/>
        <pt x="486" y="320" on="1"/>
        <pt x="196" y="320" on="1"/>
        <pt x="196" y="0" on="1"/>
        <pt x="106" y="0" on="1"/>
        <pt x="106" y="540" on="1"/>
        <pt x="106" y="585" on="0"/>
        <pt x="81" y="640" on="0"/>
        <pt x="36" y="640" on="1"/>
        <pt x="16" y="640" on="1"/>
        <pt x="16" y="660" on="1"/>
        <pt x="106" y="660" on="1"/>
        <pt x="132" y="660" on="0"/>
        <pt x="167" y="651" on="0"/>
        <pt x="188" y="624" on="0"/>
        <pt x="196" y="577" on="0"/>
        <pt x="196" y="540" on="1"/>
        <pt x="196" y="360" on="1"/>
        <pt x="486" y="360" on="1"/>
        <pt x="486" y="660" on="1"/>
        <pt x="576" y="660" on="1"/>
      </contour>
      <contour>
        <pt x="851" y="180" on="1"/>
        <pt x="851" y="252" on="0"/>
        <pt x="754" y="325" on="0"/>
        <pt x="671" y="325" on="1"/>
        <pt x="648" y="325" on="0"/>
        <pt x="599" y="318" on="0"/>
        <pt x="576" y="310" on="1"/>
        <pt x="576" y="50" on="1"/>
        <pt x="599" y="42" on="0"/>
        <pt x="648" y="35" on="0"/>
        <pt x="671" y="35" on="1"/>
        <pt x="754" y="35" on="0"/>
        <pt x="851" y="108" on="0"/>
      </contour>
    </TTGlyph>
    <TTGlyph name="afii10060" xMin="-1" yMin="0" xMax="589" yMax="660">
      <contour>
        <pt x="219" y="0" on="1"/>
        <pt x="129" y="0" on="1"/>
        <pt x="129" y="620" on="1"/>
        <pt x="-1" y="620" on="1"/>
        <pt x="-1" y="660" on="1"/>
        <pt x="349" y="660" on="1"/>
        <pt x="349" y="620" on="1"/>
        <pt x="219" y="620" on="1"/>
        <pt x="219" y="390" on="1"/>
        <pt x="242" y="405" on="0"/>
        <pt x="336" y="430" on="0"/>
        <pt x="389" y="430" on="1"/>
        <pt x="428" y="430" on="0"/>
        <pt x="501" y="415" on="0"/>
        <pt x="556" y="374" on="0"/>
        <pt x="589" y="304" on="0"/>
        <pt x="589" y="250" on="1"/>
        <pt x="589" y="0" on="1"/>
        <pt x="499" y="0" on="1"/>
        <pt x="499" y="250" on="1"/>
        <pt x="499" y="287" on="0"/>
        <pt x="476" y="339" on="0"/>
        <pt x="438" y="371" on="0"/>
        <pt x="387" y="385" on="0"/>
        <pt x="359" y="385" on="1"/>
        <pt x="321" y="385" on="0"/>
        <pt x="242" y="360" on="0"/>
        <pt x="219" y="345" on="1"/>
      </contour>
    </TTGlyph>
    <TTGlyph name="afii10061" xMin="16" yMin="-10" xMax="686" yMax="790">
      <contour>
        <pt x="106" y="660" on="1"/>
        <pt x="132" y="660" on="0"/>
        <pt x="167" y="651" on="0"/>
        <pt x="188" y="624" on="0"/>
        <pt x="196" y="577" on="0"/>
        <pt x="196" y="540" on="1"/>
        <pt x="196" y="345" on="1"/>
        <pt x="406" y="555" on="1"/>
        <pt x="425" y="574" on="0"/>
        <pt x="460" y="611" on="0"/>
        <pt x="499" y="641" on="0"/>
        <pt x="546" y="660" on="0"/>
        <pt x="576" y="660" on="1"/>
        <pt x="626" y="660" on="1"/>
        <pt x="626" y="635" on="1"/>
        <pt x="585" y="635" on="0"/>
        <pt x="522" y="606" on="0"/>
        <pt x="481" y="565" on="1"/>
        <pt x="286" y="370" on="1"/>
        <pt x="516" y="130" on="1"/>
        <pt x="537" y="109" on="0"/>
        <pt x="581" y="71" on="0"/>
        <pt x="624" y="41" on="0"/>
        <pt x="667" y="22" on="0"/>
        <pt x="686" y="19" on="1"/>
        <pt x="686" y="0" on="1"/>
        <pt x="675" y="-4" on="0"/>
        <pt x="644" y="-10" on="0"/>
        <pt x="621" y="-10" on="1"/>
        <pt x="600" y="-10" on="0"/>
        <pt x="555" y="-1" on="0"/>
        <pt x="502" y="26" on="0"/>
        <pt x="442" y="72" on="0"/>
        <pt x="406" y="110" on="1"/>
        <pt x="196" y="330" on="1"/>
        <pt x="196" y="0" on="1"/>
        <pt x="106" y="0" on="1"/>
        <pt x="106" y="540" on="1"/>
        <pt x="106" y="585" on="0"/>
        <pt x="81" y="640" on="0"/>
        <pt x="36" y="640" on="1"/>
        <pt x="16" y="640" on="1"/>
        <pt x="16" y="660" on="1"/>
      </contour>
      <contour>
        <pt x="326" y="675" on="1"/>
        <pt x="276" y="675" on="1"/>
        <pt x="346" y="790" on="1"/>
        <pt x="431" y="790" on="1"/>
      </contour>
    </TTGlyph>
    <TTGlyph name="afii10062" xMin="-28" yMin="-10" xMax="587" yMax="805">
      <component glyphName="afii10037" x="0" y="0" flags="0x204"/>
      <component glyphName="Breve" x="217" y="0" flags="0x4"/>
    </TTGlyph>
    <TTGlyph name="afii10065" xMin="39" yMin="-10" xMax="414" yMax="480">
      <component glyphName="a" x="0" y="0" flags="0x204"/>
    </TTGlyph>
    <TTGlyph name="afii10066" xMin="60" yMin="-10" xMax="480" yMax="680">
      <contour>
        <pt x="270" y="400" on="1"/>
        <pt x="247" y="400" on="0"/>
        <pt x="206" y="382" on="0"/>
        <pt x="174" y="338" on="0"/>
        <pt x="155" y="267" on="0"/>
        <pt x="155" y="215" on="1"/>
        <pt x="155" y="161" on="0"/>
        <pt x="174" y="89" on="0"/>
        <pt x="206" y="47" on="0"/>
        <pt x="247" y="30" on="0"/>
        <pt x="270" y="30" on="1"/>
        <pt x="292" y="30" on="0"/>
        <pt x="334" y="47" on="0"/>
        <pt x="366" y="89" on="0"/>
        <pt x="385" y="161" on="0"/>
        <pt x="385" y="215" on="1"/>
        <pt x="385" y="267" on="0"/>
        <pt x="366" y="338" on="0"/>
        <pt x="334" y="382" on="0"/>
        <pt x="292" y="400" on="0"/>
      </contour>
      <contour>
        <pt x="245" y="530" on="1"/>
        <pt x="213" y="522" on="0"/>
        <pt x="164" y="495" on="0"/>
        <pt x="129" y="444" on="0"/>
        <pt x="109" y="362" on="0"/>
        <pt x="105" y="300" on="1"/>
        <pt x="110" y="300" on="1"/>
        <pt x="129" y="375" on="0"/>
        <pt x="215" y="440" on="0"/>
        <pt x="290" y="440" on="1"/>
        <pt x="327" y="440" on="0"/>
        <pt x="396" y="413" on="0"/>
        <pt x="449" y="358" on="0"/>
        <pt x="480" y="273" on="0"/>
        <pt x="480" y="215" on="1"/>
        <pt x="480" y="157" on="0"/>
        <pt x="448" y="72" on="0"/>
        <pt x="392" y="17" on="0"/>
        <pt x="315" y="-10" on="0"/>
        <pt x="270" y="-10" on="1"/>
        <pt x="225" y="-10" on="0"/>
        <pt x="148" y="17" on="0"/>
        <pt x="92" y="75" on="0"/>
        <pt x="60" y="166" on="0"/>
        <pt x="60" y="230" on="1"/>
        <pt x="60" y="270" on="1"/>
        <pt x="60" y="362" on="0"/>
        <pt x="76" y="481" on="0"/>
        <pt x="110" y="554" on="0"/>
        <pt x="166" y="591" on="0"/>
        <pt x="205" y="600" on="1"/>
        <pt x="355" y="635" on="1"/>
        <pt x="389" y="643" on="0"/>
        <pt x="426" y="661" on="0"/>
        <pt x="430" y="680" on="1"/>
        <pt x="450" y="680" on="1"/>
        <pt x="450" y="615" on="1"/>
        <pt x="450" y="577" on="0"/>
        <pt x="420" y="570" on="1"/>
      </contour>
    </TTGlyph>
    <TTGlyph name="afii10067" xMin="2" yMin="0" xMax="457" yMax="470">
      <contour>
        <pt x="172" y="225" on="1"/>
        <pt x="172" y="45" on="1"/>
        <pt x="183" y="41" on="0"/>
        <pt x="222" y="35" on="0"/>
        <pt x="237" y="35" on="1"/>
        <pt x="297" y="35" on="0"/>
        <pt x="362" y="81" on="0"/>
        <pt x="362" y="130" on="1"/>
        <pt x="362" y="225" on="0"/>
        <pt x="227" y="225" on="1"/>
      </contour>
      <contour>
        <pt x="172" y="265" on="1"/>
        <pt x="227" y="265" on="1"/>
        <pt x="280" y="265" on="0"/>
        <pt x="342" y="308" on="0"/>
        <pt x="342" y="350" on="1"/>
        <pt x="342" y="392" on="0"/>
        <pt x="282" y="435" on="0"/>
        <pt x="237" y="435" on="1"/>
        <pt x="222" y="435" on="0"/>
        <pt x="183" y="429" on="0"/>
        <pt x="172" y="425" on="1"/>
      </contour>
      <contour>
        <pt x="247" y="470" on="1"/>
        <pt x="284" y="470" on="0"/>
        <pt x="353" y="458" on="0"/>
        <pt x="406" y="430" on="0"/>
        <pt x="437" y="384" on="0"/>
        <pt x="437" y="350" on="1"/>
        <pt x="437" y="308" on="0"/>
        <pt x="390" y="256" on="0"/>
        <pt x="337" y="245" on="1"/>
        <pt x="394" y="234" on="0"/>
        <pt x="457" y="175" on="0"/>
        <pt x="457" y="130" on="1"/>
        <pt x="457" y="92" on="0"/>
        <pt x="425" y="42" on="0"/>
        <pt x="369" y="12" on="0"/>
        <pt x="292" y="0" on="0"/>
        <pt x="247" y="0" on="1"/>
        <pt x="82" y="0" on="1"/>
        <pt x="82" y="350" on="1"/>
        <pt x="82" y="395" on="0"/>
        <pt x="57" y="450" on="0"/>
        <pt x="12" y="450" on="1"/>
        <pt x="2" y="450" on="1"/>
        <pt x="2" y="470" on="1"/>
      </contour>
    </TTGlyph>
    <TTGlyph name="afii10068" xMin="2" yMin="0" xMax="407" yMax="470">
      <contour>
        <pt x="82" y="350" on="1"/>
        <pt x="82" y="395" on="0"/>
        <pt x="57" y="450" on="0"/>
        <pt x="12" y="450" on="1"/>
        <pt x="2" y="450" on="1"/>
        <pt x="2" y="470" on="1"/>
        <pt x="332" y="470" on="1"/>
        <pt x="354" y="470" on="0"/>
        <pt x="384" y="456" on="0"/>
        <pt x="400" y="434" on="0"/>
        <pt x="407" y="405" on="0"/>
        <pt x="407" y="390" on="1"/>
        <pt x="407" y="330" on="1"/>
        <pt x="387" y="330" on="1"/>
        <pt x="387" y="379" on="0"/>
        <pt x="327" y="430" on="0"/>
        <pt x="282" y="430" on="1"/>
        <pt x="172" y="430" on="1"/>
        <pt x="172" y="0" on="1"/>
        <pt x="82" y="0" on="1"/>
      </contour>
    </TTGlyph>
    <TTGlyph name="afii10069" xMin="16" yMin="-155" xMax="546" yMax="470">
      <contour>
        <pt x="141" y="350" on="1"/>
        <pt x="141" y="395" on="0"/>
        <pt x="116" y="450" on="0"/>
        <pt x="71" y="450" on="1"/>
        <pt x="71" y="470" on="1"/>
        <pt x="471" y="470" on="1"/>
        <pt x="471" y="40" on="1"/>
        <pt x="511" y="40" on="1"/>
        <pt x="526" y="40" on="0"/>
        <pt x="546" y="20" on="0"/>
        <pt x="546" y="5" on="1"/>
        <pt x="546" y="-155" on="1"/>
        <pt x="506" y="-155" on="1"/>
        <pt x="498" y="-72" on="0"/>
        <pt x="450" y="0" on="0"/>
        <pt x="401" y="0" on="1"/>
        <pt x="161" y="0" on="1"/>
        <pt x="112" y="0" on="0"/>
        <pt x="64" y="-72" on="0"/>
        <pt x="56" y="-155" on="1"/>
        <pt x="16" y="-155" on="1"/>
        <pt x="16" y="5" on="1"/>
        <pt x="16" y="20" on="0"/>
        <pt x="36" y="40" on="0"/>
        <pt x="51" y="40" on="1"/>
        <pt x="81" y="40" on="1"/>
        <pt x="98" y="77" on="0"/>
        <pt x="121" y="158" on="0"/>
        <pt x="135" y="239" on="0"/>
        <pt x="141" y="316" on="0"/>
      </contour>
      <contour>
        <pt x="381" y="40" on="1"/>
        <pt x="381" y="430" on="1"/>
        <pt x="206" y="430" on="1"/>
        <pt x="206" y="302" on="0"/>
        <pt x="181" y="115" on="0"/>
        <pt x="151" y="40" on="1"/>
      </contour>
    </TTGlyph>
    <TTGlyph name="afii10070" xMin="45" yMin="-10" xMax="445" yMax="480">
      <component glyphName="e" x="0" y="0" flags="0x204"/>
    </TTGlyph>
    <TTGlyph name="afii10071" xMin="45" yMin="-10" xMax="445" yMax="625">
      <component glyphName="e" x="0" y="0" flags="0x204"/>
      <component glyphName="dieresis.alt1" x="120" y="0" flags="0x4"/>
    </TTGlyph>
    <TTGlyph name="afii10072" xMin="8" yMin="-10" xMax="678" yMax="470">
      <contour>
        <pt x="298" y="470" on="1"/>
        <pt x="388" y="470" on="1"/>
        <pt x="388" y="230" on="1"/>
        <pt x="493" y="405" on="1"/>
        <pt x="512" y="436" on="0"/>
        <pt x="574" y="470" on="0"/>
        <pt x="623" y="470" on="1"/>
        <pt x="648" y="470" on="1"/>
        <pt x="648" y="445" on="1"/>
        <pt x="618" y="445" on="0"/>
        <pt x="567" y="423" on="0"/>
        <pt x="553" y="400" on="1"/>
        <pt x="458" y="245" on="1"/>
        <pt x="563" y="100" on="1"/>
        <pt x="589" y="63" on="0"/>
        <pt x="644" y="24" on="0"/>
        <pt x="678" y="19" on="1"/>
        <pt x="678" y="0" on="1"/>
        <pt x="670" y="-4" on="0"/>
        <pt x="643" y="-10" on="0"/>
        <pt x="628" y="-10" on="1"/>
        <pt x="590" y="-10" on="0"/>
        <pt x="523" y="28" on="0"/>
        <pt x="493" y="70" on="1"/>
        <pt x="388" y="215" on="1"/>
        <pt x="388" y="0" on="1"/>
        <pt x="298" y="0" on="1"/>
        <pt x="298" y="215" on="1"/>
        <pt x="193" y="70" on="1"/>
        <pt x="163" y="28" on="0"/>
        <pt x="96" y="-10" on="0"/>
        <pt x="58" y="-10" on="1"/>
        <pt x="43" y="-10" on="0"/>
        <pt x="16" y="-4" on="0"/>
        <pt x="8" y="0" on="1"/>
        <pt x="8" y="19" on="1"/>
        <pt x="42" y="24" on="0"/>
        <pt x="97" y="63" on="0"/>
        <pt x="123" y="100" on="1"/>
        <pt x="228" y="245" on="1"/>
        <pt x="133" y="400" on="1"/>
        <pt x="119" y="423" on="0"/>
        <pt x="68" y="445" on="0"/>
        <pt x="38" y="445" on="1"/>
        <pt x="38" y="470" on="1"/>
        <pt x="63" y="470" on="1"/>
        <pt x="112" y="470" on="0"/>
        <pt x="174" y="436" on="0"/>
        <pt x="193" y="405" on="1"/>
        <pt x="298" y="230" on="1"/>
      </contour>
    </TTGlyph>
    <TTGlyph name="afii10073" xMin="36" yMin="-10" xMax="411" yMax="480">
      <contour>
        <pt x="131" y="260" on="1"/>
        <pt x="176" y="260" on="1"/>
        <pt x="236" y="260" on="0"/>
        <pt x="301" y="305" on="0"/>
        <pt x="301" y="350" on="1"/>
        <pt x="301" y="395" on="0"/>
        <pt x="243" y="440" on="0"/>
        <pt x="201" y="440" on="1"/>
        <pt x="147" y="440" on="0"/>
        <pt x="74" y="384" on="0"/>
        <pt x="71" y="335" on="1"/>
        <pt x="51" y="335" on="1"/>
        <pt x="51" y="377" on="0"/>
        <pt x="57" y="426" on="0"/>
        <pt x="76" y="445" on="1"/>
        <pt x="95" y="464" on="0"/>
        <pt x="167" y="480" on="0"/>
        <pt x="216" y="480" on="1"/>
        <pt x="250" y="480" on="0"/>
        <pt x="314" y="467" on="0"/>
        <pt x="365" y="437" on="0"/>
        <pt x="396" y="387" on="0"/>
        <pt x="396" y="350" on="1"/>
        <pt x="396" y="305" on="0"/>
        <pt x="341" y="251" on="0"/>
        <pt x="296" y="240" on="1"/>
        <pt x="350" y="229" on="0"/>
        <pt x="411" y="170" on="0"/>
        <pt x="411" y="125" on="1"/>
        <pt x="411" y="86" on="0"/>
        <pt x="379" y="34" on="0"/>
        <pt x="325" y="3" on="0"/>
        <pt x="252" y="-10" on="0"/>
        <pt x="211" y="-10" on="1"/>
        <pt x="177" y="-10" on="0"/>
        <pt x="124" y="2" on="0"/>
        <pt x="82" y="24" on="0"/>
        <pt x="49" y="53" on="0"/>
        <pt x="36" y="70" on="1"/>
        <pt x="56" y="85" on="1"/>
        <pt x="65" y="76" on="0"/>
        <pt x="89" y="56" on="0"/>
        <pt x="121" y="40" on="0"/>
        <pt x="163" y="30" on="0"/>
        <pt x="191" y="30" on="1"/>
        <pt x="251" y="30" on="0"/>
        <pt x="316" y="76" on="0"/>
        <pt x="316" y="125" on="1"/>
        <pt x="316" y="220" on="0"/>
        <pt x="176" y="220" on="1"/>
        <pt x="131" y="220" on="1"/>
      </contour>
    </TTGlyph>
    <TTGlyph name="afii10074" xMin="1" yMin="0" xMax="476" yMax="470">
      <contour>
        <pt x="386" y="380" on="1"/>
        <pt x="176" y="0" on="1"/>
        <pt x="86" y="0" on="1"/>
        <pt x="86" y="350" on="1"/>
        <pt x="86" y="395" on="0"/>
        <pt x="61" y="450" on="0"/>
        <pt x="16" y="450" on="1"/>
        <pt x="1" y="450" on="1"/>
        <pt x="1" y="470" on="1"/>
        <pt x="86" y="470" on="1"/>
        <pt x="112" y="470" on="0"/>
        <pt x="147" y="461" on="0"/>
        <pt x="168" y="434" on="0"/>
        <pt x="176" y="387" on="0"/>
        <pt x="176" y="350" on="1"/>
        <pt x="176" y="90" on="1"/>
        <pt x="386" y="470" on="1"/>
        <pt x="476" y="470" on="1"/>
        <pt x="476" y="0" on="1"/>
        <pt x="386" y="0" on="1"/>
      </contour>
    </TTGlyph>
    <TTGlyph name="afii10075" xMin="1" yMin="0" xMax="476" yMax="616">
      <component glyphName="afii10074" x="0" y="0" flags="0x204"/>
      <component glyphName="breve" x="151" y="0" flags="0x4"/>
    </TTGlyph>
    <TTGlyph name="afii10076" xMin="-1" yMin="-10" xMax="489" yMax="470">
      <contour>
        <pt x="179" y="230" on="1"/>
        <pt x="304" y="405" on="1"/>
        <pt x="326" y="435" on="0"/>
        <pt x="385" y="470" on="0"/>
        <pt x="434" y="470" on="1"/>
        <pt x="459" y="470" on="1"/>
        <pt x="459" y="445" on="1"/>
        <pt x="436" y="445" on="0"/>
        <pt x="388" y="426" on="0"/>
        <pt x="369" y="400" on="1"/>
        <pt x="259" y="245" on="1"/>
        <pt x="374" y="100" on="1"/>
        <pt x="400" y="66" on="0"/>
        <pt x="455" y="24" on="0"/>
        <pt x="489" y="19" on="1"/>
        <pt x="489" y="0" on="1"/>
        <pt x="481" y="-4" on="0"/>
        <pt x="454" y="-10" on="0"/>
        <pt x="439" y="-10" on="1"/>
        <pt x="401" y="-10" on="0"/>
        <pt x="328" y="28" on="0"/>
        <pt x="294" y="70" on="1"/>
        <pt x="179" y="215" on="1"/>
        <pt x="179" y="0" on="1"/>
        <pt x="89" y="0" on="1"/>
        <pt x="89" y="350" on="1"/>
        <pt x="89" y="395" on="0"/>
        <pt x="64" y="450" on="0"/>
        <pt x="19" y="450" on="1"/>
        <pt x="-1" y="450" on="1"/>
        <pt x="-1" y="470" on="1"/>
        <pt x="89" y="470" on="1"/>
        <pt x="115" y="470" on="0"/>
        <pt x="150" y="461" on="0"/>
        <pt x="171" y="434" on="0"/>
        <pt x="179" y="387" on="0"/>
        <pt x="179" y="350" on="1"/>
      </contour>
    </TTGlyph>
    <TTGlyph name="afii10077" xMin="9" yMin="-10" xMax="474" yMax="470">
      <contour>
        <pt x="208" y="350" on="1"/>
        <pt x="208" y="237" on="0"/>
        <pt x="182" y="97" on="0"/>
        <pt x="140" y="18" on="0"/>
        <pt x="86" y="-10" on="0"/>
        <pt x="58" y="-10" on="1"/>
        <pt x="50" y="-10" on="0"/>
        <pt x="17" y="-4" on="0"/>
        <pt x="9" y="-1" on="1"/>
        <pt x="9" y="24" on="1"/>
        <pt x="33" y="24" on="0"/>
        <pt x="80" y="49" on="0"/>
        <pt x="117" y="119" on="0"/>
        <pt x="139" y="247" on="0"/>
        <pt x="139" y="350" on="1"/>
        <pt x="139" y="372" on="0"/>
        <pt x="134" y="409" on="0"/>
        <pt x="119" y="436" on="0"/>
        <pt x="91" y="450" on="0"/>
        <pt x="68" y="450" on="1"/>
        <pt x="68" y="470" on="1"/>
        <pt x="474" y="470" on="1"/>
        <pt x="474" y="0" on="1"/>
        <pt x="384" y="0" on="1"/>
        <pt x="384" y="430" on="1"/>
        <pt x="208" y="430" on="1"/>
      </contour>
    </TTGlyph>
    <TTGlyph name="afii10078" xMin="72" yMin="-20" xMax="632" yMax="470">
      <contour>
        <pt x="302" y="0" on="1"/>
        <pt x="282" y="0" on="1"/>
        <pt x="112" y="375" on="1"/>
        <pt x="112" y="0" on="1"/>
        <pt x="72" y="0" on="1"/>
        <pt x="72" y="470" on="1"/>
        <pt x="167" y="470" on="1"/>
        <pt x="317" y="140" on="1"/>
        <pt x="467" y="470" on="1"/>
        <pt x="557" y="470" on="1"/>
        <pt x="557" y="150" on="1"/>
        <pt x="557" y="122" on="0"/>
        <pt x="568" y="68" on="0"/>
        <pt x="587" y="26" on="0"/>
        <pt x="615" y="0" on="0"/>
        <pt x="632" y="0" on="1"/>
        <pt x="632" y="-20" on="1"/>
        <pt x="585" y="-20" on="0"/>
        <pt x="522" y="4" on="0"/>
        <pt x="483" y="48" on="0"/>
        <pt x="467" y="111" on="0"/>
        <pt x="467" y="150" on="1"/>
        <pt x="467" y="365" on="1"/>
      </contour>
    </TTGlyph>
    <TTGlyph name="afii10079" xMin="1" yMin="0" xMax="551" yMax="470">
      <contour>
        <pt x="376" y="215" on="1"/>
        <pt x="176" y="215" on="1"/>
        <pt x="176" y="0" on="1"/>
        <pt x="86" y="0" on="1"/>
        <pt x="86" y="350" on="1"/>
        <pt x="86" y="395" on="0"/>
        <pt x="61" y="450" on="0"/>
        <pt x="16" y="450" on="1"/>
        <pt x="1" y="450" on="1"/>
        <pt x="1" y="470" on="1"/>
        <pt x="86" y="470" on="1"/>
        <pt x="112" y="470" on="0"/>
        <pt x="147" y="461" on="0"/>
        <pt x="168" y="434" on="0"/>
        <pt x="176" y="387" on="0"/>
        <pt x="176" y="350" on="1"/>
        <pt x="176" y="255" on="1"/>
        <pt x="376" y="255" on="1"/>
        <pt x="376" y="470" on="1"/>
        <pt x="466" y="470" on="1"/>
        <pt x="466" y="120" on="1"/>
        <pt x="466" y="75" on="0"/>
        <pt x="491" y="20" on="0"/>
        <pt x="536" y="20" on="1"/>
        <pt x="551" y="20" on="1"/>
        <pt x="551" y="0" on="1"/>
        <pt x="466" y="0" on="1"/>
        <pt x="440" y="0" on="0"/>
        <pt x="405" y="9" on="0"/>
        <pt x="384" y="36" on="0"/>
        <pt x="376" y="82" on="0"/>
        <pt x="376" y="120" on="1"/>
      </contour>
    </TTGlyph>
    <TTGlyph name="afii10080" xMin="45" yMin="-10" xMax="485" yMax="480">
      <component glyphName="o" x="0" y="0" flags="0x204"/>
    </TTGlyph>
    <TTGlyph name="afii10081" xMin="2" yMin="0" xMax="462" yMax="470">
      <contour>
        <pt x="462" y="0" on="1"/>
        <pt x="372" y="0" on="1"/>
        <pt x="372" y="430" on="1"/>
        <pt x="172" y="430" on="1"/>
        <pt x="172" y="0" on="1"/>
        <pt x="82" y="0" on="1"/>
        <pt x="82" y="350" on="1"/>
        <pt x="82" y="395" on="0"/>
        <pt x="57" y="450" on="0"/>
        <pt x="12" y="450" on="1"/>
        <pt x="2" y="450" on="1"/>
        <pt x="2" y="470" on="1"/>
        <pt x="462" y="470" on="1"/>
      </contour>
    </TTGlyph>
    <TTGlyph name="afii10082" xMin="-3" yMin="-190" xMax="492" yMax="480">
      <component glyphName="p" x="0" y="0" flags="0x204"/>
    </TTGlyph>
    <TTGlyph name="afii10083" xMin="45" yMin="-10" xMax="450" yMax="480">
      <component glyphName="c" x="0" y="0" flags="0x204"/>
    </TTGlyph>
    <TTGlyph name="afii10084" xMin="29" yMin="0" xMax="459" yMax="470">
      <contour>
        <pt x="154" y="430" on="1"/>
        <pt x="109" y="430" on="0"/>
        <pt x="49" y="379" on="0"/>
        <pt x="49" y="330" on="1"/>
        <pt x="29" y="330" on="1"/>
        <pt x="29" y="390" on="1"/>
        <pt x="29" y="405" on="0"/>
        <pt x="36" y="434" on="0"/>
        <pt x="52" y="456" on="0"/>
        <pt x="81" y="470" on="0"/>
        <pt x="104" y="470" on="1"/>
        <pt x="459" y="470" on="1"/>
        <pt x="459" y="430" on="1"/>
        <pt x="294" y="430" on="1"/>
        <pt x="294" y="0" on="1"/>
        <pt x="204" y="0" on="1"/>
        <pt x="204" y="430" on="1"/>
      </contour>
    </TTGlyph>
    <TTGlyph name="afii10085" xMin="-10" yMin="-200" xMax="485" yMax="480">
      <component glyphName="y" x="0" y="0" flags="0x204"/>
    </TTGlyph>
    <TTGlyph name="afii10086" xMin="46" yMin="-190" xMax="616" yMax="660">
      <contour>
        <pt x="375" y="25" on="1"/>
        <pt x="451" y="33" on="0"/>
        <pt x="521" y="144" on="0"/>
        <pt x="521" y="235" on="1"/>
        <pt x="521" y="326" on="0"/>
        <pt x="451" y="437" on="0"/>
        <pt x="375" y="445" on="1"/>
      </contour>
      <contour>
        <pt x="286" y="540" on="1"/>
        <pt x="286" y="585" on="0"/>
        <pt x="261" y="640" on="0"/>
        <pt x="216" y="640" on="1"/>
        <pt x="201" y="640" on="1"/>
        <pt x="201" y="660" on="1"/>
        <pt x="286" y="660" on="1"/>
        <pt x="312" y="660" on="0"/>
        <pt x="347" y="651" on="0"/>
        <pt x="368" y="624" on="0"/>
        <pt x="376" y="577" on="0"/>
        <pt x="376" y="540" on="1"/>
        <pt x="376" y="480" on="1"/>
        <pt x="436" y="478" on="0"/>
        <pt x="526" y="439" on="0"/>
        <pt x="586" y="373" on="0"/>
        <pt x="616" y="286" on="0"/>
        <pt x="616" y="235" on="1"/>
        <pt x="616" y="184" on="0"/>
        <pt x="586" y="97" on="0"/>
        <pt x="526" y="31" on="0"/>
        <pt x="436" y="-8" on="0"/>
        <pt x="376" y="-10" on="1"/>
        <pt x="376" y="-190" on="1"/>
        <pt x="286" y="-190" on="1"/>
        <pt x="286" y="-10" on="1"/>
        <pt x="226" y="-8" on="0"/>
        <pt x="136" y="31" on="0"/>
        <pt x="76" y="97" on="0"/>
        <pt x="46" y="184" on="0"/>
        <pt x="46" y="235" on="1"/>
        <pt x="46" y="286" on="0"/>
        <pt x="76" y="373" on="0"/>
        <pt x="136" y="439" on="0"/>
        <pt x="226" y="478" on="0"/>
        <pt x="286" y="480" on="1"/>
      </contour>
      <contour>
        <pt x="287" y="445" on="1"/>
        <pt x="211" y="437" on="0"/>
        <pt x="141" y="326" on="0"/>
        <pt x="141" y="235" on="1"/>
        <pt x="141" y="144" on="0"/>
        <pt x="211" y="33" on="0"/>
        <pt x="287" y="25" on="1"/>
      </contour>
    </TTGlyph>
    <TTGlyph name="afii10087" xMin="8" yMin="0" xMax="483" yMax="470">
      <component glyphName="x" x="0" y="0" flags="0x204"/>
    </TTGlyph>
    <TTGlyph name="afii10088" xMin="1" yMin="-155" xMax="541" yMax="470">
      <contour>
        <pt x="86" y="0" on="1"/>
        <pt x="86" y="350" on="1"/>
        <pt x="86" y="395" on="0"/>
        <pt x="61" y="450" on="0"/>
        <pt x="16" y="450" on="1"/>
        <pt x="1" y="450" on="1"/>
        <pt x="1" y="470" on="1"/>
        <pt x="86" y="470" on="1"/>
        <pt x="112" y="470" on="0"/>
        <pt x="147" y="461" on="0"/>
        <pt x="168" y="434" on="0"/>
        <pt x="176" y="387" on="0"/>
        <pt x="176" y="350" on="1"/>
        <pt x="176" y="40" on="1"/>
        <pt x="376" y="40" on="1"/>
        <pt x="376" y="470" on="1"/>
        <pt x="466" y="470" on="1"/>
        <pt x="466" y="40" on="1"/>
        <pt x="506" y="40" on="1"/>
        <pt x="521" y="40" on="0"/>
        <pt x="541" y="20" on="0"/>
        <pt x="541" y="5" on="1"/>
        <pt x="541" y="-155" on="1"/>
        <pt x="501" y="-155" on="1"/>
        <pt x="493" y="-72" on="0"/>
        <pt x="445" y="0" on="0"/>
        <pt x="396" y="0" on="1"/>
      </contour>
    </TTGlyph>
    <TTGlyph name="afii10089" xMin="11" yMin="0" xMax="461" yMax="470">
      <contour>
        <pt x="276" y="215" on="1"/>
        <pt x="306" y="215" on="0"/>
        <pt x="356" y="227" on="0"/>
        <pt x="371" y="233" on="1"/>
        <pt x="371" y="470" on="1"/>
        <pt x="461" y="470" on="1"/>
        <pt x="461" y="0" on="1"/>
        <pt x="371" y="0" on="1"/>
        <pt x="371" y="193" on="1"/>
        <pt x="356" y="187" on="0"/>
        <pt x="305" y="175" on="0"/>
        <pt x="271" y="175" on="1"/>
        <pt x="239" y="175" on="0"/>
        <pt x="175" y="187" on="0"/>
        <pt x="123" y="218" on="0"/>
        <pt x="91" y="275" on="0"/>
        <pt x="91" y="320" on="1"/>
        <pt x="91" y="350" on="1"/>
        <pt x="91" y="395" on="0"/>
        <pt x="66" y="450" on="0"/>
        <pt x="21" y="450" on="1"/>
        <pt x="11" y="450" on="1"/>
        <pt x="11" y="470" on="1"/>
        <pt x="96" y="470" on="1"/>
        <pt x="122" y="470" on="0"/>
        <pt x="157" y="461" on="0"/>
        <pt x="178" y="434" on="0"/>
        <pt x="186" y="387" on="0"/>
        <pt x="186" y="350" on="1"/>
        <pt x="186" y="310" on="1"/>
        <pt x="186" y="284" on="0"/>
        <pt x="201" y="247" on="0"/>
        <pt x="227" y="225" on="0"/>
        <pt x="259" y="215" on="0"/>
      </contour>
    </TTGlyph>
    <TTGlyph name="afii10090" xMin="1" yMin="0" xMax="666" yMax="470">
      <contour>
        <pt x="86" y="0" on="1"/>
        <pt x="86" y="350" on="1"/>
        <pt x="86" y="395" on="0"/>
        <pt x="61" y="450" on="0"/>
        <pt x="16" y="450" on="1"/>
        <pt x="1" y="450" on="1"/>
        <pt x="1" y="470" on="1"/>
        <pt x="86" y="470" on="1"/>
        <pt x="112" y="470" on="0"/>
        <pt x="147" y="461" on="0"/>
        <pt x="168" y="434" on="0"/>
        <pt x="176" y="387" on="0"/>
        <pt x="176" y="350" on="1"/>
        <pt x="176" y="40" on="1"/>
        <pt x="331" y="40" on="1"/>
        <pt x="331" y="470" on="1"/>
        <pt x="421" y="470" on="1"/>
        <pt x="421" y="40" on="1"/>
        <pt x="576" y="40" on="1"/>
        <pt x="576" y="470" on="1"/>
        <pt x="666" y="470" on="1"/>
        <pt x="666" y="0" on="1"/>
      </contour>
    </TTGlyph>
    <TTGlyph name="afii10091" xMin="1" yMin="-155" xMax="741" yMax="470">
      <contour>
        <pt x="86" y="0" on="1"/>
        <pt x="86" y="350" on="1"/>
        <pt x="86" y="395" on="0"/>
        <pt x="61" y="450" on="0"/>
        <pt x="16" y="450" on="1"/>
        <pt x="1" y="450" on="1"/>
        <pt x="1" y="470" on="1"/>
        <pt x="86" y="470" on="1"/>
        <pt x="112" y="470" on="0"/>
        <pt x="147" y="461" on="0"/>
        <pt x="168" y="434" on="0"/>
        <pt x="176" y="387" on="0"/>
        <pt x="176" y="350" on="1"/>
        <pt x="176" y="40" on="1"/>
        <pt x="331" y="40" on="1"/>
        <pt x="331" y="470" on="1"/>
        <pt x="421" y="470" on="1"/>
        <pt x="421" y="40" on="1"/>
        <pt x="576" y="40" on="1"/>
        <pt x="576" y="470" on="1"/>
        <pt x="666" y="470" on="1"/>
        <pt x="666" y="40" on="1"/>
        <pt x="706" y="40" on="1"/>
        <pt x="721" y="40" on="0"/>
        <pt x="741" y="20" on="0"/>
        <pt x="741" y="5" on="1"/>
        <pt x="741" y="-155" on="1"/>
        <pt x="701" y="-155" on="1"/>
        <pt x="693" y="-72" on="0"/>
        <pt x="645" y="0" on="0"/>
        <pt x="596" y="0" on="1"/>
      </contour>
    </TTGlyph>
    <TTGlyph name="afii10092" xMin="35" yMin="0" xMax="555" yMax="470">
      <contour>
        <pt x="275" y="45" on="1"/>
        <pt x="286" y="41" on="0"/>
        <pt x="325" y="35" on="0"/>
        <pt x="340" y="35" on="1"/>
        <pt x="397" y="35" on="0"/>
        <pt x="460" y="83" on="0"/>
        <pt x="460" y="140" on="1"/>
        <pt x="460" y="197" on="0"/>
        <pt x="397" y="245" on="0"/>
        <pt x="340" y="245" on="1"/>
        <pt x="325" y="245" on="0"/>
        <pt x="286" y="239" on="0"/>
        <pt x="275" y="235" on="1"/>
      </contour>
      <contour>
        <pt x="35" y="435" on="1"/>
        <pt x="35" y="450" on="0"/>
        <pt x="55" y="470" on="0"/>
        <pt x="70" y="470" on="1"/>
        <pt x="275" y="470" on="1"/>
        <pt x="275" y="280" on="1"/>
        <pt x="350" y="280" on="1"/>
        <pt x="393" y="280" on="0"/>
        <pt x="468" y="267" on="0"/>
        <pt x="523" y="235" on="0"/>
        <pt x="555" y="181" on="0"/>
        <pt x="555" y="140" on="1"/>
        <pt x="555" y="99" on="0"/>
        <pt x="523" y="45" on="0"/>
        <pt x="468" y="13" on="0"/>
        <pt x="393" y="0" on="0"/>
        <pt x="350" y="0" on="1"/>
        <pt x="185" y="0" on="1"/>
        <pt x="185" y="430" on="1"/>
        <pt x="175" y="430" on="1"/>
        <pt x="122" y="430" on="0"/>
        <pt x="64" y="368" on="0"/>
        <pt x="60" y="300" on="1"/>
        <pt x="35" y="300" on="1"/>
      </contour>
    </TTGlyph>
    <TTGlyph name="afii10093" xMin="1" yMin="0" xMax="686" yMax="470">
      <contour>
        <pt x="176" y="45" on="1"/>
        <pt x="187" y="41" on="0"/>
        <pt x="226" y="35" on="0"/>
        <pt x="241" y="35" on="1"/>
        <pt x="290" y="35" on="0"/>
        <pt x="351" y="83" on="0"/>
        <pt x="351" y="140" on="1"/>
        <pt x="351" y="197" on="0"/>
        <pt x="290" y="245" on="0"/>
        <pt x="241" y="245" on="1"/>
        <pt x="226" y="245" on="0"/>
        <pt x="187" y="239" on="0"/>
        <pt x="176" y="235" on="1"/>
      </contour>
      <contour>
        <pt x="176" y="280" on="1"/>
        <pt x="251" y="280" on="1"/>
        <pt x="290" y="280" on="0"/>
        <pt x="361" y="267" on="0"/>
        <pt x="415" y="235" on="0"/>
        <pt x="446" y="181" on="0"/>
        <pt x="446" y="140" on="1"/>
        <pt x="446" y="99" on="0"/>
        <pt x="415" y="45" on="0"/>
        <pt x="361" y="13" on="0"/>
        <pt x="290" y="0" on="0"/>
        <pt x="251" y="0" on="1"/>
        <pt x="86" y="0" on="1"/>
        <pt x="86" y="350" on="1"/>
        <pt x="86" y="395" on="0"/>
        <pt x="61" y="450" on="0"/>
        <pt x="16" y="450" on="1"/>
        <pt x="1" y="450" on="1"/>
        <pt x="1" y="470" on="1"/>
        <pt x="86" y="470" on="1"/>
        <pt x="112" y="470" on="0"/>
        <pt x="147" y="461" on="0"/>
        <pt x="168" y="434" on="0"/>
        <pt x="176" y="387" on="0"/>
        <pt x="176" y="350" on="1"/>
      </contour>
      <contour>
        <pt x="511" y="470" on="1"/>
        <pt x="601" y="470" on="1"/>
        <pt x="601" y="120" on="1"/>
        <pt x="601" y="75" on="0"/>
        <pt x="626" y="20" on="0"/>
        <pt x="671" y="20" on="1"/>
        <pt x="686" y="20" on="1"/>
        <pt x="686" y="0" on="1"/>
        <pt x="601" y="0" on="1"/>
        <pt x="575" y="0" on="0"/>
        <pt x="540" y="9" on="0"/>
        <pt x="519" y="36" on="0"/>
        <pt x="511" y="82" on="0"/>
        <pt x="511" y="120" on="1"/>
      </contour>
    </TTGlyph>
    <TTGlyph name="afii10094" xMin="1" yMin="0" xMax="456" yMax="470">
      <contour>
        <pt x="176" y="45" on="1"/>
        <pt x="187" y="41" on="0"/>
        <pt x="226" y="35" on="0"/>
        <pt x="241" y="35" on="1"/>
        <pt x="298" y="35" on="0"/>
        <pt x="361" y="83" on="0"/>
        <pt x="361" y="140" on="1"/>
        <pt x="361" y="197" on="0"/>
        <pt x="298" y="245" on="0"/>
        <pt x="241" y="245" on="1"/>
        <pt x="226" y="245" on="0"/>
        <pt x="187" y="239" on="0"/>
        <pt x="176" y="235" on="1"/>
      </contour>
      <contour>
        <pt x="176" y="280" on="1"/>
        <pt x="251" y="280" on="1"/>
        <pt x="294" y="280" on="0"/>
        <pt x="369" y="267" on="0"/>
        <pt x="424" y="235" on="0"/>
        <pt x="456" y="181" on="0"/>
        <pt x="456" y="140" on="1"/>
        <pt x="456" y="99" on="0"/>
        <pt x="424" y="45" on="0"/>
        <pt x="369" y="13" on="0"/>
        <pt x="294" y="0" on="0"/>
        <pt x="251" y="0" on="1"/>
        <pt x="86" y="0" on="1"/>
        <pt x="86" y="350" on="1"/>
        <pt x="86" y="395" on="0"/>
        <pt x="61" y="450" on="0"/>
        <pt x="16" y="450" on="1"/>
        <pt x="1" y="450" on="1"/>
        <pt x="1" y="470" on="1"/>
        <pt x="86" y="470" on="1"/>
        <pt x="112" y="470" on="0"/>
        <pt x="147" y="461" on="0"/>
        <pt x="168" y="434" on="0"/>
        <pt x="176" y="387" on="0"/>
        <pt x="176" y="350" on="1"/>
      </contour>
    </TTGlyph>
    <TTGlyph name="afii10095" xMin="39" yMin="-10" xMax="444" yMax="480">
      <contour>
        <pt x="224" y="480" on="1"/>
        <pt x="280" y="480" on="0"/>
        <pt x="363" y="441" on="0"/>
        <pt x="417" y="375" on="0"/>
        <pt x="444" y="286" on="0"/>
        <pt x="444" y="235" on="1"/>
        <pt x="444" y="184" on="0"/>
        <pt x="417" y="95" on="0"/>
        <pt x="363" y="29" on="0"/>
        <pt x="280" y="-10" on="0"/>
        <pt x="224" y="-10" on="1"/>
        <pt x="164" y="-10" on="0"/>
        <pt x="73" y="38" on="0"/>
        <pt x="39" y="95" on="1"/>
        <pt x="59" y="110" on="1"/>
        <pt x="85" y="72" on="0"/>
        <pt x="151" y="30" on="0"/>
        <pt x="204" y="30" on="1"/>
        <pt x="238" y="30" on="0"/>
        <pt x="291" y="57" on="0"/>
        <pt x="327" y="105" on="0"/>
        <pt x="347" y="171" on="0"/>
        <pt x="349" y="210" on="1"/>
        <pt x="139" y="210" on="1"/>
        <pt x="139" y="250" on="1"/>
        <pt x="349" y="250" on="1"/>
        <pt x="347" y="289" on="0"/>
        <pt x="328" y="359" on="0"/>
        <pt x="292" y="410" on="0"/>
        <pt x="240" y="440" on="0"/>
        <pt x="204" y="440" on="1"/>
        <pt x="151" y="440" on="0"/>
        <pt x="78" y="379" on="0"/>
        <pt x="74" y="315" on="1"/>
        <pt x="54" y="315" on="1"/>
        <pt x="54" y="343" on="0"/>
        <pt x="55" y="384" on="0"/>
        <pt x="59" y="414" on="0"/>
        <pt x="70" y="436" on="0"/>
        <pt x="79" y="445" on="1"/>
        <pt x="98" y="464" on="0"/>
        <pt x="171" y="480" on="0"/>
      </contour>
    </TTGlyph>
    <TTGlyph name="afii10096" xMin="1" yMin="-10" xMax="646" yMax="480">
      <contour>
        <pt x="441" y="480" on="1"/>
        <pt x="488" y="480" on="0"/>
        <pt x="564" y="444" on="0"/>
        <pt x="617" y="380" on="0"/>
        <pt x="646" y="289" on="0"/>
        <pt x="646" y="235" on="1"/>
        <pt x="646" y="181" on="0"/>
        <pt x="617" y="90" on="0"/>
        <pt x="564" y="26" on="0"/>
        <pt x="488" y="-10" on="0"/>
        <pt x="441" y="-10" on="1"/>
        <pt x="396" y="-10" on="0"/>
        <pt x="323" y="22" on="0"/>
        <pt x="269" y="81" on="0"/>
        <pt x="238" y="164" on="0"/>
        <pt x="236" y="215" on="1"/>
        <pt x="176" y="215" on="1"/>
        <pt x="176" y="0" on="1"/>
        <pt x="86" y="0" on="1"/>
        <pt x="86" y="350" on="1"/>
        <pt x="86" y="395" on="0"/>
        <pt x="61" y="450" on="0"/>
        <pt x="16" y="450" on="1"/>
        <pt x="1" y="450" on="1"/>
        <pt x="1" y="470" on="1"/>
        <pt x="86" y="470" on="1"/>
        <pt x="112" y="470" on="0"/>
        <pt x="147" y="461" on="0"/>
        <pt x="168" y="434" on="0"/>
        <pt x="176" y="387" on="0"/>
        <pt x="176" y="350" on="1"/>
        <pt x="176" y="255" on="1"/>
        <pt x="236" y="255" on="1"/>
        <pt x="238" y="306" on="0"/>
        <pt x="269" y="389" on="0"/>
        <pt x="323" y="448" on="0"/>
        <pt x="396" y="480" on="0"/>
      </contour>
      <contour>
        <pt x="441" y="440" on="1"/>
        <pt x="392" y="440" on="0"/>
        <pt x="331" y="337" on="0"/>
        <pt x="331" y="235" on="1"/>
        <pt x="331" y="133" on="0"/>
        <pt x="392" y="30" on="0"/>
        <pt x="441" y="30" on="1"/>
        <pt x="490" y="30" on="0"/>
        <pt x="551" y="133" on="0"/>
        <pt x="551" y="235" on="1"/>
        <pt x="551" y="337" on="0"/>
        <pt x="490" y="440" on="0"/>
      </contour>
    </TTGlyph>
    <TTGlyph name="afii10097" xMin="17" yMin="-10" xMax="492" yMax="470">
      <contour>
        <pt x="422" y="0" on="1"/>
        <pt x="332" y="0" on="1"/>
        <pt x="332" y="200" on="1"/>
        <pt x="254" y="200" on="1"/>
        <pt x="194" y="80" on="1"/>
        <pt x="171" y="35" on="0"/>
        <pt x="115" y="-10" on="0"/>
        <pt x="72" y="-10" on="1"/>
        <pt x="57" y="-10" on="0"/>
        <pt x="28" y="-4" on="0"/>
        <pt x="17" y="0" on="1"/>
        <pt x="17" y="20" on="1"/>
        <pt x="34" y="22" on="0"/>
        <pt x="62" y="37" on="0"/>
        <pt x="86" y="60" on="0"/>
        <pt x="104" y="87" on="0"/>
        <pt x="112" y="100" on="1"/>
        <pt x="172" y="205" on="1"/>
        <pt x="149" y="209" on="0"/>
        <pt x="108" y="229" on="0"/>
        <pt x="76" y="262" on="0"/>
        <pt x="57" y="307" on="0"/>
        <pt x="57" y="335" on="1"/>
        <pt x="57" y="374" on="0"/>
        <pt x="89" y="426" on="0"/>
        <pt x="143" y="457" on="0"/>
        <pt x="216" y="470" on="0"/>
        <pt x="257" y="470" on="1"/>
        <pt x="492" y="470" on="1"/>
        <pt x="492" y="450" on="1"/>
        <pt x="447" y="450" on="0"/>
        <pt x="422" y="395" on="0"/>
        <pt x="422" y="350" on="1"/>
      </contour>
      <contour>
        <pt x="332" y="425" on="1"/>
        <pt x="321" y="429" on="0"/>
        <pt x="282" y="435" on="0"/>
        <pt x="267" y="435" on="1"/>
        <pt x="214" y="435" on="0"/>
        <pt x="152" y="388" on="0"/>
        <pt x="152" y="335" on="1"/>
        <pt x="152" y="282" on="0"/>
        <pt x="214" y="235" on="0"/>
        <pt x="267" y="235" on="1"/>
        <pt x="282" y="235" on="0"/>
        <pt x="321" y="241" on="0"/>
        <pt x="332" y="245" on="1"/>
      </contour>
    </TTGlyph>
    <TTGlyph name="afii10098" xMin="2" yMin="0" xMax="407" yMax="570">
      <contour>
        <pt x="172" y="430" on="1"/>
        <pt x="172" y="0" on="1"/>
        <pt x="82" y="0" on="1"/>
        <pt x="82" y="350" on="1"/>
        <pt x="82" y="395" on="0"/>
        <pt x="57" y="450" on="0"/>
        <pt x="12" y="450" on="1"/>
        <pt x="2" y="450" on="1"/>
        <pt x="2" y="470" on="1"/>
        <pt x="282" y="470" on="1"/>
        <pt x="327" y="470" on="0"/>
        <pt x="387" y="521" on="0"/>
        <pt x="387" y="570" on="1"/>
        <pt x="407" y="570" on="1"/>
        <pt x="407" y="470" on="1"/>
        <pt x="407" y="430" on="0"/>
        <pt x="367" y="430" on="1"/>
      </contour>
    </TTGlyph>
    <TTGlyph name="afii10099" xMin="2" yMin="-140" xMax="462" yMax="660">
      <contour>
        <pt x="2" y="500" on="1"/>
        <pt x="2" y="540" on="1"/>
        <pt x="72" y="540" on="1"/>
        <pt x="72" y="600" on="1"/>
        <pt x="122" y="660" on="1"/>
        <pt x="162" y="660" on="1"/>
        <pt x="162" y="540" on="1"/>
        <pt x="282" y="540" on="1"/>
        <pt x="282" y="500" on="1"/>
        <pt x="162" y="500" on="1"/>
        <pt x="162" y="380" on="1"/>
        <pt x="181" y="399" on="0"/>
        <pt x="247" y="430" on="0"/>
        <pt x="292" y="430" on="1"/>
        <pt x="324" y="430" on="0"/>
        <pt x="385" y="415" on="0"/>
        <pt x="433" y="374" on="0"/>
        <pt x="462" y="304" on="0"/>
        <pt x="462" y="250" on="1"/>
        <pt x="462" y="75" on="1"/>
        <pt x="462" y="19" on="0"/>
        <pt x="445" y="-63" on="0"/>
        <pt x="403" y="-115" on="0"/>
        <pt x="331" y="-140" on="0"/>
        <pt x="277" y="-140" on="1"/>
        <pt x="277" y="-120" on="1"/>
        <pt x="326" y="-120" on="0"/>
        <pt x="372" y="-16" on="0"/>
        <pt x="372" y="75" on="1"/>
        <pt x="372" y="250" on="1"/>
        <pt x="372" y="287" on="0"/>
        <pt x="353" y="339" on="0"/>
        <pt x="322" y="371" on="0"/>
        <pt x="283" y="385" on="0"/>
        <pt x="262" y="385" on="1"/>
        <pt x="232" y="385" on="0"/>
        <pt x="181" y="353" on="0"/>
        <pt x="162" y="332" on="1"/>
        <pt x="162" y="0" on="1"/>
        <pt x="72" y="0" on="1"/>
        <pt x="72" y="500" on="1"/>
      </contour>
    </TTGlyph>
    <TTGlyph name="afii10100" xMin="2" yMin="0" xMax="407" yMax="641">
      <component glyphName="afii10068" x="0" y="0" flags="0x204"/>
      <component glyphName="acute.alt1" x="182" y="-14" flags="0x4"/>
    </TTGlyph>
    <TTGlyph name="afii10101" xMin="45" yMin="-10" xMax="450" yMax="480">
      <contour>
        <pt x="265" y="480" on="1"/>
        <pt x="318" y="480" on="0"/>
        <pt x="391" y="464" on="0"/>
        <pt x="410" y="445" on="1"/>
        <pt x="419" y="436" on="0"/>
        <pt x="430" y="414" on="0"/>
        <pt x="434" y="384" on="0"/>
        <pt x="435" y="343" on="0"/>
        <pt x="435" y="315" on="1"/>
        <pt x="415" y="315" on="1"/>
        <pt x="411" y="379" on="0"/>
        <pt x="338" y="440" on="0"/>
        <pt x="285" y="440" on="1"/>
        <pt x="249" y="440" on="0"/>
        <pt x="197" y="410" on="0"/>
        <pt x="161" y="359" on="0"/>
        <pt x="142" y="289" on="0"/>
        <pt x="140" y="250" on="1"/>
        <pt x="350" y="250" on="1"/>
        <pt x="350" y="210" on="1"/>
        <pt x="140" y="210" on="1"/>
        <pt x="142" y="171" on="0"/>
        <pt x="162" y="105" on="0"/>
        <pt x="198" y="57" on="0"/>
        <pt x="250" y="30" on="0"/>
        <pt x="285" y="30" on="1"/>
        <pt x="338" y="30" on="0"/>
        <pt x="404" y="72" on="0"/>
        <pt x="430" y="110" on="1"/>
        <pt x="450" y="95" on="1"/>
        <pt x="416" y="38" on="0"/>
        <pt x="325" y="-10" on="0"/>
        <pt x="265" y="-10" on="1"/>
        <pt x="209" y="-10" on="0"/>
        <pt x="126" y="29" on="0"/>
        <pt x="72" y="95" on="0"/>
        <pt x="45" y="184" on="0"/>
        <pt x="45" y="235" on="1"/>
        <pt x="45" y="286" on="0"/>
        <pt x="72" y="375" on="0"/>
        <pt x="126" y="441" on="0"/>
        <pt x="209" y="480" on="0"/>
      </contour>
    </TTGlyph>
    <TTGlyph name="afii10102" xMin="49" yMin="-10" xMax="404" yMax="480">
      <component glyphName="s" x="0" y="0" flags="0x204"/>
    </TTGlyph>
    <TTGlyph name="afii10103" xMin="-3" yMin="0" xMax="177" yMax="639">
      <component glyphName="i" x="0" y="0" flags="0x204"/>
    </TTGlyph>
    <TTGlyph name="afii10104" xMin="-4" yMin="0" xMax="252" yMax="649">
      <component glyphName="idieresis" x="0" y="0" flags="0x204"/>
    </TTGlyph>
    <TTGlyph name="afii10105" xMin="-8" yMin="-190" xMax="177" yMax="639">
      <component glyphName="j" x="0" y="0" flags="0x204"/>
    </TTGlyph>
    <TTGlyph name="afii10106" xMin="9" yMin="-10" xMax="743" yMax="470">
      <contour>
        <pt x="463" y="45" on="1"/>
        <pt x="474" y="41" on="0"/>
        <pt x="513" y="35" on="0"/>
        <pt x="528" y="35" on="1"/>
        <pt x="585" y="35" on="0"/>
        <pt x="648" y="83" on="0"/>
        <pt x="648" y="140" on="1"/>
        <pt x="648" y="197" on="0"/>
        <pt x="585" y="245" on="0"/>
        <pt x="528" y="245" on="1"/>
        <pt x="513" y="245" on="0"/>
        <pt x="474" y="239" on="0"/>
        <pt x="463" y="235" on="1"/>
      </contour>
      <contour>
        <pt x="463" y="470" on="1"/>
        <pt x="463" y="280" on="1"/>
        <pt x="538" y="280" on="1"/>
        <pt x="581" y="280" on="0"/>
        <pt x="656" y="267" on="0"/>
        <pt x="711" y="235" on="0"/>
        <pt x="743" y="181" on="0"/>
        <pt x="743" y="140" on="1"/>
        <pt x="743" y="99" on="0"/>
        <pt x="711" y="45" on="0"/>
        <pt x="656" y="13" on="0"/>
        <pt x="581" y="0" on="0"/>
        <pt x="538" y="0" on="1"/>
        <pt x="373" y="0" on="1"/>
        <pt x="373" y="430" on="1"/>
        <pt x="208" y="430" on="1"/>
        <pt x="208" y="350" on="1"/>
        <pt x="208" y="237" on="0"/>
        <pt x="182" y="97" on="0"/>
        <pt x="140" y="18" on="0"/>
        <pt x="86" y="-10" on="0"/>
        <pt x="58" y="-10" on="1"/>
        <pt x="50" y="-10" on="0"/>
        <pt x="17" y="-4" on="0"/>
        <pt x="9" y="-1" on="1"/>
        <pt x="9" y="24" on="1"/>
        <pt x="33" y="24" on="0"/>
        <pt x="80" y="49" on="0"/>
        <pt x="117" y="119" on="0"/>
        <pt x="139" y="247" on="0"/>
        <pt x="139" y="350" on="1"/>
        <pt x="139" y="372" on="0"/>
        <pt x="134" y="409" on="0"/>
        <pt x="119" y="436" on="0"/>
        <pt x="91" y="450" on="0"/>
        <pt x="68" y="450" on="1"/>
        <pt x="68" y="470" on="1"/>
      </contour>
    </TTGlyph>
    <TTGlyph name="afii10107" xMin="1" yMin="0" xMax="736" yMax="470">
      <contour>
        <pt x="456" y="260" on="1"/>
        <pt x="531" y="260" on="1"/>
        <pt x="574" y="260" on="0"/>
        <pt x="649" y="247" on="0"/>
        <pt x="704" y="217" on="0"/>
        <pt x="736" y="167" on="0"/>
        <pt x="736" y="130" on="1"/>
        <pt x="736" y="92" on="0"/>
        <pt x="704" y="42" on="0"/>
        <pt x="649" y="12" on="0"/>
        <pt x="574" y="0" on="0"/>
        <pt x="531" y="0" on="1"/>
        <pt x="366" y="0" on="1"/>
        <pt x="366" y="220" on="1"/>
        <pt x="176" y="220" on="1"/>
        <pt x="176" y="0" on="1"/>
        <pt x="86" y="0" on="1"/>
        <pt x="86" y="350" on="1"/>
        <pt x="86" y="395" on="0"/>
        <pt x="61" y="450" on="0"/>
        <pt x="16" y="450" on="1"/>
        <pt x="1" y="450" on="1"/>
        <pt x="1" y="470" on="1"/>
        <pt x="86" y="470" on="1"/>
        <pt x="112" y="470" on="0"/>
        <pt x="147" y="461" on="0"/>
        <pt x="168" y="434" on="0"/>
        <pt x="176" y="387" on="0"/>
        <pt x="176" y="350" on="1"/>
        <pt x="176" y="260" on="1"/>
        <pt x="366" y="260" on="1"/>
        <pt x="366" y="470" on="1"/>
        <pt x="456" y="470" on="1"/>
      </contour>
      <contour>
        <pt x="456" y="45" on="1"/>
        <pt x="467" y="41" on="0"/>
        <pt x="506" y="35" on="0"/>
        <pt x="521" y="35" on="1"/>
        <pt x="578" y="35" on="0"/>
        <pt x="641" y="81" on="0"/>
        <pt x="641" y="130" on="1"/>
        <pt x="641" y="179" on="0"/>
        <pt x="578" y="225" on="0"/>
        <pt x="521" y="225" on="1"/>
        <pt x="506" y="225" on="0"/>
        <pt x="467" y="219" on="0"/>
        <pt x="456" y="215" on="1"/>
      </contour>
    </TTGlyph>
    <TTGlyph name="afii10108" xMin="2" yMin="0" xMax="462" yMax="660">
      <contour>
        <pt x="162" y="500" on="1"/>
        <pt x="162" y="380" on="1"/>
        <pt x="181" y="399" on="0"/>
        <pt x="247" y="430" on="0"/>
        <pt x="292" y="430" on="1"/>
        <pt x="324" y="430" on="0"/>
        <pt x="385" y="415" on="0"/>
        <pt x="433" y="374" on="0"/>
        <pt x="462" y="304" on="0"/>
        <pt x="462" y="250" on="1"/>
        <pt x="462" y="0" on="1"/>
        <pt x="372" y="0" on="1"/>
        <pt x="372" y="250" on="1"/>
        <pt x="372" y="287" on="0"/>
        <pt x="353" y="339" on="0"/>
        <pt x="322" y="371" on="0"/>
        <pt x="283" y="385" on="0"/>
        <pt x="262" y="385" on="1"/>
        <pt x="232" y="385" on="0"/>
        <pt x="181" y="353" on="0"/>
        <pt x="162" y="332" on="1"/>
        <pt x="162" y="0" on="1"/>
        <pt x="72" y="0" on="1"/>
        <pt x="72" y="500" on="1"/>
        <pt x="2" y="500" on="1"/>
        <pt x="2" y="540" on="1"/>
        <pt x="72" y="540" on="1"/>
        <pt x="72" y="600" on="1"/>
        <pt x="122" y="660" on="1"/>
        <pt x="162" y="660" on="1"/>
        <pt x="162" y="540" on="1"/>
        <pt x="282" y="540" on="1"/>
        <pt x="282" y="500" on="1"/>
      </contour>
    </TTGlyph>
    <TTGlyph name="afii10109" xMin="-1" yMin="-10" xMax="489" yMax="617">
      <component glyphName="afii10076" x="0" y="0" flags="0x204"/>
      <component glyphName="acute.alt1" x="209" y="-38" flags="0x4"/>
    </TTGlyph>
    <TTGlyph name="afii10110" xMin="-10" yMin="-200" xMax="485" yMax="607">
      <component glyphName="y" x="0" y="0" flags="0x204"/>
      <component glyphName="breve" x="170" y="-9" flags="0x4"/>
    </TTGlyph>
    <TTGlyph name="afii10145" xMin="16" yMin="-175" xMax="586" yMax="660">
      <contour>
        <pt x="321" y="-175" on="1"/>
        <pt x="306" y="0" on="1"/>
        <pt x="106" y="0" on="1"/>
        <pt x="106" y="540" on="1"/>
        <pt x="106" y="585" on="0"/>
        <pt x="81" y="640" on="0"/>
        <pt x="36" y="640" on="1"/>
        <pt x="16" y="640" on="1"/>
        <pt x="16" y="660" on="1"/>
        <pt x="106" y="660" on="1"/>
        <pt x="132" y="660" on="0"/>
        <pt x="167" y="651" on="0"/>
        <pt x="188" y="624" on="0"/>
        <pt x="196" y="577" on="0"/>
        <pt x="196" y="540" on="1"/>
        <pt x="196" y="40" on="1"/>
        <pt x="496" y="40" on="1"/>
        <pt x="496" y="660" on="1"/>
        <pt x="586" y="660" on="1"/>
        <pt x="586" y="0" on="1"/>
        <pt x="386" y="0" on="1"/>
        <pt x="371" y="-175" on="1"/>
      </contour>
    </TTGlyph>
    <TTGlyph name="afii10193" xMin="1" yMin="-150" xMax="466" yMax="470">
      <contour>
        <pt x="86" y="0" on="1"/>
        <pt x="86" y="350" on="1"/>
        <pt x="86" y="395" on="0"/>
        <pt x="61" y="450" on="0"/>
        <pt x="16" y="450" on="1"/>
        <pt x="1" y="450" on="1"/>
        <pt x="1" y="470" on="1"/>
        <pt x="86" y="470" on="1"/>
        <pt x="112" y="470" on="0"/>
        <pt x="147" y="461" on="0"/>
        <pt x="168" y="434" on="0"/>
        <pt x="176" y="387" on="0"/>
        <pt x="176" y="350" on="1"/>
        <pt x="176" y="40" on="1"/>
        <pt x="376" y="40" on="1"/>
        <pt x="376" y="470" on="1"/>
        <pt x="466" y="470" on="1"/>
        <pt x="466" y="0" on="1"/>
        <pt x="311" y="0" on="1"/>
        <pt x="296" y="-150" on="1"/>
        <pt x="256" y="-150" on="1"/>
        <pt x="241" y="0" on="1"/>
      </contour>
    </TTGlyph>
    <TTGlyph name="afii61352" xMin="14" yMin="-10" xMax="949" yMax="670">
      <contour>
        <pt x="924" y="310" on="1"/>
        <pt x="684" y="310" on="1"/>
        <pt x="684" y="350" on="1"/>
        <pt x="924" y="350" on="1"/>
      </contour>
      <contour>
        <pt x="114" y="540" on="1"/>
        <pt x="114" y="585" on="0"/>
        <pt x="76" y="640" on="0"/>
        <pt x="24" y="640" on="1"/>
        <pt x="14" y="640" on="1"/>
        <pt x="14" y="660" on="1"/>
        <pt x="79" y="660" on="1"/>
        <pt x="128" y="660" on="0"/>
        <pt x="191" y="628" on="0"/>
        <pt x="214" y="600" on="1"/>
        <pt x="564" y="165" on="1"/>
        <pt x="564" y="660" on="1"/>
        <pt x="604" y="660" on="1"/>
        <pt x="604" y="-10" on="1"/>
        <pt x="584" y="-10" on="1"/>
        <pt x="154" y="525" on="1"/>
        <pt x="154" y="0" on="1"/>
        <pt x="114" y="0" on="1"/>
      </contour>
      <contour>
        <pt x="889" y="535" on="1"/>
        <pt x="889" y="635" on="0"/>
        <pt x="804" y="635" on="1"/>
        <pt x="719" y="635" on="0"/>
        <pt x="719" y="535" on="1"/>
        <pt x="719" y="435" on="0"/>
        <pt x="804" y="435" on="1"/>
        <pt x="889" y="435" on="0"/>
      </contour>
      <contour>
        <pt x="949" y="535" on="1"/>
        <pt x="949" y="471" on="0"/>
        <pt x="873" y="400" on="0"/>
        <pt x="804" y="400" on="1"/>
        <pt x="735" y="400" on="0"/>
        <pt x="659" y="471" on="0"/>
        <pt x="659" y="535" on="1"/>
        <pt x="659" y="599" on="0"/>
        <pt x="735" y="670" on="0"/>
        <pt x="804" y="670" on="1"/>
        <pt x="873" y="670" on="0"/>
        <pt x="949" y="599" on="0"/>
      </contour>
    </TTGlyph>
    <TTGlyph name="agrave" xMin="39" yMin="-10" xMax="414" yMax="655">
      <component glyphName="a" x="0" y="0" flags="0x204"/>
      <component glyphName="grave.alt1" x="124" y="0" flags="0x4"/>
    </TTGlyph>
    <TTGlyph name="ampersand" xMin="42" yMin="-20" xMax="592" yMax="680">
      <contour>
        <pt x="42" y="140" on="1"/>
        <pt x="42" y="171" on="0"/>
        <pt x="66" y="222" on="0"/>
        <pt x="106" y="267" on="0"/>
        <pt x="158" y="306" on="0"/>
        <pt x="185" y="326" on="1"/>
        <pt x="156" y="351" on="0"/>
        <pt x="133" y="382" on="1"/>
        <pt x="113" y="408" on="0"/>
        <pt x="82" y="481" on="0"/>
        <pt x="82" y="524" on="1"/>
        <pt x="82" y="596" on="0"/>
        <pt x="179" y="680" on="0"/>
        <pt x="262" y="680" on="1"/>
        <pt x="341" y="680" on="0"/>
        <pt x="427" y="600" on="0"/>
        <pt x="427" y="540" on="1"/>
        <pt x="427" y="505" on="0"/>
        <pt x="403" y="449" on="0"/>
        <pt x="363" y="402" on="0"/>
        <pt x="310" y="360" on="0"/>
        <pt x="281" y="340" on="1"/>
        <pt x="482" y="120" on="1"/>
        <pt x="503" y="143" on="0"/>
        <pt x="536" y="187" on="0"/>
        <pt x="548" y="205" on="1"/>
        <pt x="561" y="226" on="0"/>
        <pt x="572" y="245" on="1"/>
        <pt x="592" y="230" on="1"/>
        <pt x="583" y="210" on="0"/>
        <pt x="570" y="188" on="1"/>
        <pt x="559" y="169" on="0"/>
        <pt x="525" y="121" on="0"/>
        <pt x="503" y="97" on="1"/>
        <pt x="592" y="0" on="1"/>
        <pt x="482" y="0" on="1"/>
        <pt x="442" y="43" on="1"/>
        <pt x="406" y="16" on="0"/>
        <pt x="312" y="-20" on="0"/>
        <pt x="252" y="-20" on="1"/>
        <pt x="199" y="-20" on="0"/>
        <pt x="121" y="5" on="0"/>
        <pt x="68" y="48" on="0"/>
        <pt x="42" y="106" on="0"/>
      </contour>
      <contour>
        <pt x="271" y="15" on="1"/>
        <pt x="317" y="15" on="0"/>
        <pt x="391" y="43" on="0"/>
        <pt x="421" y="66" on="1"/>
        <pt x="215" y="291" on="1"/>
        <pt x="181" y="262" on="0"/>
        <pt x="137" y="195" on="0"/>
        <pt x="137" y="150" on="1"/>
        <pt x="137" y="15" on="0"/>
      </contour>
      <contour>
        <pt x="177" y="524" on="1"/>
        <pt x="177" y="494" on="0"/>
        <pt x="198" y="442" on="0"/>
        <pt x="224" y="402" on="0"/>
        <pt x="247" y="377" on="0"/>
        <pt x="250" y="375" on="1"/>
        <pt x="288" y="407" on="0"/>
        <pt x="342" y="480" on="0"/>
        <pt x="342" y="530" on="1"/>
        <pt x="342" y="562" on="0"/>
        <pt x="327" y="606" on="0"/>
        <pt x="303" y="633" on="0"/>
        <pt x="275" y="645" on="0"/>
        <pt x="262" y="645" on="1"/>
        <pt x="247" y="645" on="0"/>
        <pt x="217" y="633" on="0"/>
        <pt x="192" y="604" on="0"/>
        <pt x="177" y="558" on="0"/>
      </contour>
    </TTGlyph>
    <TTGlyph name="aring" xMin="39" yMin="-10" xMax="414" yMax="700">
      <component glyphName="a" x="0" y="0" flags="0x204"/>
      <component glyphName="ring" x="149" y="0" flags="0x4"/>
    </TTGlyph>
    <TTGlyph name="asciicircum" xMin="20" yMin="330" xMax="470" yMax="680">
      <contour>
        <pt x="235" y="680" on="1"/>
        <pt x="255" y="680" on="1"/>
        <pt x="470" y="330" on="1"/>
        <pt x="403" y="330" on="1"/>
        <pt x="245" y="587" on="1"/>
        <pt x="87" y="330" on="1"/>
        <pt x="20" y="330" on="1"/>
      </contour>
    </TTGlyph>
    <TTGlyph name="asciitilde" xMin="60" yMin="180" xMax="570" yMax="330">
      <contour>
        <pt x="450" y="180" on="1"/>
        <pt x="412" y="180" on="0"/>
        <pt x="341" y="205" on="0"/>
        <pt x="274" y="235" on="0"/>
        <pt x="210" y="260" on="0"/>
        <pt x="180" y="260" on="1"/>
        <pt x="142" y="260" on="0"/>
        <pt x="100" y="220" on="0"/>
        <pt x="100" y="190" on="1"/>
        <pt x="60" y="190" on="1"/>
        <pt x="60" y="227" on="0"/>
        <pt x="81" y="281" on="0"/>
        <pt x="114" y="314" on="0"/>
        <pt x="157" y="330" on="0"/>
        <pt x="180" y="330" on="1"/>
        <pt x="217" y="330" on="0"/>
        <pt x="289" y="305" on="0"/>
        <pt x="356" y="275" on="0"/>
        <pt x="420" y="250" on="0"/>
        <pt x="450" y="250" on="1"/>
        <pt x="488" y="250" on="0"/>
        <pt x="530" y="290" on="0"/>
        <pt x="530" y="320" on="1"/>
        <pt x="570" y="320" on="1"/>
        <pt x="570" y="282" on="0"/>
        <pt x="549" y="229" on="0"/>
        <pt x="516" y="196" on="0"/>
        <pt x="472" y="180" on="0"/>
      </contour>
    </TTGlyph>
    <TTGlyph name="asterisk" xMin="47" yMin="330" xMax="377" yMax="660">
      <contour>
        <pt x="172" y="660" on="1"/>
        <pt x="252" y="660" on="1"/>
        <pt x="222" y="510" on="1"/>
        <pt x="337" y="615" on="1"/>
        <pt x="377" y="545" on="1"/>
        <pt x="232" y="495" on="1"/>
        <pt x="377" y="445" on="1"/>
        <pt x="337" y="375" on="1"/>
        <pt x="222" y="480" on="1"/>
        <pt x="252" y="330" on="1"/>
        <pt x="172" y="330" on="1"/>
        <pt x="202" y="480" on="1"/>
        <pt x="87" y="375" on="1"/>
        <pt x="47" y="445" on="1"/>
        <pt x="192" y="495" on="1"/>
        <pt x="47" y="545" on="1"/>
        <pt x="87" y="615" on="1"/>
        <pt x="202" y="510" on="1"/>
      </contour>
    </TTGlyph>
    <TTGlyph name="at" xMin="40" yMin="-180" xMax="820" yMax="680">
      <contour>
        <pt x="515" y="245" on="1"/>
        <pt x="485" y="245" on="1"/>
        <pt x="410" y="245" on="0"/>
        <pt x="325" y="190" on="0"/>
        <pt x="325" y="145" on="1"/>
        <pt x="325" y="121" on="0"/>
        <pt x="341" y="85" on="0"/>
        <pt x="367" y="61" on="0"/>
        <pt x="401" y="50" on="0"/>
        <pt x="420" y="50" on="1"/>
        <pt x="457" y="50" on="0"/>
        <pt x="500" y="87" on="0"/>
        <pt x="515" y="110" on="1"/>
      </contour>
      <contour>
        <pt x="430" y="-180" on="1"/>
        <pt x="344" y="-180" on="0"/>
        <pt x="200" y="-124" on="0"/>
        <pt x="97" y="-16" on="0"/>
        <pt x="40" y="145" on="0"/>
        <pt x="40" y="250" on="1"/>
        <pt x="40" y="355" on="0"/>
        <pt x="97" y="516" on="0"/>
        <pt x="200" y="624" on="0"/>
        <pt x="344" y="680" on="0"/>
        <pt x="430" y="680" on="1"/>
        <pt x="516" y="680" on="0"/>
        <pt x="660" y="625" on="0"/>
        <pt x="763" y="520" on="0"/>
        <pt x="820" y="367" on="0"/>
        <pt x="820" y="270" on="1"/>
        <pt x="820" y="210" on="0"/>
        <pt x="797" y="112" on="0"/>
        <pt x="749" y="43" on="0"/>
        <pt x="676" y="5" on="0"/>
        <pt x="625" y="5" on="1"/>
        <pt x="583" y="5" on="0"/>
        <pt x="531" y="34" on="0"/>
        <pt x="520" y="60" on="1"/>
        <pt x="515" y="60" on="1"/>
        <pt x="500" y="41" on="0"/>
        <pt x="432" y="5" on="0"/>
        <pt x="375" y="5" on="1"/>
        <pt x="354" y="5" on="0"/>
        <pt x="304" y="18" on="0"/>
        <pt x="260" y="50" on="0"/>
        <pt x="230" y="104" on="0"/>
        <pt x="230" y="145" on="1"/>
        <pt x="230" y="186" on="0"/>
        <pt x="272" y="240" on="0"/>
        <pt x="342" y="272" on="0"/>
        <pt x="434" y="285" on="0"/>
        <pt x="485" y="285" on="1"/>
        <pt x="515" y="285" on="1"/>
        <pt x="515" y="337" on="0"/>
        <pt x="499" y="404" on="0"/>
        <pt x="471" y="441" on="0"/>
        <pt x="432" y="455" on="0"/>
        <pt x="410" y="455" on="1"/>
        <pt x="368" y="455" on="0"/>
        <pt x="311" y="419" on="0"/>
        <pt x="300" y="370" on="1"/>
        <pt x="255" y="370" on="1"/>
        <pt x="255" y="396" on="0"/>
        <pt x="261" y="441" on="0"/>
        <pt x="280" y="460" on="1"/>
        <pt x="289" y="469" on="0"/>
        <pt x="322" y="483" on="0"/>
        <pt x="362" y="491" on="0"/>
        <pt x="407" y="495" on="0"/>
        <pt x="430" y="495" on="1"/>
        <pt x="464" y="495" on="0"/>
        <pt x="527" y="480" on="0"/>
        <pt x="576" y="435" on="0"/>
        <pt x="605" y="352" on="0"/>
        <pt x="605" y="285" on="1"/>
        <pt x="605" y="105" on="1"/>
        <pt x="605" y="82" on="0"/>
        <pt x="629" y="45" on="0"/>
        <pt x="655" y="45" on="1"/>
        <pt x="679" y="45" on="0"/>
        <pt x="725" y="76" on="0"/>
        <pt x="759" y="134" on="0"/>
        <pt x="780" y="217" on="0"/>
        <pt x="780" y="270" on="1"/>
        <pt x="780" y="360" on="0"/>
        <pt x="730" y="498" on="0"/>
        <pt x="638" y="592" on="0"/>
        <pt x="509" y="640" on="0"/>
        <pt x="430" y="640" on="1"/>
        <pt x="351" y="640" on="0"/>
        <pt x="222" y="591" on="0"/>
        <pt x="130" y="494" on="0"/>
        <pt x="80" y="347" on="0"/>
        <pt x="80" y="250" on="1"/>
        <pt x="80" y="152" on="0"/>
        <pt x="130" y="6" on="0"/>
        <pt x="222" y="-91" on="0"/>
        <pt x="351" y="-140" on="0"/>
        <pt x="430" y="-140" on="1"/>
        <pt x="528" y="-140" on="0"/>
        <pt x="680" y="-97" on="0"/>
        <pt x="740" y="-55" on="1"/>
        <pt x="760" y="-85" on="1"/>
        <pt x="700" y="-127" on="0"/>
        <pt x="539" y="-180" on="0"/>
      </contour>
    </TTGlyph>
    <TTGlyph name="atilde" xMin="39" yMin="-10" xMax="414" yMax="631">
      <component glyphName="a" x="0" y="0" flags="0x204"/>
      <component glyphName="tilde" x="103" y="-144" flags="0x4"/>
    </TTGlyph>
    <TTGlyph name="b" xMin="-18" yMin="-10" xMax="477" yMax="660">
      <contour>
        <pt x="162" y="90" on="1"/>
        <pt x="177" y="67" on="0"/>
        <pt x="226" y="30" on="0"/>
        <pt x="267" y="30" on="1"/>
        <pt x="297" y="30" on="0"/>
        <pt x="340" y="62" on="0"/>
        <pt x="369" y="117" on="0"/>
        <pt x="382" y="192" on="0"/>
        <pt x="382" y="235" on="1"/>
        <pt x="382" y="278" on="0"/>
        <pt x="368" y="353" on="0"/>
        <pt x="338" y="408" on="0"/>
        <pt x="291" y="440" on="0"/>
        <pt x="257" y="440" on="1"/>
        <pt x="234" y="440" on="0"/>
        <pt x="185" y="421" on="0"/>
        <pt x="162" y="410" on="1"/>
      </contour>
      <contour>
        <pt x="72" y="540" on="1"/>
        <pt x="72" y="585" on="0"/>
        <pt x="47" y="640" on="0"/>
        <pt x="2" y="640" on="1"/>
        <pt x="-18" y="640" on="1"/>
        <pt x="-18" y="660" on="1"/>
        <pt x="72" y="660" on="1"/>
        <pt x="98" y="660" on="0"/>
        <pt x="133" y="651" on="0"/>
        <pt x="154" y="624" on="0"/>
        <pt x="162" y="577" on="0"/>
        <pt x="162" y="540" on="1"/>
        <pt x="162" y="450" on="1"/>
        <pt x="185" y="461" on="0"/>
        <pt x="245" y="480" on="0"/>
        <pt x="287" y="480" on="1"/>
        <pt x="336" y="480" on="0"/>
        <pt x="407" y="441" on="0"/>
        <pt x="454" y="375" on="0"/>
        <pt x="477" y="286" on="0"/>
        <pt x="477" y="235" on="1"/>
        <pt x="477" y="184" on="0"/>
        <pt x="454" y="95" on="0"/>
        <pt x="409" y="29" on="0"/>
        <pt x="342" y="-10" on="0"/>
        <pt x="297" y="-10" on="1"/>
        <pt x="241" y="-10" on="0"/>
        <pt x="177" y="26" on="0"/>
        <pt x="162" y="45" on="1"/>
        <pt x="157" y="45" on="1"/>
        <pt x="122" y="0" on="1"/>
        <pt x="72" y="0" on="1"/>
      </contour>
    </TTGlyph>
    <TTGlyph name="backslash" xMin="23" yMin="0" xMax="417" yMax="660">
      <contour>
        <pt x="344" y="0" on="1"/>
        <pt x="23" y="660" on="1"/>
        <pt x="96" y="660" on="1"/>
        <pt x="417" y="0" on="1"/>
      </contour>
    </TTGlyph>
    <TTGlyph name="bar" xMin="75" yMin="-190" xMax="165" yMax="680">
      <contour>
        <pt x="165" y="680" on="1"/>
        <pt x="165" y="-190" on="1"/>
        <pt x="75" y="-190" on="1"/>
        <pt x="75" y="680" on="1"/>
      </contour>
    </TTGlyph>
    <TTGlyph name="braceleft" xMin="11" yMin="-210" xMax="276" yMax="690">
      <contour>
        <pt x="11" y="255" on="1"/>
        <pt x="39" y="259" on="0"/>
        <pt x="77" y="280" on="0"/>
        <pt x="101" y="311" on="0"/>
        <pt x="111" y="349" on="0"/>
        <pt x="111" y="370" on="1"/>
        <pt x="111" y="510" on="1"/>
        <pt x="111" y="577" on="0"/>
        <pt x="186" y="667" on="0"/>
        <pt x="276" y="690" on="1"/>
        <pt x="276" y="660" on="1"/>
        <pt x="250" y="652" on="0"/>
        <pt x="217" y="633" on="0"/>
        <pt x="198" y="607" on="0"/>
        <pt x="191" y="572" on="0"/>
        <pt x="191" y="550" on="1"/>
        <pt x="191" y="380" on="1"/>
        <pt x="191" y="320" on="0"/>
        <pt x="139" y="255" on="0"/>
        <pt x="86" y="240" on="1"/>
        <pt x="139" y="225" on="0"/>
        <pt x="191" y="160" on="0"/>
        <pt x="191" y="100" on="1"/>
        <pt x="191" y="-70" on="1"/>
        <pt x="191" y="-93" on="0"/>
        <pt x="198" y="-127" on="0"/>
        <pt x="217" y="-153" on="0"/>
        <pt x="250" y="-173" on="0"/>
        <pt x="276" y="-180" on="1"/>
        <pt x="276" y="-210" on="1"/>
        <pt x="186" y="-188" on="0"/>
        <pt x="111" y="-98" on="0"/>
        <pt x="111" y="-30" on="1"/>
        <pt x="111" y="110" on="1"/>
        <pt x="111" y="131" on="0"/>
        <pt x="101" y="169" on="0"/>
        <pt x="77" y="200" on="0"/>
        <pt x="39" y="221" on="0"/>
        <pt x="11" y="225" on="1"/>
      </contour>
    </TTGlyph>
    <TTGlyph name="braceright" xMin="28" yMin="-210" xMax="293" yMax="690">
      <contour>
        <pt x="293" y="225" on="1"/>
        <pt x="265" y="221" on="0"/>
        <pt x="227" y="200" on="0"/>
        <pt x="203" y="169" on="0"/>
        <pt x="193" y="131" on="0"/>
        <pt x="193" y="110" on="1"/>
        <pt x="193" y="-30" on="1"/>
        <pt x="193" y="-98" on="0"/>
        <pt x="118" y="-188" on="0"/>
        <pt x="28" y="-210" on="1"/>
        <pt x="28" y="-180" on="1"/>
        <pt x="54" y="-173" on="0"/>
        <pt x="87" y="-153" on="0"/>
        <pt x="106" y="-127" on="0"/>
        <pt x="113" y="-93" on="0"/>
        <pt x="113" y="-70" on="1"/>
        <pt x="113" y="100" on="1"/>
        <pt x="113" y="160" on="0"/>
        <pt x="165" y="225" on="0"/>
        <pt x="218" y="240" on="1"/>
        <pt x="165" y="255" on="0"/>
        <pt x="113" y="320" on="0"/>
        <pt x="113" y="380" on="1"/>
        <pt x="113" y="550" on="1"/>
        <pt x="113" y="572" on="0"/>
        <pt x="106" y="607" on="0"/>
        <pt x="87" y="633" on="0"/>
        <pt x="54" y="652" on="0"/>
        <pt x="28" y="660" on="1"/>
        <pt x="28" y="690" on="1"/>
        <pt x="118" y="667" on="0"/>
        <pt x="193" y="577" on="0"/>
        <pt x="193" y="510" on="1"/>
        <pt x="193" y="370" on="1"/>
        <pt x="193" y="349" on="0"/>
        <pt x="203" y="311" on="0"/>
        <pt x="227" y="280" on="0"/>
        <pt x="265" y="259" on="0"/>
        <pt x="293" y="255" on="1"/>
      </contour>
    </TTGlyph>
    <TTGlyph name="bracketleft" xMin="75" yMin="-200" xMax="290" yMax="680">
      <contour>
        <pt x="290" y="-200" on="1"/>
        <pt x="75" y="-200" on="1"/>
        <pt x="75" y="680" on="1"/>
        <pt x="290" y="680" on="1"/>
        <pt x="290" y="640" on="1"/>
        <pt x="155" y="640" on="1"/>
        <pt x="155" y="-160" on="1"/>
        <pt x="290" y="-160" on="1"/>
      </contour>
    </TTGlyph>
    <TTGlyph name="bracketright" xMin="26" yMin="-200" xMax="241" yMax="680">
      <contour>
        <pt x="26" y="-160" on="1"/>
        <pt x="161" y="-160" on="1"/>
        <pt x="161" y="640" on="1"/>
        <pt x="26" y="640" on="1"/>
        <pt x="26" y="680" on="1"/>
        <pt x="241" y="680" on="1"/>
        <pt x="241" y="-200" on="1"/>
        <pt x="26" y="-200" on="1"/>
      </contour>
    </TTGlyph>
    <TTGlyph name="breve" xMin="0" yMin="521" xMax="260" yMax="616">
      <contour>
        <pt x="130" y="576" on="1"/>
        <pt x="172" y="576" on="0"/>
        <pt x="221" y="597" on="0"/>
        <pt x="240" y="616" on="1"/>
        <pt x="260" y="601" on="1"/>
        <pt x="241" y="567" on="0"/>
        <pt x="179" y="521" on="0"/>
        <pt x="130" y="521" on="1"/>
        <pt x="81" y="521" on="0"/>
        <pt x="19" y="567" on="0"/>
        <pt x="0" y="601" on="1"/>
        <pt x="20" y="616" on="1"/>
        <pt x="39" y="597" on="0"/>
        <pt x="88" y="576" on="0"/>
      </contour>
    </TTGlyph>
    <TTGlyph name="brokenbar" xMin="78" yMin="-190" xMax="168" yMax="680">
      <contour>
        <pt x="168" y="680" on="1"/>
        <pt x="168" y="330" on="1"/>
        <pt x="78" y="330" on="1"/>
        <pt x="78" y="680" on="1"/>
      </contour>
      <contour>
        <pt x="168" y="160" on="1"/>
        <pt x="168" y="-190" on="1"/>
        <pt x="78" y="-190" on="1"/>
        <pt x="78" y="160" on="1"/>
      </contour>
    </TTGlyph>
    <TTGlyph name="bullet" xMin="50" yMin="210" xMax="290" yMax="450">
      <contour>
        <pt x="170" y="450" on="1"/>
        <pt x="223" y="450" on="0"/>
        <pt x="290" y="383" on="0"/>
        <pt x="290" y="330" on="1"/>
        <pt x="290" y="277" on="0"/>
        <pt x="223" y="210" on="0"/>
        <pt x="170" y="210" on="1"/>
        <pt x="117" y="210" on="0"/>
        <pt x="50" y="277" on="0"/>
        <pt x="50" y="330" on="1"/>
        <pt x="50" y="383" on="0"/>
        <pt x="117" y="450" on="0"/>
      </contour>
    </TTGlyph>
    <TTGlyph name="c" xMin="45" yMin="-10" xMax="450" yMax="480">
      <contour>
        <pt x="265" y="480" on="1"/>
        <pt x="318" y="480" on="0"/>
        <pt x="391" y="464" on="0"/>
        <pt x="410" y="445" on="1"/>
        <pt x="419" y="436" on="0"/>
        <pt x="430" y="414" on="0"/>
        <pt x="434" y="384" on="0"/>
        <pt x="435" y="343" on="0"/>
        <pt x="435" y="315" on="1"/>
        <pt x="415" y="315" on="1"/>
        <pt x="411" y="379" on="0"/>
        <pt x="338" y="440" on="0"/>
        <pt x="285" y="440" on="1"/>
        <pt x="247" y="440" on="0"/>
        <pt x="193" y="408" on="0"/>
        <pt x="157" y="353" on="0"/>
        <pt x="140" y="278" on="0"/>
        <pt x="140" y="235" on="1"/>
        <pt x="140" y="192" on="0"/>
        <pt x="157" y="117" on="0"/>
        <pt x="193" y="62" on="0"/>
        <pt x="247" y="30" on="0"/>
        <pt x="285" y="30" on="1"/>
        <pt x="338" y="30" on="0"/>
        <pt x="404" y="72" on="0"/>
        <pt x="430" y="110" on="1"/>
        <pt x="450" y="95" on="1"/>
        <pt x="416" y="38" on="0"/>
        <pt x="325" y="-10" on="0"/>
        <pt x="265" y="-10" on="1"/>
        <pt x="209" y="-10" on="0"/>
        <pt x="126" y="29" on="0"/>
        <pt x="72" y="95" on="0"/>
        <pt x="45" y="184" on="0"/>
        <pt x="45" y="235" on="1"/>
        <pt x="45" y="286" on="0"/>
        <pt x="72" y="375" on="0"/>
        <pt x="126" y="441" on="0"/>
        <pt x="209" y="480" on="0"/>
      </contour>
    </TTGlyph>
    <TTGlyph name="caron" xMin="0" yMin="520" xMax="270" yMax="635">
      <contour>
        <pt x="220" y="635" on="1"/>
        <pt x="270" y="635" on="1"/>
        <pt x="190" y="520" on="1"/>
        <pt x="80" y="520" on="1"/>
        <pt x="0" y="635" on="1"/>
        <pt x="50" y="635" on="1"/>
        <pt x="135" y="555" on="1"/>
      </contour>
    </TTGlyph>
    <TTGlyph name="ccedilla" xMin="45" yMin="-196" xMax="450" yMax="480">
      <contour>
        <pt x="265" y="480" on="1"/>
        <pt x="318" y="480" on="0"/>
        <pt x="391" y="464" on="0"/>
        <pt x="410" y="445" on="1"/>
        <pt x="419" y="436" on="0"/>
        <pt x="430" y="414" on="0"/>
        <pt x="434" y="384" on="0"/>
        <pt x="435" y="343" on="0"/>
        <pt x="435" y="315" on="1"/>
        <pt x="415" y="315" on="1"/>
        <pt x="411" y="379" on="0"/>
        <pt x="338" y="440" on="0"/>
        <pt x="285" y="440" on="1"/>
        <pt x="247" y="440" on="0"/>
        <pt x="193" y="408" on="0"/>
        <pt x="157" y="353" on="0"/>
        <pt x="140" y="278" on="0"/>
        <pt x="140" y="235" on="1"/>
        <pt x="140" y="192" on="0"/>
        <pt x="157" y="117" on="0"/>
        <pt x="193" y="62" on="0"/>
        <pt x="247" y="30" on="0"/>
        <pt x="285" y="30" on="1"/>
        <pt x="338" y="30" on="0"/>
        <pt x="404" y="72" on="0"/>
        <pt x="430" y="110" on="1"/>
        <pt x="450" y="95" on="1"/>
        <pt x="418" y="41" on="0"/>
        <pt x="375" y="17" on="1"/>
        <pt x="334" y="-5" on="0"/>
        <pt x="281" y="-9" on="1"/>
        <pt x="281" y="-50" on="1"/>
        <pt x="291" y="-50" on="1"/>
        <pt x="325" y="-50" on="0"/>
        <pt x="371" y="-87" on="0"/>
        <pt x="371" y="-123" on="1"/>
        <pt x="371" y="-158" on="0"/>
        <pt x="325" y="-196" on="0"/>
        <pt x="291" y="-196" on="1"/>
        <pt x="231" y="-196" on="1"/>
        <pt x="231" y="-155" on="1"/>
        <pt x="281" y="-155" on="1"/>
        <pt x="321" y="-155" on="0"/>
        <pt x="321" y="-123" on="1"/>
        <pt x="321" y="-90" on="0"/>
        <pt x="281" y="-90" on="1"/>
        <pt x="236" y="-90" on="1"/>
        <pt x="236" y="-10" on="1"/>
        <pt x="186" y="-4" on="0"/>
        <pt x="115" y="38" on="0"/>
        <pt x="68" y="104" on="0"/>
        <pt x="45" y="188" on="0"/>
        <pt x="45" y="235" on="1"/>
        <pt x="45" y="286" on="0"/>
        <pt x="72" y="375" on="0"/>
        <pt x="126" y="441" on="0"/>
        <pt x="209" y="480" on="0"/>
      </contour>
    </TTGlyph>
    <TTGlyph name="cedilla" xMin="40" yMin="-196" xMax="180" yMax="0">
      <contour>
        <pt x="90" y="0" on="1"/>
        <pt x="90" y="-50" on="1"/>
        <pt x="100" y="-50" on="1"/>
        <pt x="134" y="-50" on="0"/>
        <pt x="180" y="-87" on="0"/>
        <pt x="180" y="-123" on="1"/>
        <pt x="180" y="-158" on="0"/>
        <pt x="134" y="-196" on="0"/>
        <pt x="100" y="-196" on="1"/>
        <pt x="40" y="-196" on="1"/>
        <pt x="40" y="-155" on="1"/>
        <pt x="90" y="-155" on="1"/>
        <pt x="130" y="-155" on="0"/>
        <pt x="130" y="-123" on="1"/>
        <pt x="130" y="-90" on="0"/>
        <pt x="90" y="-90" on="1"/>
        <pt x="45" y="-90" on="1"/>
        <pt x="45" y="0" on="1"/>
      </contour>
    </TTGlyph>
    <TTGlyph name="cent" xMin="40" yMin="-50" xMax="445" yMax="520">
      <contour>
        <pt x="280" y="520" on="1"/>
        <pt x="280" y="480" on="1"/>
        <pt x="322" y="480" on="0"/>
        <pt x="388" y="462" on="0"/>
        <pt x="405" y="445" on="1"/>
        <pt x="414" y="436" on="0"/>
        <pt x="425" y="414" on="0"/>
        <pt x="429" y="384" on="0"/>
        <pt x="430" y="343" on="0"/>
        <pt x="430" y="315" on="1"/>
        <pt x="410" y="315" on="1"/>
        <pt x="406" y="379" on="0"/>
        <pt x="333" y="440" on="0"/>
        <pt x="280" y="440" on="1"/>
        <pt x="280" y="30" on="1"/>
        <pt x="333" y="30" on="0"/>
        <pt x="399" y="72" on="0"/>
        <pt x="425" y="110" on="1"/>
        <pt x="445" y="95" on="1"/>
        <pt x="414" y="43" on="0"/>
        <pt x="333" y="-6" on="0"/>
        <pt x="280" y="-10" on="1"/>
        <pt x="280" y="-50" on="1"/>
        <pt x="240" y="-50" on="1"/>
        <pt x="240" y="-10" on="1"/>
        <pt x="189" y="-6" on="0"/>
        <pt x="114" y="35" on="0"/>
        <pt x="65" y="101" on="0"/>
        <pt x="40" y="187" on="0"/>
        <pt x="40" y="235" on="1"/>
        <pt x="40" y="283" on="0"/>
        <pt x="65" y="369" on="0"/>
        <pt x="114" y="435" on="0"/>
        <pt x="189" y="476" on="0"/>
        <pt x="240" y="480" on="1"/>
        <pt x="240" y="520" on="1"/>
      </contour>
      <contour>
        <pt x="135" y="235" on="1"/>
        <pt x="135" y="198" on="0"/>
        <pt x="148" y="132" on="0"/>
        <pt x="174" y="79" on="0"/>
        <pt x="214" y="42" on="0"/>
        <pt x="240" y="35" on="1"/>
        <pt x="240" y="435" on="1"/>
        <pt x="214" y="427" on="0"/>
        <pt x="174" y="391" on="0"/>
        <pt x="148" y="338" on="0"/>
        <pt x="135" y="272" on="0"/>
      </contour>
    </TTGlyph>
    <TTGlyph name="circumflex" xMin="20" yMin="660" xMax="290" yMax="775">
      <contour>
        <pt x="155" y="740" on="1"/>
        <pt x="70" y="660" on="1"/>
        <pt x="20" y="660" on="1"/>
        <pt x="100" y="775" on="1"/>
        <pt x="210" y="775" on="1"/>
        <pt x="290" y="660" on="1"/>
        <pt x="240" y="660" on="1"/>
      </contour>
    </TTGlyph>
    <TTGlyph name="circumflex.alt1" xMin="0" yMin="530" xMax="270" yMax="645">
      <contour>
        <pt x="135" y="610" on="1"/>
        <pt x="50" y="530" on="1"/>
        <pt x="0" y="530" on="1"/>
        <pt x="80" y="645" on="1"/>
        <pt x="190" y="645" on="1"/>
        <pt x="270" y="530" on="1"/>
        <pt x="220" y="530" on="1"/>
      </contour>
    </TTGlyph>
    <TTGlyph name="colon" xMin="66" yMin="-14" xMax="175" yMax="461">
      <contour>
        <pt x="121" y="461" on="1"/>
        <pt x="144" y="461" on="0"/>
        <pt x="175" y="429" on="0"/>
        <pt x="175" y="407" on="1"/>
        <pt x="175" y="384" on="0"/>
        <pt x="144" y="353" on="0"/>
        <pt x="121" y="353" on="1"/>
        <pt x="99" y="353" on="0"/>
        <pt x="67" y="384" on="0"/>
        <pt x="67" y="407" on="1"/>
        <pt x="67" y="429" on="0"/>
        <pt x="99" y="461" on="0"/>
      </contour>
      <contour>
        <pt x="120" y="95" on="1"/>
        <pt x="143" y="95" on="0"/>
        <pt x="175" y="63" on="0"/>
        <pt x="175" y="41" on="1"/>
        <pt x="175" y="18" on="0"/>
        <pt x="143" y="-14" on="0"/>
        <pt x="120" y="-14" on="1"/>
        <pt x="98" y="-14" on="0"/>
        <pt x="66" y="18" on="0"/>
        <pt x="66" y="41" on="1"/>
        <pt x="66" y="63" on="0"/>
        <pt x="98" y="95" on="0"/>
      </contour>
    </TTGlyph>
    <TTGlyph name="comma" xMin="56" yMin="-155" xMax="181" yMax="100">
      <contour>
        <pt x="61" y="-140" on="1"/>
        <pt x="99" y="-114" on="0"/>
        <pt x="141" y="-50" on="0"/>
        <pt x="141" y="-5" on="1"/>
        <pt x="111" y="-15" on="1"/>
        <pt x="88" y="-15" on="0"/>
        <pt x="56" y="17" on="0"/>
        <pt x="56" y="40" on="1"/>
        <pt x="56" y="66" on="0"/>
        <pt x="90" y="100" on="0"/>
        <pt x="116" y="100" on="1"/>
        <pt x="146" y="100" on="0"/>
        <pt x="181" y="64" on="0"/>
        <pt x="181" y="30" on="1"/>
        <pt x="181" y="-34" on="0"/>
        <pt x="124" y="-125" on="0"/>
        <pt x="71" y="-155" on="1"/>
      </contour>
    </TTGlyph>
    <TTGlyph name="copyright" xMin="40" yMin="-25" xMax="750" yMax="685">
      <contour>
        <pt x="395" y="685" on="1"/>
        <pt x="472" y="685" on="0"/>
        <pt x="602" y="632" on="0"/>
        <pt x="697" y="537" on="0"/>
        <pt x="750" y="407" on="0"/>
        <pt x="750" y="330" on="1"/>
        <pt x="750" y="253" on="0"/>
        <pt x="697" y="123" on="0"/>
        <pt x="602" y="28" on="0"/>
        <pt x="472" y="-25" on="0"/>
        <pt x="395" y="-25" on="1"/>
        <pt x="318" y="-25" on="0"/>
        <pt x="188" y="28" on="0"/>
        <pt x="93" y="123" on="0"/>
        <pt x="40" y="253" on="0"/>
        <pt x="40" y="330" on="1"/>
        <pt x="40" y="407" on="0"/>
        <pt x="93" y="537" on="0"/>
        <pt x="188" y="632" on="0"/>
        <pt x="318" y="685" on="0"/>
      </contour>
      <contour>
        <pt x="395" y="15" on="1"/>
        <pt x="464" y="15" on="0"/>
        <pt x="580" y="61" on="0"/>
        <pt x="664" y="145" on="0"/>
        <pt x="710" y="261" on="0"/>
        <pt x="710" y="330" on="1"/>
        <pt x="710" y="399" on="0"/>
        <pt x="664" y="515" on="0"/>
        <pt x="580" y="599" on="0"/>
        <pt x="464" y="645" on="0"/>
        <pt x="395" y="645" on="1"/>
        <pt x="326" y="645" on="0"/>
        <pt x="210" y="599" on="0"/>
        <pt x="126" y="515" on="0"/>
        <pt x="80" y="399" on="0"/>
        <pt x="80" y="330" on="1"/>
        <pt x="80" y="261" on="0"/>
        <pt x="126" y="145" on="0"/>
        <pt x="210" y="61" on="0"/>
        <pt x="326" y="15" on="0"/>
      </contour>
      <contour>
        <pt x="548" y="412" on="1"/>
        <pt x="536" y="476" on="0"/>
        <pt x="469" y="536" on="0"/>
        <pt x="415" y="536" on="1"/>
        <pt x="383" y="536" on="0"/>
        <pt x="327" y="515" on="0"/>
        <pt x="284" y="466" on="0"/>
        <pt x="259" y="386" on="0"/>
        <pt x="259" y="327" on="1"/>
        <pt x="259" y="290" on="0"/>
        <pt x="277" y="220" on="0"/>
        <pt x="315" y="165" on="0"/>
        <pt x="374" y="132" on="0"/>
        <pt x="415" y="132" on="1"/>
        <pt x="464" y="132" on="0"/>
        <pt x="534" y="178" on="0"/>
        <pt x="561" y="223" on="1"/>
        <pt x="574" y="213" on="1"/>
        <pt x="542" y="152" on="0"/>
        <pt x="454" y="105" on="0"/>
        <pt x="395" y="105" on="1"/>
        <pt x="349" y="105" on="0"/>
        <pt x="275" y="139" on="0"/>
        <pt x="223" y="199" on="0"/>
        <pt x="195" y="280" on="0"/>
        <pt x="195" y="327" on="1"/>
        <pt x="195" y="376" on="0"/>
        <pt x="227" y="462" on="0"/>
        <pt x="281" y="525" on="0"/>
        <pt x="354" y="562" on="0"/>
        <pt x="395" y="562" on="1"/>
        <pt x="449" y="562" on="0"/>
        <pt x="527" y="531" on="0"/>
        <pt x="544" y="510" on="1"/>
        <pt x="557" y="495" on="0"/>
        <pt x="561" y="441" on="0"/>
        <pt x="561" y="412" on="1"/>
      </contour>
    </TTGlyph>
    <TTGlyph name="currency" xMin="34" yMin="0" xMax="544" yMax="660">
      <contour>
        <pt x="294" y="330" on="1"/>
        <pt x="325" y="331" on="0"/>
        <pt x="380" y="349" on="0"/>
        <pt x="420" y="385" on="0"/>
        <pt x="444" y="441" on="0"/>
        <pt x="444" y="480" on="1"/>
        <pt x="444" y="517" on="0"/>
        <pt x="419" y="572" on="0"/>
        <pt x="377" y="608" on="0"/>
        <pt x="321" y="625" on="0"/>
        <pt x="289" y="625" on="1"/>
        <pt x="270" y="625" on="0"/>
        <pt x="229" y="619" on="0"/>
        <pt x="214" y="615" on="1"/>
        <pt x="214" y="330" on="1"/>
      </contour>
      <contour>
        <pt x="474" y="200" on="1"/>
        <pt x="214" y="200" on="1"/>
        <pt x="214" y="0" on="1"/>
        <pt x="124" y="0" on="1"/>
        <pt x="124" y="200" on="1"/>
        <pt x="64" y="200" on="1"/>
        <pt x="64" y="240" on="1"/>
        <pt x="124" y="240" on="1"/>
        <pt x="124" y="290" on="1"/>
        <pt x="64" y="290" on="1"/>
        <pt x="64" y="330" on="1"/>
        <pt x="124" y="330" on="1"/>
        <pt x="124" y="540" on="1"/>
        <pt x="124" y="585" on="0"/>
        <pt x="99" y="640" on="0"/>
        <pt x="54" y="640" on="1"/>
        <pt x="34" y="640" on="1"/>
        <pt x="34" y="660" on="1"/>
        <pt x="294" y="660" on="1"/>
        <pt x="343" y="660" on="0"/>
        <pt x="433" y="642" on="0"/>
        <pt x="502" y="600" on="0"/>
        <pt x="544" y="531" on="0"/>
        <pt x="544" y="480" on="1"/>
        <pt x="544" y="426" on="0"/>
        <pt x="502" y="353" on="0"/>
        <pt x="433" y="309" on="0"/>
        <pt x="343" y="290" on="0"/>
        <pt x="294" y="290" on="1"/>
        <pt x="214" y="290" on="1"/>
        <pt x="214" y="240" on="1"/>
        <pt x="474" y="240" on="1"/>
      </contour>
    </TTGlyph>
    <TTGlyph name="d" xMin="47" yMin="-10" xMax="452" yMax="660">
      <contour>
        <pt x="362" y="410" on="1"/>
        <pt x="339" y="421" on="0"/>
        <pt x="290" y="440" on="0"/>
        <pt x="267" y="440" on="1"/>
        <pt x="233" y="440" on="0"/>
        <pt x="186" y="408" on="0"/>
        <pt x="156" y="353" on="0"/>
        <pt x="142" y="278" on="0"/>
        <pt x="142" y="235" on="1"/>
        <pt x="142" y="192" on="0"/>
        <pt x="155" y="117" on="0"/>
        <pt x="184" y="62" on="0"/>
        <pt x="227" y="30" on="0"/>
        <pt x="257" y="30" on="1"/>
        <pt x="279" y="30" on="0"/>
        <pt x="312" y="40" on="0"/>
        <pt x="337" y="57" on="0"/>
        <pt x="354" y="79" on="0"/>
        <pt x="362" y="90" on="1"/>
      </contour>
      <contour>
        <pt x="452" y="0" on="1"/>
        <pt x="402" y="0" on="1"/>
        <pt x="367" y="45" on="1"/>
        <pt x="362" y="45" on="1"/>
        <pt x="354" y="36" on="0"/>
        <pt x="333" y="16" on="0"/>
        <pt x="301" y="0" on="0"/>
        <pt x="257" y="-10" on="0"/>
        <pt x="227" y="-10" on="1"/>
        <pt x="182" y="-10" on="0"/>
        <pt x="114" y="29" on="0"/>
        <pt x="69" y="95" on="0"/>
        <pt x="47" y="184" on="0"/>
        <pt x="47" y="235" on="1"/>
        <pt x="47" y="286" on="0"/>
        <pt x="70" y="375" on="0"/>
        <pt x="117" y="441" on="0"/>
        <pt x="188" y="480" on="0"/>
        <pt x="237" y="480" on="1"/>
        <pt x="279" y="480" on="0"/>
        <pt x="339" y="461" on="0"/>
        <pt x="362" y="450" on="1"/>
        <pt x="362" y="540" on="1"/>
        <pt x="362" y="585" on="0"/>
        <pt x="337" y="640" on="0"/>
        <pt x="292" y="640" on="1"/>
        <pt x="272" y="640" on="1"/>
        <pt x="272" y="660" on="1"/>
        <pt x="362" y="660" on="1"/>
        <pt x="388" y="660" on="0"/>
        <pt x="423" y="651" on="0"/>
        <pt x="444" y="624" on="0"/>
        <pt x="452" y="577" on="0"/>
        <pt x="452" y="540" on="1"/>
      </contour>
    </TTGlyph>
    <TTGlyph name="dagger" xMin="27" yMin="-190" xMax="496" yMax="680">
      <contour>
        <pt x="216" y="470" on="1"/>
        <pt x="216" y="680" on="1"/>
        <pt x="306" y="680" on="1"/>
        <pt x="306" y="470" on="1"/>
        <pt x="496" y="470" on="1"/>
        <pt x="496" y="410" on="1"/>
        <pt x="306" y="410" on="1"/>
        <pt x="306" y="-190" on="1"/>
        <pt x="216" y="-190" on="1"/>
        <pt x="216" y="410" on="1"/>
        <pt x="27" y="410" on="1"/>
        <pt x="27" y="470" on="1"/>
      </contour>
    </TTGlyph>
    <TTGlyph name="daggerdbl" xMin="43" yMin="-190" xMax="512" yMax="680">
      <contour>
        <pt x="232" y="470" on="1"/>
        <pt x="232" y="680" on="1"/>
        <pt x="322" y="680" on="1"/>
        <pt x="322" y="470" on="1"/>
        <pt x="512" y="470" on="1"/>
        <pt x="512" y="410" on="1"/>
        <pt x="322" y="410" on="1"/>
        <pt x="322" y="80" on="1"/>
        <pt x="512" y="80" on="1"/>
        <pt x="512" y="20" on="1"/>
        <pt x="322" y="20" on="1"/>
        <pt x="322" y="-190" on="1"/>
        <pt x="232" y="-190" on="1"/>
        <pt x="232" y="20" on="1"/>
        <pt x="43" y="20" on="1"/>
        <pt x="43" y="80" on="1"/>
        <pt x="232" y="80" on="1"/>
        <pt x="232" y="410" on="1"/>
        <pt x="43" y="410" on="1"/>
        <pt x="43" y="470" on="1"/>
      </contour>
    </TTGlyph>
    <TTGlyph name="degree" xMin="46" yMin="360" xMax="366" yMax="680">
      <contour>
        <pt x="206" y="625" on="1"/>
        <pt x="185" y="625" on="0"/>
        <pt x="149" y="609" on="0"/>
        <pt x="122" y="581" on="0"/>
        <pt x="106" y="542" on="0"/>
        <pt x="106" y="520" on="1"/>
        <pt x="106" y="497" on="0"/>
        <pt x="122" y="459" on="0"/>
        <pt x="149" y="431" on="0"/>
        <pt x="185" y="415" on="0"/>
        <pt x="206" y="415" on="1"/>
        <pt x="227" y="415" on="0"/>
        <pt x="263" y="431" on="0"/>
        <pt x="290" y="459" on="0"/>
        <pt x="306" y="497" on="0"/>
        <pt x="306" y="520" on="1"/>
        <pt x="306" y="542" on="0"/>
        <pt x="290" y="581" on="0"/>
        <pt x="263" y="609" on="0"/>
        <pt x="227" y="625" on="0"/>
      </contour>
      <contour>
        <pt x="206" y="680" on="1"/>
        <pt x="240" y="680" on="0"/>
        <pt x="298" y="655" on="0"/>
        <pt x="341" y="612" on="0"/>
        <pt x="366" y="554" on="0"/>
        <pt x="366" y="520" on="1"/>
        <pt x="366" y="486" on="0"/>
        <pt x="341" y="428" on="0"/>
        <pt x="298" y="385" on="0"/>
        <pt x="240" y="360" on="0"/>
        <pt x="206" y="360" on="1"/>
        <pt x="172" y="360" on="0"/>
        <pt x="114" y="385" on="0"/>
        <pt x="71" y="428" on="0"/>
        <pt x="46" y="486" on="0"/>
        <pt x="46" y="520" on="1"/>
        <pt x="46" y="554" on="0"/>
        <pt x="71" y="612" on="0"/>
        <pt x="114" y="655" on="0"/>
        <pt x="172" y="680" on="0"/>
      </contour>
    </TTGlyph>
</ttFont>
